<?xml version="1.0" encoding="UTF-8" standalone="no"?>
<!DOCTYPE svg PUBLIC "-//W3C//DTD SVG 1.1//EN" "http://www.w3.org/Graphics/SVG/1.1/DTD/svg11.dtd">
<svg width="100%" height="100%" viewBox="0 0 301 301" version="1.1" xmlns="http://www.w3.org/2000/svg" xmlns:xlink="http://www.w3.org/1999/xlink" xml:space="preserve" xmlns:serif="http://www.serif.com/" style="fill-rule:evenodd;clip-rule:evenodd;stroke-linecap:round;stroke-linejoin:round;stroke-miterlimit:1.5;">
    <g transform="matrix(1,0,0,1,-518.548,-295.276)">
        <g transform="matrix(0.936083,0,0,0.936083,438.221,-101.243)">
            <circle cx="246.582" cy="584.364" r="160.77" style="fill:rgb(67,79,97);"/>
            <clipPath id="_clip1">
                <circle cx="246.582" cy="584.364" r="160.77"/>
            </clipPath>
            <g clip-path="url(#_clip1)">
                <g transform="matrix(1.3036,1.33436e-16,-1.14755e-15,1.3036,-1263.87,-866.043)">
                    <g transform="matrix(0.665807,0,0,0.665807,-71.0255,-266.769)">
                        <path d="M1717.27,2063.13L1697.52,1999.51L1788.52,2010.94L1777.31,2064.7L1717.27,2063.13Z" style="fill:rgb(248,201,126);"/>
                        <clipPath id="_clip2">
                            <path d="M1717.27,2063.13L1697.52,1999.51L1788.52,2010.94L1777.31,2064.7L1717.27,2063.13Z"/>
                        </clipPath>
                        <g clip-path="url(#_clip2)">
                            <path d="M1746.06,2059.63L1741.74,2004.48" style="fill:none;stroke:rgb(208,3,3);stroke-width:7.28px;"/>
                            <path d="M1706.97,2030.59L1783.55,2038.31" style="fill:none;stroke:rgb(208,3,3);stroke-width:7.28px;"/>
                        </g>
                    </g>
                    <g transform="matrix(0.562983,0.0796162,-0.0796162,0.562983,283.754,-208.914)">
                        <path d="M1875.26,2008.26L1820.53,1935.15L1892.67,1898.72L1927.68,1976.32L1875.26,2008.26Z" style="fill:rgb(255,141,0);"/>
                    </g>
                    <g transform="matrix(0.562983,0.0796162,-0.0796162,0.562983,283.754,-208.914)">
                        <path d="M1948.7,1979.6L1988.16,1902.05L2052.89,1935.27L2016.64,2011.65L1948.7,1979.6Z" style="fill:rgb(255,141,0);"/>
                    </g>
                    <g transform="matrix(0.665807,0,0,0.665807,-69.5452,-266.703)">
                        <path d="M1739.38,2004.77C1739.38,2004.77 1713.2,1971.06 1726.49,1964.51C1739.79,1957.94 1739.38,2004.77 1739.38,2004.77Z" style="fill:none;stroke:rgb(208,3,3);stroke-width:7.28px;"/>
                    </g>
                    <g transform="matrix(0.33476,0.57553,-0.57553,0.33476,1660.16,-604.358)">
                        <path d="M1739.38,2004.77C1739.38,2004.77 1713.2,1971.06 1726.49,1964.51C1733.68,1960.96 1745.05,1963.55 1746.46,1975.37C1747.65,1985.42 1739.38,2004.77 1739.38,2004.77Z" style="fill:none;stroke:rgb(208,3,3);stroke-width:7.28px;"/>
                    </g>
                    <g transform="matrix(0.603827,0,0,0.58938,40.7616,-112.758)">
                        <path d="M1774.68,2124.88C1791.1,2133.02 1796.31,2122.97 1809.28,2110.12C1822.25,2097.26 1874.76,2129.72 1851.61,2157.22C1826.54,2187.02 1768.64,2218.85 1709.34,2152.27C1695.94,2137.22 1756.74,2115.98 1774.68,2124.88Z" style="fill:rgb(255,141,0);"/>
                    </g>
                    <g transform="matrix(0.568585,0,0,0.568585,94.8248,-69.9635)">
                        <path d="M1859.99,2160.76C1859.99,2160.76 1834.09,2184.64 1821.94,2192.17C1809.79,2199.7 1774.45,2189.71 1755.56,2209.08C1736.67,2228.45 1748.55,2238.79 1748.55,2238.79L1856.46,2240.22C1856.46,2240.22 1871.03,2230.08 1886.19,2221.94C1901.35,2213.8 1895.47,2210.39 1905.77,2188.42C1916.06,2166.44 1869.56,2145.28 1859.99,2160.76Z" style="fill:rgb(245,200,128);"/>
                        <clipPath id="_clip3">
                            <path d="M1859.99,2160.76C1859.99,2160.76 1834.09,2184.64 1821.94,2192.17C1809.79,2199.7 1774.45,2189.71 1755.56,2209.08C1736.67,2228.45 1748.55,2238.79 1748.55,2238.79L1856.46,2240.22C1856.46,2240.22 1871.03,2230.08 1886.19,2221.94C1901.35,2213.8 1895.47,2210.39 1905.77,2188.42C1916.06,2166.44 1869.56,2145.28 1859.99,2160.76Z"/>
                        </clipPath>
                        <g clip-path="url(#_clip3)">
                            <g transform="matrix(1,0,0,1,725.271,-211.54)">
                                <path d="M1099.63,2392.66C1099.63,2392.66 1137.53,2382.86 1150.29,2398.01C1182.85,2436.61 1097.41,2448.82 1087.25,2448.33C1053.43,2446.69 975.502,2452.26 982.921,2457.74C999.874,2470.27 1156.05,2484.41 1190.01,2435.68C1221.09,2391.08 1139.35,2362.11 1139.35,2362.11L1099.63,2392.66Z" style="fill:rgb(255,141,0);"/>
                            </g>
                        </g>
                    </g>
                    <g transform="matrix(0.568585,0,0,0.568585,101.999,-67.5469)">
                        <path d="M2106.98,2116.97C2122.37,2110.68 2122.32,2153.12 2145.53,2147.36C2168.74,2141.59 2181.26,2117.49 2188.22,2119.01C2195.18,2120.52 2186.55,2168.94 2162.2,2183.22C2125.07,2204.98 2077.76,2200.7 2066.77,2190.97C2028.03,2156.68 2091.59,2123.25 2106.98,2116.97Z" style="fill:rgb(245,200,128);"/>
                        <clipPath id="_clip4">
                            <path d="M2106.98,2116.97C2122.37,2110.68 2122.32,2153.12 2145.53,2147.36C2168.74,2141.59 2181.26,2117.49 2188.22,2119.01C2195.18,2120.52 2186.55,2168.94 2162.2,2183.22C2125.07,2204.98 2077.76,2200.7 2066.77,2190.97C2028.03,2156.68 2091.59,2123.25 2106.98,2116.97Z"/>
                        </clipPath>
                        <g clip-path="url(#_clip4)">
                            <g transform="matrix(1,0,0,1,712.335,-218.018)">
                                <path d="M1486.53,2353.85C1486.53,2353.85 1450.68,2407.82 1419.72,2398.45C1388.77,2389.08 1363.92,2378.29 1359.03,2358.33C1354.14,2338.37 1317.89,2361.59 1317.89,2367.7C1317.89,2373.81 1341.52,2411.89 1341.52,2411.89L1399.36,2443.05L1447.01,2419.23L1486.53,2353.85Z" style="fill:rgb(255,141,0);"/>
                            </g>
                        </g>
                    </g>
                    <g transform="matrix(0.568585,0,0,0.568585,101.999,-67.5469)">
                        <path d="M2021.36,2171.61C2043.17,2157.57 2060.39,2166.98 2066.08,2181.42C2071.76,2195.86 2099.2,2191.02 2129.79,2194.52C2160.38,2198.01 2172.57,2217.18 2171.5,2235.22L2031.68,2235.8C2031.68,2235.8 1981,2197.59 2021.36,2171.61Z" style="fill:rgb(245,200,128);"/>
                        <clipPath id="_clip5">
                            <path d="M2021.36,2171.61C2043.17,2157.57 2060.39,2166.98 2066.08,2181.42C2071.76,2195.86 2099.2,2191.02 2129.79,2194.52C2160.38,2198.01 2172.57,2217.18 2171.5,2235.22L2031.68,2235.8C2031.68,2235.8 1981,2197.59 2021.36,2171.61Z"/>
                        </clipPath>
                        <g clip-path="url(#_clip5)">
                            <g transform="matrix(1,0,0,1,712.335,-218.018)">
                                <path d="M1302,2413.93C1302,2413.93 1308.52,2425.74 1322.17,2436.13C1335.81,2446.52 1369.21,2446.11 1379.8,2445.3C1390.39,2444.48 1481.64,2445.09 1481.03,2455.89C1480.41,2466.68 1296.1,2458.33 1296.1,2458.33C1296.1,2458.33 1292.43,2418.62 1302,2413.93Z" style="fill:rgb(255,141,0);"/>
                            </g>
                        </g>
                    </g>
                    <g transform="matrix(0.568585,0,0,0.568585,101.999,-67.5469)">
                        <path d="M1834.58,2113.86C1823.72,2103.22 1792.43,2098.82 1822.67,2057.83C1852.92,2016.84 1874.49,1973.69 1954.57,1975.47C2045.92,1977.5 2117.17,2081.51 2104.69,2100.3C2092.21,2119.09 1992.55,2190.37 1952.56,2185.13C1894.68,2177.55 1856.23,2135.08 1834.58,2113.86Z" style="fill:rgb(208,3,3);"/>
                        <clipPath id="_clip6">
                            <path d="M1834.58,2113.86C1823.72,2103.22 1792.43,2098.82 1822.67,2057.83C1852.92,2016.84 1874.49,1973.69 1954.57,1975.47C2045.92,1977.5 2117.17,2081.51 2104.69,2100.3C2092.21,2119.09 1992.55,2190.37 1952.56,2185.13C1894.68,2177.55 1856.23,2135.08 1834.58,2113.86Z"/>
                        </clipPath>
                        <g clip-path="url(#_clip6)">
                            <g transform="matrix(1.54011,0,0,1.34504,95.1507,1198.13)">
                                <ellipse cx="1180.74" cy="642.851" rx="75.962" ry="64.956" style="fill:rgb(246,140,30);"/>
                            </g>
                        </g>
                    </g>
                    <g transform="matrix(0.568585,0,0,0.568585,507.022,-191.509)">
                        <path d="M1161.81,2431.93C1161.81,2431.93 1173.73,2414.16 1230.1,2415.1C1252.87,2415.47 1289.56,2420.95 1299.11,2428.91C1308.65,2436.87 1311.9,2392.06 1301.72,2392.06C1291.54,2392.06 1155.65,2396.51 1155.65,2396.51L1161.81,2431.93Z" style="fill:rgb(255,141,0);"/>
                    </g>
                    <g transform="matrix(0.568585,0,0,0.568585,101.999,-67.5469)">
                        <path d="M1788.1,2125.49C1788.1,2125.49 1781.52,2109.07 1794.08,2094.34C1806.64,2079.62 1810.66,2079.58 1822.82,2082.83C1834.98,2086.08 1860.97,2102.57 1890,2131.62C1912.62,2154.25 1950.98,2158.62 1972.16,2154.46C2026.13,2143.86 2038.62,2109.74 2067.93,2093.96C2097.24,2078.19 2113.6,2078.68 2122.46,2099.06C2131.32,2119.45 2122.75,2133.55 2122.75,2133.55C2122.75,2133.55 2112.44,2114.89 2075.57,2150.15C2043.86,2180.49 1994.66,2201.95 1967.34,2202.33C1917.14,2203.03 1885.05,2185.53 1868.9,2174.04C1847.75,2159 1806.86,2106.78 1788.1,2125.49Z" style="fill:rgb(59,103,59);"/>
                    </g>
                    <g transform="matrix(0.554157,0.127272,-0.127272,0.554157,395.399,-279.9)">
                        <path d="M1841.32,2033.88L1797.67,1984.39L1848.72,1937.38L1890.98,1988.49L1841.32,2033.88Z" style="fill:rgb(248,201,126);"/>
                        <clipPath id="_clip7">
                            <path d="M1841.32,2033.88L1797.67,1984.39L1848.72,1937.38L1890.98,1988.49L1841.32,2033.88Z"/>
                        </clipPath>
                        <g clip-path="url(#_clip7)">
                            <g transform="matrix(0.990148,-0.140025,0.140025,0.990148,-211.808,717.532)">
                                <path d="M1830.08,1523.65L1838.06,1532.41L1855.09,1522.52L1845.03,1509.34L1830.08,1523.65Z" style="fill:rgb(246,140,30);"/>
                            </g>
                        </g>
                    </g>
                    <g transform="matrix(0.562983,0.0796162,-0.0796162,0.562983,282.017,-208.285)">
                        <path d="M1996.5,1985.44L2020.27,1933.09L2085.5,1968.32L2049.2,2015.62L1996.5,1985.44Z" style="fill:rgb(248,201,126);"/>
                        <clipPath id="_clip8">
                            <path d="M1996.5,1985.44L2020.27,1933.09L2085.5,1968.32L2049.2,2015.62L1996.5,1985.44Z"/>
                        </clipPath>
                        <g clip-path="url(#_clip8)">
                            <g transform="matrix(0.990148,-0.140025,0.140025,0.990148,-211.808,717.532)">
                                <path d="M2063.19,1526.36L2052.81,1542.24L2065.23,1551.61L2085.6,1541.23L2063.19,1526.36Z" style="fill:rgb(246,140,30);"/>
                            </g>
                        </g>
                    </g>
                    <g transform="matrix(0.562983,0.0796162,-0.0796162,0.562983,283.754,-208.914)">
                        <path d="M1900.74,1991.41L1876.15,1883.28L1995.75,1891.87L1986.66,1989.63L1900.74,1991.41Z" style="fill:rgb(248,201,126);"/>
                        <clipPath id="_clip9">
                            <path d="M1900.74,1991.41L1876.15,1883.28L1995.75,1891.87L1986.66,1989.63L1900.74,1991.41Z"/>
                        </clipPath>
                        <g clip-path="url(#_clip9)">
                            <g transform="matrix(0.990148,-0.140025,0.140025,0.990148,-211.808,717.532)">
                                <path d="M1941.61,1442.45L1948.12,1470.15L1971.34,1477.28L1978.27,1453.24L1941.61,1442.45Z" style="fill:rgb(246,140,30);"/>
                            </g>
                        </g>
                    </g>
                    <g transform="matrix(0.592707,0,0,0.580614,59.9669,-92.8241)">
                        <path d="M1742.27,2058.27C1790.22,2056.75 1820.97,2081.51 1793.71,2142.57C1763.48,2210.27 1700.12,2158.11 1689.26,2118.09C1682.24,2092.22 1691.23,2059.89 1742.27,2058.27Z" style="fill:rgb(245,200,128);"/>
                    </g>
                    <g transform="matrix(0.66852,0,0,0.413332,-74.842,441.068)">
                        <path d="M1729.39,1679.2L1761.28,1672.46C1761.28,1672.46 1757.36,1701.34 1745.5,1701.11C1733.63,1700.87 1729.39,1679.2 1729.39,1679.2Z" style="fill:rgb(208,3,3);"/>
                        <clipPath id="_clip10">
                            <path d="M1729.39,1679.2L1761.28,1672.46C1761.28,1672.46 1757.36,1701.34 1745.5,1701.11C1733.63,1700.87 1729.39,1679.2 1729.39,1679.2Z"/>
                        </clipPath>
                        <g clip-path="url(#_clip10)">
                            <g transform="matrix(0.850512,0,0,1.37561,873.258,-1531.33)">
                                <ellipse cx="1031.17" cy="2346.39" rx="18.248" ry="13.36" style="fill:rgb(246,140,30);"/>
                            </g>
                        </g>
                    </g>
                    <g transform="matrix(0.207539,-0.463154,0.518873,0.232507,-348.697,1413.28)">
                        <ellipse cx="1670.5" cy="2070.82" rx="26.308" ry="16.721" style="fill:white;"/>
                    </g>
                    <g transform="matrix(0.376359,0.443324,-0.505817,0.429412,1531.86,-509.798)">
                        <ellipse cx="1670.5" cy="2070.82" rx="26.308" ry="16.721" style="fill:white;"/>
                    </g>
                    <g transform="matrix(0.0946014,-0.211116,0.15385,0.0689403,595.304,1330.74)">
                        <ellipse cx="1670.5" cy="2070.82" rx="26.308" ry="16.721"/>
                    </g>
                    <g transform="matrix(0.171553,0.202078,-0.149979,0.127324,1137.64,518.302)">
                        <ellipse cx="1670.5" cy="2070.82" rx="26.308" ry="16.721"/>
                    </g>
                </g>
            </g>
        </g>
    </g>
</svg>
