<?xml version="1.0" encoding="UTF-8" standalone="no"?>
<!DOCTYPE svg PUBLIC "-//W3C//DTD SVG 1.1//EN" "http://www.w3.org/Graphics/SVG/1.1/DTD/svg11.dtd">
<svg width="100%" height="100%" viewBox="0 0 607 140" version="1.1" xmlns="http://www.w3.org/2000/svg" xmlns:xlink="http://www.w3.org/1999/xlink" xml:space="preserve" xmlns:serif="http://www.serif.com/" style="fill-rule:evenodd;clip-rule:evenodd;stroke-linejoin:round;stroke-miterlimit:2;">
    <g transform="matrix(1,0,0,1,-1742.9,-378.294)">
        <g transform="matrix(0.196755,0,0,0.196755,1118.47,-496.706)">
            <g>
                <g transform="matrix(1.18256,0,0,1.14913,-514.917,-745.997)">
                    <path d="M3119.15,4652.3L3124.4,4587.97L3564.98,4527.69L3516.62,4634.79L3344.97,4628.31L3341.82,4888.47L3350.82,5083.4L3245.85,5083.4L3254.85,4901.22L3251.85,4641.81L3119.15,4652.3Z" style="fill:rgb(59,103,59);fill-rule:nonzero;"/>
                </g>
                <g transform="matrix(0.811619,0,0,0.832687,634.69,862.172)">
                    <path d="M3701.69,5091.65C3656.71,5091.65 3618.85,5077.9 3588.11,5050.41C3557.37,5022.92 3542,4988.93 3542,4948.45L3534.5,4581.08L3642.46,4562.33L3634.81,4890.48C3634.81,4925.47 3651.89,4953.98 3668.13,4973.48C3684.38,4992.97 3697.57,4991.24 3731.56,4991.24C3765.55,4991.24 3776.93,4983.3 3791.92,4964.31C3806.92,4945.32 3819.28,4923.19 3819.28,4876.7L3817.15,4581.08L3922.12,4562.33L3913.87,4892.22C3913.87,4951.2 3894.12,4999.18 3854.64,5036.17C3815.15,5073.15 3764.17,5091.65 3701.69,5091.65Z" style="fill:rgb(59,103,59);fill-rule:nonzero;"/>
                </g>
                <g transform="matrix(1,0,0,1,-170.889,-11.0751)">
                    <path d="M4165.78,4883.97L4123.04,4883.97L4123.04,4888.47L4132.04,5083.4L4031.58,5083.4L4040.57,4901.22L4031.58,4566.08L4194.27,4566.08C4242.25,4566.08 4280.49,4579.08 4308.98,4605.07C4337.47,4631.06 4351.71,4665.55 4351.71,4708.53C4351.71,4741.02 4343.34,4770.64 4326.6,4797.38C4309.85,4824.12 4287.24,4845.23 4258.75,4860.73L4389.2,5045.16L4298.48,5091.65L4181.52,4883.22C4178.02,4883.72 4172.78,4883.97 4165.78,4883.97ZM4167.28,4641.81L4130.54,4641.81L4125.29,4811.25L4176.28,4811.25C4201.27,4811.25 4220.64,4803 4234.38,4786.51C4248.12,4770.01 4255,4746.52 4255,4716.03C4255,4666.55 4225.76,4641.81 4167.28,4641.81Z" style="fill:rgb(59,103,59);fill-rule:nonzero;"/>
                </g>
                <g transform="matrix(1,0,0,1,-303.984,-115.807)">
                    <path d="M4405.69,4652.3L4359.43,4566.83L4813.27,4562.97L4761.82,4652.3L4631.36,4641.06L4628.37,4888.47L4637.36,5083.4L4532.4,5083.4L4541.4,4901.22L4538.4,4641.81L4405.69,4652.3Z" style="fill:rgb(59,103,59);fill-rule:nonzero;"/>
                </g>
                <g transform="matrix(1,0,0,1,-426.755,41.7723)">
                    <path d="M4830.05,5083.4L4839.04,4901.22L4830.05,4581.08L4936.51,4562.33L4926.01,4888.47L4931.26,5009.93L5084.96,4997.93L5076.71,5083.4L4830.05,5083.4Z" style="fill:rgb(59,103,59);fill-rule:nonzero;"/>
                </g>
                <g transform="matrix(1,0,0,1,-567.193,-88.9617)">
                    <path d="M5149.43,5083.4L5158.43,4901.22L5149.43,4566.08L5430.58,4566.08L5422.34,4646.3L5253.65,4646.3L5249.15,4779.01L5399.1,4779.01L5390.85,4858.48L5246.15,4858.48L5245.4,4888.47L5250.65,5003.93L5432.08,5003.93L5423.84,5083.4L5149.43,5083.4Z" style="fill:rgb(59,103,59);fill-rule:nonzero;"/>
                </g>
                <g transform="matrix(1.07243,0,0,1.12366,-1012.82,-553.578)">
                    <path d="M5735.73,4849.48L5743.22,4849.48L5852.69,4564.58L5956.15,4567.58L5959.15,4889.97L5973.39,5083.4L5872.18,5083.4L5875.93,4888.47L5867.68,4691.29L5777.71,4939.45L5685.49,4943.95L5601.52,4691.29L5594.78,4888.47L5600.02,5083.4L5507.06,5083.4L5517.55,4901.22L5522.05,4579.58L5641.26,4560.83L5735.73,4849.48Z" style="fill:rgb(255,141,0);fill-rule:nonzero;"/>
                </g>
                <g transform="matrix(1,0,0,1,-677.624,11.1228)">
                    <path d="M6352.25,5076.34L6344.51,4940.95L6209.45,4939.59L6197.5,5077.27L6107.8,5075.73L6144.35,4858.2L6180.56,4564.96L6330.27,4561.58L6435.33,4880.57L6450.02,5083.72L6352.25,5076.34ZM6262.79,4659.05L6253.05,4659.05L6223.01,4856.35L6322.02,4861.48L6262.79,4659.05Z" style="fill:rgb(255,141,0);fill-rule:nonzero;"/>
                </g>
                <g transform="matrix(1,0,0,0.993207,-754.378,98.7304)">
                    <path d="M6666.9,4562.33L6656.4,4888.47L6665.4,5083.4L6560.44,5083.4L6569.43,4901.22L6560.44,4581.08L6666.9,4562.33Z" style="fill:rgb(255,141,0);fill-rule:nonzero;"/>
                </g>
                <g transform="matrix(1.15517,0,0,1.09034,-1886.87,-477.831)">
                    <path d="M6786.86,5083.4L6786.24,4898.33L6801.95,4583.8L6892.86,4564.52L6865.3,4890.2L6865.99,5009.66L7050.8,4945.78L7033.52,5083.4L6786.86,5083.4Z" style="fill:rgb(255,141,0);fill-rule:nonzero;"/>
                </g>
            </g>
        </g>
    </g>
</svg>
