<?xml version="1.0" encoding="UTF-8" standalone="no"?>
<svg version="1.0" width="124" height="124" xmlns="http://www.w3.org/2000/svg">
  <path fill="#b3ff80" d="m 83.169922,26.263672 v 29.101562 h 7.8125 V 26.263672 Z M 9.6152344,29.115234 v 5.625 H 6.1386719 v 5.9375 h 3.4765625 v 8.515625 c 0,2.148436 0.6184906,3.717449 1.8554686,4.707032 1.236978,0.976561 3.209638,1.464843 5.917969,1.464843 h 4.296875 v -5.9375 h -2.460938 c -0.716145,0 -1.197917,-0.110677 -1.445312,-0.332031 -0.234375,-0.234374 -0.351563,-0.657552 -0.351563,-1.269531 v -7.148438 h 4.257813 v -5.9375 h -4.257813 v -5.625 z m 59.0234376,0 v 5.625 h -3.476563 v 5.9375 h 3.476563 v 8.515625 c 0,2.148436 0.618491,3.717449 1.855469,4.707032 1.236978,0.976561 3.209638,1.464843 5.917968,1.464843 h 4.296875 v -5.9375 h -2.460937 c -0.716145,0 -1.197917,-0.110677 -1.445313,-0.332031 -0.234374,-0.234374 -0.351562,-0.657552 -0.351562,-1.269531 v -7.148438 h 4.257812 v -5.9375 h -4.257812 v -5.625 z m 35.722658,5.15625 c -2.10938,0 -3.97787,0.462241 -5.605471,1.386719 -1.614581,0.911458 -2.884115,2.180992 -3.808593,3.808594 -0.924478,1.614582 -1.386719,3.476565 -1.386719,5.585937 0,2.096353 0.462241,3.958336 1.386719,5.585938 0.937499,1.627602 2.233074,2.903646 3.886718,3.828125 1.653646,0.911457 3.548176,1.367187 5.683596,1.367187 1.80989,0 3.46354,-0.30599 4.96094,-0.917968 1.51041,-0.625 2.76042,-1.477866 3.75,-2.558594 0.98958,-1.080728 1.60807,-2.32422 1.85546,-3.730469 h -6.91406 c -0.20833,0.559896 -0.61198,0.996094 -1.21094,1.308594 -0.58593,0.3125 -1.29557,0.46875 -2.1289,0.46875 -1.13281,0 -2.02474,-0.30599 -2.67578,-0.917969 -0.65102,-0.611979 -0.98956,-1.464845 -1.01563,-2.558594 h 14.02344 v -2.089843 c 0,-2.070311 -0.46224,-3.899741 -1.38672,-5.488282 -0.91146,-1.588539 -2.18099,-2.832032 -3.80859,-3.730468 -1.6276,-0.898437 -3.4961,-1.347657 -5.60547,-1.347657 z m -80.214846,0.46875 v 13.007813 c 0,2.473955 0.585939,4.440106 1.757813,5.898437 1.171873,1.458332 2.903648,2.1875 5.195312,2.1875 1.614582,0 2.962241,-0.351563 4.042969,-1.054687 1.080728,-0.716145 1.966147,-1.666668 2.65625,-2.851563 v 3.4375 h 7.714844 v -20.625 h -7.8125 v 10.9375 c 0,2.36979 -0.957033,3.554688 -2.871094,3.554688 -0.911458,0 -1.621095,-0.279948 -2.128906,-0.839844 -0.494792,-0.572916 -0.742188,-1.373699 -0.742188,-2.402344 v -11.25 z m 24.726563,0 v 20.625 h 7.8125 v -9.882812 c 0,-1.380207 0.358074,-2.47396 1.074219,-3.28125 0.716145,-0.807291 1.686198,-1.210938 2.910156,-1.210938 h 2.851562 v -6.25 h -1.953125 c -1.419269,0 -2.526042,0.279949 -3.320312,0.839844 -0.794271,0.546875 -1.380209,1.516929 -1.757813,2.910156 h -0.03906 v -3.75 z m 55.703123,5.117188 c 0.95052,0 1.71875,0.240886 2.30469,0.722656 0.58593,0.46875 0.944,1.126303 1.07422,1.972656 h -6.75781 c 0.13021,-0.846353 0.48828,-1.503906 1.07421,-1.972656 0.58594,-0.48177 1.35417,-0.722656 2.30469,-0.722656 z M 71.509766,67.873047 c -1.223957,0 -2.226564,0.351563 -3.007813,1.054687 -0.768228,0.690104 -1.152344,1.582033 -1.152344,2.675782 0,1.106769 0.384116,2.011719 1.152344,2.714843 0.781249,0.703125 1.783856,1.054688 3.007813,1.054688 1.223957,0 2.220052,-0.351563 2.988281,-1.054688 0.781249,-0.703124 1.171875,-1.608074 1.171875,-2.714843 0,-1.093749 -0.390626,-1.985678 -1.171875,-2.675782 -0.768229,-0.703124 -1.764324,-1.054687 -2.988281,-1.054687 z m 7.285156,0.390625 v 29.101562 h 7.8125 V 68.263672 Z m -57.5,8.007812 c -1.367187,0 -2.63021,0.364584 -3.789063,1.09375 -1.145832,0.716146 -2.005209,1.855471 -2.578125,3.417969 V 76.740234 H 7.4277344 v 20.625 H 15.240234 V 85.529297 c 0,-0.937499 0.234376,-1.679688 0.703125,-2.226563 0.46875,-0.546874 1.100262,-0.820312 1.894532,-0.820312 0.807291,0 1.445313,0.273438 1.914062,0.820312 0.48177,0.546875 0.722656,1.289064 0.722656,2.226563 v 11.835937 h 7.421875 V 85.529297 c 0,-0.937499 0.234376,-1.679688 0.703125,-2.226563 0.46875,-0.546874 1.093751,-0.820312 1.875,-0.820312 0.807292,0 1.451824,0.273438 1.933594,0.820312 0.48177,0.546875 0.722656,1.289064 0.722656,2.226563 v 11.835937 h 7.8125 V 83.576172 c 0,-2.21354 -0.651043,-3.984377 -1.953125,-5.3125 -1.289061,-1.328124 -2.968752,-1.992188 -5.039062,-1.992188 -1.458332,0 -2.805991,0.358074 -4.042969,1.074219 -1.236978,0.716145 -2.115886,1.790366 -2.636719,3.222656 -0.416666,-1.44531 -1.178386,-2.519531 -2.285156,-3.222656 -1.093749,-0.716145 -2.32422,-1.074219 -3.691406,-1.074219 z m 33.203125,0 c -3.16406,0 -5.585939,0.631512 -7.265625,1.894532 -1.679686,1.263019 -2.604167,3.066408 -2.773438,5.410156 h 7.148438 c 0.143228,-1.249999 1.002605,-1.875 2.578125,-1.875 0.716144,0 1.282552,0.136719 1.699219,0.410156 0.429687,0.260417 0.644531,0.61849 0.644531,1.074219 v 0.07813 c 0,0.559895 -0.377605,0.970052 -1.132813,1.230469 -0.755207,0.260416 -2.044272,0.449219 -3.867187,0.566406 -1.484374,0.09115 -2.825522,0.364584 -4.023438,0.820312 -1.197915,0.455729 -2.148438,1.152345 -2.851562,2.089844 -0.703125,0.924479 -1.054688,2.15495 -1.054688,3.691406 0,2.04427 0.651043,3.56771 1.953125,4.570313 1.315103,1.002603 3.007815,1.503906 5.078125,1.503906 1.315103,0 2.460939,-0.234375 3.4375,-0.703125 0.989583,-0.48177 1.822918,-1.334636 2.5,-2.558594 h 0.07813 v 2.890625 h 7.617188 V 83.576172 c 0,-2.343748 -0.833335,-4.147137 -2.5,-5.410156 -1.653644,-1.26302 -4.075524,-1.894532 -7.265625,-1.894532 z m 13.125,0.46875 v 20.625 h 7.8125 v -20.625 z M 56.607422,88.419922 v 1.640625 c 0,0.911457 -0.364584,1.608073 -1.09375,2.089844 -0.716145,0.48177 -1.497397,0.722656 -2.34375,0.722656 -0.664062,0 -1.210938,-0.14974 -1.640625,-0.449219 -0.416666,-0.299479 -0.625,-0.709636 -0.625,-1.230469 0,-0.533853 0.227865,-0.970052 0.683594,-1.308593 0.468749,-0.351563 1.10026,-0.592448 1.894531,-0.722657 1.341144,-0.234374 2.382813,-0.481771 3.125,-0.742187 z" />
</svg>
