<?xml version="1.0" encoding="UTF-8" standalone="no"?><!DOCTYPE svg PUBLIC "-//W3C//DTD SVG 1.1//EN" "http://www.w3.org/Graphics/SVG/1.1/DTD/svg11.dtd"><svg width="100%" height="100%" viewBox="0 0 1080 1150" version="1.1" xmlns="http://www.w3.org/2000/svg" xmlns:xlink="http://www.w3.org/1999/xlink" xml:space="preserve" xmlns:serif="http://www.serif.com/" style="fill-rule:evenodd;clip-rule:evenodd;stroke-linecap:round;stroke-linejoin:round;stroke-miterlimit:1.5;"><g><path d="M667.487,896.545C675.687,895.453 683.451,902.873 684.814,913.104C686.176,923.335 680.624,932.529 672.423,933.62C664.222,934.712 656.458,927.292 655.096,917.061C653.734,906.829 659.286,897.636 667.487,896.545Z" style="fill:#65331d;"/><path d="M661.359,821.032C741.292,821.032 778.009,867.073 778.009,900.645C778.009,934.217 760.571,884.355 671.493,929.588C600.222,965.778 516.531,988.101 516.531,954.529C516.531,920.957 581.426,821.032 661.359,821.032Z" style="fill:#357c16;"/><path d="M106.078,913.727C83.661,908.795 55.233,893.47 47.487,832.555C36.463,745.852 188.408,623.303 220.082,737.98C255.826,867.395 110.166,778.771 132.908,863.161C151.244,931.204 130.536,919.109 106.078,913.727Z" style="fill:url(#_Linear1);"/><clipPath id="_clip2"><path d="M106.078,913.727C83.661,908.795 55.233,893.47 47.487,832.555C36.463,745.852 188.408,623.303 220.082,737.98C255.826,867.395 110.166,778.771 132.908,863.161C151.244,931.204 130.536,919.109 106.078,913.727Z"/></clipPath><g clip-path="url(#_clip2)"><path d="M115.875,875.438C132.85,874.304 126.335,929.365 122.253,925.57C114.182,918.066 106.82,876.043 115.875,875.438Z" style="fill:none;stroke:#fa8839;stroke-width:4.17px;"/><path d="M90.793,877.488C91.825,879.32 95.436,885.736 95.083,903.418C95.052,904.963 94.703,922.411 93.227,922.648C92.08,920.689 87.346,912.604 86.349,895.121C85.804,885.561 85.594,885.332 90.793,877.488Z" style="fill:none;stroke:#fa8839;stroke-width:4.17px;"/><path d="M68.74,902.933C62.787,877.418 72.084,872.675 74.423,878.048C76.178,882.08 80.199,915.28 69.107,918.741" style="fill:none;stroke:#fa8839;stroke-width:4.17px;"/></g><ellipse cx="297.238" cy="799.917" rx="144.491" ry="125.473" style="fill:#fa8839;"/><ellipse cx="168.057" cy="832.012" rx="22.512" ry="33.889" style="fill:#3d683a;"/><path d="M294.202,881.242C276.812,898.769 223.814,913.158 200.674,899.449C164.38,877.947 96.309,690.05 197.339,691.428C303.536,692.877 237.467,722.423 290.376,763.832C347.443,808.495 316.975,858.29 294.202,881.242Z" style="fill:url(#_Linear3);"/><clipPath id="_clip4"><path d="M294.202,881.242C276.812,898.769 223.814,913.158 200.674,899.449C164.38,877.947 96.309,690.05 197.339,691.428C303.536,692.877 237.467,722.423 290.376,763.832C347.443,808.495 316.975,858.29 294.202,881.242Z"/></clipPath><g clip-path="url(#_clip4)"><path d="M293.598,840.658C293.289,871.445 333.041,848.326 331.385,840.952C330.259,835.94 293.836,816.921 293.598,840.658Z" style="fill:none;stroke:#fa8839;stroke-width:4.17px;"/><path d="M318.809,815.638C326.997,815.455 327.474,800.175 318.622,798.797C310.376,797.514 311.266,815.807 318.809,815.638Z" style="fill:none;stroke:#fa8839;stroke-width:4.17px;"/><path d="M271.873,822.03C294.227,809.924 295.797,814.99 297.332,813.909C298.931,812.783 305.498,795.795 286.872,795.645C272.681,795.53 271.535,818.238 271.873,822.03Z" style="fill:none;stroke:#fa8839;stroke-width:4.17px;"/><path d="M323.32,783.713C328.749,777.889 306.076,758.675 296.101,772.783C288.449,783.606 307.717,800.45 323.32,783.713Z" style="fill:none;stroke:#fa8839;stroke-width:4.17px;"/><path d="M290.968,886.575C296.735,899.785 317.959,871.028 312.635,868.622C312.32,868.479 295.049,866.099 291.552,870.021C288.704,873.215 290.338,885.133 290.968,886.575Z" style="fill:none;stroke:#fa8839;stroke-width:4.17px;"/><path d="M144.761,792.868C148.582,787.394 152.403,781.92 156.224,776.445C166.268,788.767 161.848,791.463 149.21,800.984C147.727,798.279 146.244,795.574 144.761,792.868Z" style="fill:none;stroke:#fa8839;stroke-width:4.17px;"/><path d="M286.042,859.486C281.198,838.243 280.77,829.086 260.721,837.179C249.936,841.532 257.919,872.443 259.029,881.307C260.242,882.101 270.923,889.092 276.879,884.409C278.549,883.096 266.554,878.54 286.042,859.486Z" style="fill:none;stroke:#fa8839;stroke-width:4.17px;"/><path d="M177.472,837.374C158.855,847.971 154.399,838.49 156.396,817.027C157.884,801.05 165.834,805.528 167.407,806.969C173.437,812.497 176.836,834.797 177.472,837.374Z" style="fill:none;stroke:#fa8839;stroke-width:4.17px;"/></g><path d="M461.297,940.486C472.99,916.789 369.765,917.618 300.04,918.047C240.618,918.412 221.808,903.731 178.331,880.793C166.746,874.681 168.415,909.277 204.244,924.694C215.039,929.338 226.996,946.85 249.167,954.169C277.507,963.525 307.158,972.869 353.088,976.021C414.051,980.205 443.862,975.818 461.297,940.486Z" style="fill:url(#_Linear5);"/><path d="M342.172,899.849C254.761,924.79 240.357,865.933 213.052,852.706C190.67,841.863 189.084,876.417 208.05,908.352C223.887,935.02 282.387,948.558 349.471,936.174C389.957,928.7 385.925,955.537 440.473,969.385C491.337,982.299 492.35,856.999 342.172,899.849Z" style="fill:#357c16;"/><clipPath id="_clip6"><path d="M342.172,899.849C254.761,924.79 240.357,865.933 213.052,852.706C190.67,841.863 189.084,876.417 208.05,908.352C223.887,935.02 282.387,948.558 349.471,936.174C389.957,928.7 385.925,955.537 440.473,969.385C491.337,982.299 492.35,856.999 342.172,899.849Z"/></clipPath><g clip-path="url(#_clip6)"><path d="M380.599,913.497L379.542,929.094" style="fill:none;stroke:#3d683a;stroke-width:4.17px;"/><path d="M375.568,908.164C376.661,908.837 373.543,909.161 375.216,924.214" style="fill:none;stroke:#3d683a;stroke-width:4.17px;"/><path d="M385.58,921.597L384.322,934.729" style="fill:none;stroke:#3d683a;stroke-width:4.17px;"/></g><ellipse cx="488.682" cy="921.246" rx="86.634" ry="59.445" style="fill:#3d683a;"/><path d="M151.409,809.021C151.409,809.021 147.253,842.783 158.04,852.581C169.193,862.711 170.616,842.233 183.351,846.56C199.142,851.926 181.275,886.819 222.448,909.09C232.316,914.428 199.407,920.465 181.28,903.89C124.15,851.654 151.409,809.021 151.409,809.021Z" style="fill:#357c16;"/><path d="M984.462,457.272C999.321,474.766 998.674,568.136 967.971,621.314C924.271,697.005 740.919,736.008 785.113,625.551C834.987,500.898 819.234,582.599 881.901,566.571C971.704,543.603 968.25,438.185 984.462,457.272Z" style="fill:url(#_Linear7);"/><clipPath id="_clip8"><path d="M984.462,457.272C999.321,474.766 998.674,568.136 967.971,621.314C924.271,697.005 740.919,736.008 785.113,625.551C834.987,500.898 819.234,582.599 881.901,566.571C971.704,543.603 968.25,438.185 984.462,457.272Z"/></clipPath><g clip-path="url(#_clip8)"><path d="M911.828,639.687C951.564,647.738 924.259,680.637 913.981,682.939C911.319,683.536 875.659,670.865 911.828,639.687Z" style="fill:none;stroke:#fa8839;stroke-width:4.17px;"/><path d="M948.941,622.097C937.062,619.42 937.155,621.391 926.425,626.818C942.617,646.425 934.44,662.653 946.675,657.094C968.041,647.387 950.19,624.72 948.941,622.097Z" style="fill:none;stroke:#fa8839;stroke-width:4.17px;"/><path d="M956.2,607.215C968.873,594.99 958.963,593.505 958.008,593.984C948.365,598.819 944.966,600.501 949.016,606.753C952.348,611.897 954.331,609.018 956.2,607.215Z" style="fill:none;stroke:#fa8839;stroke-width:4.17px;"/><path d="M999.964,552.834C997.915,553.587 976.043,556.763 972.312,578.99C970.897,587.417 985.863,596.231 995.679,589.577C1005.77,582.739 1000.53,555.739 999.964,552.834Z" style="fill:none;stroke:#fa8839;stroke-width:4.17px;"/></g><path d="M245.562,1115.77C376.845,1131.5 392.36,1067.89 451.496,1051.35C541.862,1026.07 564.463,1025.84 561.415,992.89C551.777,888.703 494.204,881.697 422.901,882.973C303.448,885.11 550.538,946.494 317.836,1010.61C259.406,1026.71 207.811,1111.24 245.562,1115.77Z" style="fill:url(#_Linear9);"/><clipPath id="_clip10"><path d="M245.562,1115.77C376.845,1131.5 392.36,1067.89 451.496,1051.35C541.862,1026.07 564.463,1025.84 561.415,992.89C551.777,888.703 494.204,881.697 422.901,882.973C303.448,885.11 550.538,946.494 317.836,1010.61C259.406,1026.71 207.811,1111.24 245.562,1115.77Z"/></clipPath><g clip-path="url(#_clip10)"><path d="M397.367,868.217C441.409,859.68 476.672,887.585 486.197,936.727C495.723,985.869 453.359,946.993 409.318,955.53C365.276,964.067 344.354,1021.87 334.829,972.724C325.303,923.582 353.326,876.754 397.367,868.217Z" style="fill:#fa8839;"/><g><path d="M266.24,1087.06C262.291,1114.32 238.671,1122.99 239.147,1116.81C240.929,1093.66 269.08,1067.45 266.24,1087.06Z" style="fill:none;stroke:#fa8839;stroke-width:4.17px;"/><path d="M281.501,1093.15C311.186,1088.73 265.726,1134.4 263.538,1130.36C261.611,1126.81 265.746,1095.5 281.501,1093.15Z" style="fill:none;stroke:#fa8839;stroke-width:4.17px;"/><path d="M299.617,1126.82C296.307,1113.9 309.273,1082.67 327.057,1086.36C329.484,1086.87 344.525,1091.61 317.908,1115.97" style="fill:none;stroke:#fa8839;stroke-width:4.17px;"/><path d="M366.583,1087.74C358.187,1083.41 342.719,1083.37 343.051,1090.26C343.147,1092.25 341.589,1106.26 366.583,1087.74Z" style="fill:none;stroke:#fa8839;stroke-width:4.17px;"/><path d="M373.877,1079.2C378.813,1081.22 389.394,1072.04 390.507,1071.08C388.934,1070.53 373.377,1065.17 370.068,1074.4L373.877,1079.2Z" style="fill:none;stroke:#fa8839;stroke-width:4.17px;"/><path d="M407.544,1055.91C406.614,1054.66 394.263,1064.27 401.59,1063.45C406.746,1062.88 406.746,1063.21 411.121,1060.62L407.544,1055.91Z" style="fill:none;stroke:#fa8839;stroke-width:4.17px;"/><path d="M447.71,1041.44C442.811,1046.38 435.277,1052.24 420.555,1053.92C424.814,1049.37 432.881,1039.29 447.71,1041.44Z" style="fill:none;stroke:#fa8839;stroke-width:4.17px;"/></g></g><path d="M971.682,944.222C1070.4,928.621 1067.02,867.965 994.322,875.978C971.989,878.44 933.901,877.626 907.189,864.116C1057.94,798.624 929.591,690.804 845.05,711.428C728.982,739.743 821.719,744.908 757.551,875.978C730.902,930.412 766.812,976.599 971.682,944.222Z" style="fill:url(#_Linear11);"/><clipPath id="_clip12"><path d="M971.682,944.222C1070.4,928.621 1067.02,867.965 994.322,875.978C971.989,878.44 933.901,877.626 907.189,864.116C1057.94,798.624 929.591,690.804 845.05,711.428C728.982,739.743 821.719,744.908 757.551,875.978C730.902,930.412 766.812,976.599 971.682,944.222Z"/></clipPath><g clip-path="url(#_clip12)"><ellipse cx="682.355" cy="694.626" rx="230.192" ry="145.07" style="fill:#fa8839;"/><path d="M1000.39,912.88C1017.29,909.192 1050.12,916.871 1038.55,925.031C1024.72,934.786 992.461,914.612 1000.39,912.88Z" style="fill:none;stroke:#fa8839;stroke-width:4.17px;"/><path d="M1001.22,935.676C1031.26,943.786 992.762,953.266 986.358,948.766C966.753,934.99 989.649,932.551 1001.22,935.676Z" style="fill:none;stroke:#fa8839;stroke-width:4.17px;"/><path d="M1050.65,903.455C1016.1,906.946 1000.02,893.929 1017.57,889.21C1036.26,884.186 1075.8,890.872 1066.8,899.231L1050.65,903.455Z" style="fill:none;stroke:#fa8839;stroke-width:4.17px;"/><path d="M856.873,839.6C862.686,820.085 900.016,822.547 899.393,840.092C898.327,870.123 882.749,854.507 856.873,839.6Z" style="fill:none;stroke:#fa8839;stroke-width:4.17px;"/><path d="M947.98,843.226C940.993,876.572 908.296,867.642 909.437,851.594C911.271,825.788 923.291,835.276 947.98,843.226Z" style="fill:none;stroke:#fa8839;stroke-width:4.17px;"/><path d="M964.438,834.691C998.239,789.187 940.738,800.6 930.425,807.593C927.546,809.546 912.483,829.125 964.438,834.691Z" style="fill:none;stroke:#fa8839;stroke-width:4.17px;"/><path d="M960.867,780.24C957.881,790.92 970.37,798.911 978.878,781.794C979.436,780.672 979.219,765.816 978.317,766.139C967.149,770.141 967.485,770.56 960.867,780.24Z" style="fill:none;stroke:#fa8839;stroke-width:4.17px;"/><path d="M916.244,817.677C914.371,824.462 916.497,825.453 910.867,829.852C908.636,831.595 894.757,818.654 893.51,817.491C900.765,807.1 908.441,810.335 916.244,817.677Z" style="fill:none;stroke:#fa8839;stroke-width:4.17px;"/></g><path d="M211.29,742.03C249.326,721.455 308.866,686.212 332.462,790.767C347.352,856.743 368.302,962.626 549.964,949.673C703.547,938.722 796.253,863.927 871.556,762.821C930.934,683.098 924.131,512.784 658.269,501.531C275.124,485.314 141.247,779.921 211.29,742.03Z" style="fill:url(#_Linear13);"/><clipPath id="_clip14"><path d="M211.29,742.03C249.326,721.455 308.866,686.212 332.462,790.767C347.352,856.743 368.302,962.626 549.964,949.673C703.547,938.722 796.253,863.927 871.556,762.821C930.934,683.098 924.131,512.784 658.269,501.531C275.124,485.314 141.247,779.921 211.29,742.03Z"/></clipPath><g clip-path="url(#_clip14)"><g><path d="M480.989,873.455C475.361,888.281 477.01,887.85 475.971,903.926" style="fill:none;stroke:#357c16;stroke-width:4.17px;"/><path d="M491.296,879.191C487.779,892.973 488.746,892.304 487.352,907.242" style="fill:none;stroke:#357c16;stroke-width:4.17px;"/><path d="M516.144,871.525C515.675,868.398 485.584,902.197 483.081,905.009" style="fill:none;stroke:#357c16;stroke-width:4.17px;"/><path d="M520.004,878.864C501.513,893.161 496.48,901.199 483.616,915.406" style="fill:none;stroke:#357c16;stroke-width:4.17px;"/><path d="M365.012,871.858C375.189,854.496 380.453,860.164 381.519,861.313" style="fill:none;stroke:#357c16;stroke-width:4.17px;"/><path d="M665.437,889.372C650.498,907.125 652.596,908.88 633.063,921.599" style="fill:none;stroke:#357c16;stroke-width:4.17px;"/><path d="M666.571,897.602C660.707,904.106 654.843,910.611 648.979,917.115" style="fill:none;stroke:#357c16;stroke-width:4.17px;"/><path d="M673.617,901.839L662.185,913.518" style="fill:none;stroke:#357c16;stroke-width:4.17px;"/><path d="M779.956,793.037C779.5,793.877 781.594,789.585 781.138,790.426C766.466,817.497 766.66,816.995 750.932,843.545" style="fill:none;stroke:#357c16;stroke-width:4.17px;"/><path d="M788.037,798.753C786.267,800.909 782.617,805.356 769.164,828.073" style="fill:none;stroke:#357c16;stroke-width:4.17px;"/><path d="M812.978,776.168C813.15,778.739 815.014,806.64 815.179,808.305C815.291,809.434 815.483,807.561 815.556,806.733" style="fill:none;stroke:#3d683a;stroke-width:4.17px;"/><path d="M805.745,779.501C825.556,757.427 828.012,755.56 830.273,753.842" style="fill:none;stroke:#3d683a;stroke-width:4.17px;"/><path d="M828.323,772.583C838.386,776.4 820.904,790.607 831.468,788.495" style="fill:none;stroke:#3d683a;stroke-width:4.17px;"/><path d="M827.443,769.313C826.793,769.962 832.938,775.208 833.291,775.162C839.667,774.326 847.351,741.303 848.072,738.201C850.067,770.442 848.414,771.737 851.089,772.332C851.798,772.489 851.664,772.129 853.353,769.313" style="fill:none;stroke:#3d683a;stroke-width:4.17px;"/><path d="M362.304,816.858L360.983,839.121" style="fill:none;stroke:#3d683a;stroke-width:4.17px;"/><path d="M369.222,822.204L366.644,846.102" style="fill:none;stroke:#3d683a;stroke-width:4.17px;"/><path d="M375.826,828.619L372.052,855.724" style="fill:none;stroke:#3d683a;stroke-width:4.17px;"/><path d="M581.289,900.943C581.821,901.382 584.003,899.948 591.414,921.508" style="fill:none;stroke:#3d683a;stroke-width:4.17px;"/><path d="M594.433,900.754L601.225,915.973" style="fill:none;stroke:#3d683a;stroke-width:4.17px;"/><path d="M607.955,905.848L612.986,917.546" style="fill:none;stroke:#3d683a;stroke-width:4.17px;"/><path d="M794.425,817.173C792.125,829.072 783.477,840.346 792.853,832.706" style="fill:none;stroke:#3d683a;stroke-width:4.17px;"/><path d="M800.588,818.43L798.261,833.524" style="fill:none;stroke:#3d683a;stroke-width:4.17px;"/><path d="M868.321,652.148L859.076,671.456" style="fill:none;stroke:#3d683a;stroke-width:4.17px;"/><path d="M870.837,662.903L861.655,677.745" style="fill:none;stroke:#3d683a;stroke-width:4.17px;"/></g></g><path d="M280.32,642.314C309.447,628.957 399.02,651.112 416.755,764.253C425.024,817.001 442.174,876.366 583.156,869.862C703.306,864.319 823.972,755.636 849.987,663.551C871.584,587.106 798.128,473.714 600.296,439.045C325.392,390.869 172.562,691.729 280.32,642.314Z" style="fill:#d12026;"/><clipPath id="_clip15"><path d="M280.32,642.314C309.447,628.957 399.02,651.112 416.755,764.253C425.024,817.001 442.174,876.366 583.156,869.862C703.306,864.319 823.972,755.636 849.987,663.551C871.584,587.106 798.128,473.714 600.296,439.045C325.392,390.869 172.562,691.729 280.32,642.314Z"/></clipPath><g clip-path="url(#_clip15)"><path d="M275.344,621.169C304.471,607.265 417.667,630.327 435.401,748.099C443.67,803.007 449.009,864.801 589.991,858.031C710.142,852.261 830.807,750.94 856.822,655.086C878.419,575.512 804.963,457.479 607.131,421.39C332.227,371.242 167.586,672.607 275.344,621.169Z" style="fill:url(#_Linear16);"/><path d="M475.991,776.497C473.224,785.134 470.457,793.771 467.69,802.408" style="fill:none;stroke:#f68c1e;stroke-width:4.17px;"/><path d="M478.859,788.773L474.18,804.269" style="fill:none;stroke:#f68c1e;stroke-width:4.17px;"/><path d="M480.067,799.892L476.293,813.376" style="fill:none;stroke:#f68c1e;stroke-width:4.17px;"/><path d="M483.236,807.036C482.599,811.766 481.962,816.495 481.324,821.224" style="fill:none;stroke:#f68c1e;stroke-width:4.17px;"/><path d="M628.991,796.722C624.108,813.56 623.462,812.898 616.564,829.224" style="fill:none;stroke:#f68c1e;stroke-width:4.17px;"/><path d="M631.608,807.036L622.652,826.205" style="fill:none;stroke:#f68c1e;stroke-width:4.17px;"/><path d="M633.821,816.445L629.545,826.91" style="fill:none;stroke:#f68c1e;stroke-width:4.17px;"/><path d="M637.846,821.526C637.561,822.684 637.276,823.841 636.991,824.998" style="fill:none;stroke:#f68c1e;stroke-width:4.17px;"/><path d="M780.281,746.159C779.208,749.194 778.134,752.23 777.061,755.265" style="fill:none;stroke:#f68c1e;stroke-width:4.17px;"/><path d="M785.916,742.134L783.4,749.379" style="fill:none;stroke:#f68c1e;stroke-width:4.17px;"/><path d="M821.94,655.596C827.202,660.133 823.096,661.196 816.053,686.438" style="fill:none;stroke:#f68c1e;stroke-width:4.17px;"/><path d="M828.38,666.665L820.933,683.62" style="fill:none;stroke:#f68c1e;stroke-width:4.17px;"/><path d="M831.348,674.765C829.436,678.707 827.524,682.648 825.612,686.589" style="fill:none;stroke:#f68c1e;stroke-width:4.17px;"/><path d="M787.93,565.074L781.044,596.351C780.202,600.179 776.41,602.602 772.582,601.76L673.033,579.845C669.205,579.002 666.781,575.21 667.624,571.382L674.509,540.106C675.351,536.278 679.143,533.854 682.971,534.697L782.521,556.612C786.349,557.454 788.772,561.246 787.93,565.074Z" style="fill:#357c16;"/><path d="M601.829,667.679L608.274,686.936L510.576,719.632L504.131,700.374L601.829,667.679Z" style="fill:#d12026;"/><path d="M698.051,557.061L736.34,561.338L719.843,574.169L682.776,569.484L698.051,557.061Z" style="fill:#3d683a;"/><path d="M762.261,557.066C771.783,559.162 777.812,568.594 775.715,578.117C773.619,587.639 764.187,593.668 754.664,591.571C745.142,589.475 739.113,580.043 741.21,570.521C743.306,560.998 752.738,554.97 762.261,557.066Z" style="fill:#b39100;"/><path d="M675.342,647.155L673.68,644.322C677.571,642.04 678.877,637.027 676.595,633.135L678.86,631.807C680.478,634.499 683.972,635.394 686.689,633.801C689.405,632.207 690.329,628.721 688.769,625.994L693.076,623.467C694.695,626.16 698.189,627.055 700.906,625.461C703.622,623.867 704.546,620.381 702.986,617.654L707.293,615.128C708.912,617.82 712.406,618.715 715.122,617.121C717.839,615.528 718.763,612.041 717.202,609.315L721.215,606.961C722.834,609.653 726.327,610.548 729.044,608.955C731.761,607.361 732.684,603.875 731.124,601.148L733.003,600.046C735.286,603.937 740.299,605.244 744.19,602.961L745.848,605.787C743.593,607.527 742.928,610.718 744.407,613.239C745.886,615.76 748.996,616.737 751.615,615.618L753.65,619.088C751.395,620.828 750.73,624.018 752.209,626.54C753.688,629.061 756.798,630.038 759.417,628.918L761.452,632.388C759.197,634.128 758.532,637.319 760.011,639.84C761.49,642.361 764.6,643.338 767.219,642.218L769.367,645.88C767.111,647.62 766.447,650.81 767.926,653.332C769.404,655.853 772.514,656.83 775.133,655.71L777.234,659.292C774.979,661.032 774.314,664.223 775.793,666.744C777.272,669.265 780.382,670.242 783.001,669.123L784.982,672.499C781.09,674.782 779.784,679.794 782.067,683.686L780.127,684.824C780.018,684.546 779.886,684.273 779.73,684.007C778.125,681.272 774.603,680.354 771.868,681.958C769.133,683.563 768.215,687.085 769.82,689.82C769.976,690.086 770.15,690.335 770.339,690.565L766.205,692.991C766.096,692.712 765.964,692.439 765.808,692.173C764.204,689.439 760.681,688.521 757.946,690.125C755.211,691.729 754.294,695.252 755.898,697.987C756.054,698.253 756.228,698.501 756.417,698.732L751.988,701.33C751.879,701.052 751.747,700.779 751.591,700.513C749.987,697.778 746.464,696.86 743.73,698.465C740.995,700.069 740.077,703.591 741.681,706.326C741.837,706.592 742.011,706.841 742.201,707.071L737.771,709.67C737.663,709.392 737.53,709.118 737.375,708.853C735.77,706.118 732.248,705.2 729.513,706.804C726.778,708.408 725.86,711.931 727.464,714.666C727.62,714.932 727.794,715.18 727.984,715.411L725.658,716.775C723.375,712.884 718.363,711.578 714.471,713.86L712.487,710.478C712.726,710.378 712.962,710.261 713.193,710.126C715.927,708.522 716.845,704.999 715.241,702.264C713.637,699.529 710.114,698.612 707.379,700.216C707.149,700.351 706.932,700.499 706.728,700.66L704.619,697.065C704.859,696.966 705.095,696.848 705.325,696.713C708.06,695.109 708.977,691.586 707.373,688.852C705.769,686.117 702.246,685.199 699.512,686.803C699.281,686.938 699.064,687.087 698.86,687.248L696.705,683.574C696.944,683.474 697.18,683.357 697.411,683.222C700.145,681.617 701.063,678.095 699.459,675.36C697.855,672.625 694.332,671.707 691.597,673.312C691.367,673.447 691.15,673.595 690.946,673.756L688.903,670.273C689.142,670.174 689.378,670.056 689.609,669.921C692.343,668.317 693.261,664.794 691.657,662.06C690.053,659.325 686.53,658.407 683.795,660.011C683.565,660.146 683.348,660.295 683.144,660.456L681.101,656.973C681.34,656.873 681.576,656.756 681.807,656.621C684.541,655.017 685.459,651.494 683.855,648.759C682.251,646.025 678.728,645.107 675.993,646.711C675.763,646.846 675.546,646.995 675.342,647.155Z" style="fill:url(#_Linear17);"/><path d="M735.591,658.242L744.662,671.899L740.046,674.965L730.975,661.308L735.591,658.242Z" style="fill:#92522b;"/><path d="M716.221,675.062L707.007,632.194L748.734,655.791L716.221,675.062Z" style="fill:#fcfbf8;"/><path d="M715.86,680.906L761.459,654.413L760.191,669.508L725.57,688.543L715.86,680.906Z" style="fill:#357c16;"/><path d="M552.778,631.394C586.616,631.394 614.088,658.866 614.088,692.704C614.088,726.542 586.616,754.014 552.778,754.014C518.94,754.014 491.468,726.542 491.468,692.704C491.468,658.866 518.94,631.394 552.778,631.394ZM552.778,649.322C528.835,649.322 509.396,668.761 509.396,692.704C509.396,716.647 528.835,736.086 552.778,736.086C576.721,736.086 596.16,716.647 596.16,692.704C596.16,668.761 576.721,649.322 552.778,649.322Z" style="fill:#d12026;"/><g><path d="M521.003,702.823C518.75,704.611 520.256,711.105 523.425,708.697" style="fill:none;stroke:#f68c1e;stroke-opacity:0.8;stroke-width:4.17px;"/><path d="M528.216,704.086L531.513,704.343" style="fill:none;stroke:#f68c1e;stroke-opacity:0.8;stroke-width:4.17px;"/><path d="M535.017,700.196C537.892,701.314 537.762,701.238 537.902,701.355" style="fill:none;stroke:#f68c1e;stroke-opacity:0.8;stroke-width:4.17px;"/><path d="M545.475,695.327L548.051,697.981" style="fill:none;stroke:#f68c1e;stroke-opacity:0.8;stroke-width:4.17px;"/><path d="M551.915,691.798C552.242,693.421 552.568,695.044 552.894,696.667" style="fill:none;stroke:#f68c1e;stroke-opacity:0.8;stroke-width:4.17px;"/><path d="M560.493,690.124L566.032,694.477" style="fill:none;stroke:#f68c1e;stroke-opacity:0.8;stroke-width:4.17px;"/><path d="M526.233,737.857C525.594,736.763 521.735,743.234 524.507,742.391" style="fill:none;stroke:#f68c1e;stroke-opacity:0.8;stroke-width:4.17px;"/><path d="M535.532,738.063L535.12,742.751" style="fill:none;stroke:#f68c1e;stroke-opacity:0.8;stroke-width:4.17px;"/><path d="M539.679,741.257L543.054,744.554" style="fill:none;stroke:#f68c1e;stroke-opacity:0.8;stroke-width:4.17px;"/><path d="M549.545,745.791L553.873,746.976" style="fill:none;stroke:#f68c1e;stroke-opacity:0.8;stroke-width:4.17px;"/><path d="M558.329,743.163C565.785,743.127 565.598,742.8 573.064,741.515" style="fill:none;stroke:#f68c1e;stroke-opacity:0.8;stroke-width:4.17px;"/><path d="M576.284,740.149C577.203,740.227 578.122,740.304 579.04,740.381" style="fill:none;stroke:#f68c1e;stroke-opacity:0.8;stroke-width:4.17px;"/><path d="M582.338,734.946L583.317,734.791" style="fill:none;stroke:#f68c1e;stroke-opacity:0.8;stroke-width:4.17px;"/><path d="M590.246,728.789C590.624,728.102 591.002,727.415 591.379,726.729" style="fill:none;stroke:#f68c1e;stroke-opacity:0.8;stroke-width:4.17px;"/><path d="M593.775,721.216L595.295,721.654" style="fill:none;stroke:#f68c1e;stroke-opacity:0.8;stroke-width:4.17px;"/><path d="M571.364,686.904C572.712,687.797 574.06,688.69 575.408,689.583" style="fill:none;stroke:#f68c1e;stroke-opacity:0.8;stroke-width:4.17px;"/><path d="M580.689,685.667C581.926,685.565 583.058,686.697 584.295,686.595C584.619,686.568 584.591,686.541 588.288,685.873" style="fill:none;stroke:#f68c1e;stroke-opacity:0.8;stroke-width:4.17px;"/><path d="M591.508,682.293C592.556,682.525 593.603,682.757 594.651,682.988" style="fill:none;stroke:#f68c1e;stroke-opacity:0.8;stroke-width:4.17px;"/><path d="M600.498,679.099C599.365,681.849 599.336,681.63 598.773,684.56" style="fill:none;stroke:#f68c1e;stroke-opacity:0.8;stroke-width:4.17px;"/></g></g><g><path d="M796.569,572.599C834.16,575.255 851.096,545.028 851.096,545.028L853.917,546.244C873.192,507.202 843.747,485.002 843.747,485.002C843.747,485.002 818.05,478.136 796.811,492.046C739.939,529.293 768.732,570.631 796.569,572.599Z" style="fill:#bfa179;"/><path d="M841.566,511.497C841.566,511.497 825.678,506.476 813.276,504.538C798.274,502.194 797.544,531.844 797.544,531.844L830.027,545.798C830.027,545.798 838.259,543.2 844.693,532.244C848.255,526.179 849.395,515.672 841.566,511.497Z" style="fill:url(#_Linear18);"/><path d="M843.184,511.831C843.184,511.831 796.666,497.982 787.283,487.912C777.9,477.843 768.061,530.723 768.061,530.723C787.688,546.75 800.93,555.796 813.42,559.044C804.191,554.855 798.333,544.243 801.945,531.023C805.442,518.227 823.438,506.028 843.184,511.831Z" style="fill:url(#_Linear19);"/><path d="M846.278,497.702C846.278,497.702 777.019,486.229 763.351,471.561C749.682,456.893 736.115,524.353 736.115,524.353C764.707,547.699 783.996,560.876 802.191,565.608C788.362,559.331 776.863,542.565 785.208,526.318C796.373,504.583 824.799,492.755 846.278,497.702Z" style="fill:url(#_Linear20);"/><path d="M843.833,485.213C843.833,485.213 741.669,469.581 721.302,450.831C700.934,432.082 695.584,519.171 695.584,519.171C738.067,549.127 766.685,566.087 793.553,572.363C737.717,556.278 770.085,473.328 843.833,485.213Z" style="fill:#e0caae;"/></g><g><path d="M675.468,933.215C675.468,933.215 713.252,871.951 640.606,667.885C621.205,613.385 589.619,584.587 556.849,570.141C496.662,543.61 551.448,532.015 596.175,545.441C628.44,555.126 662.761,583.504 685.313,652.505C749.489,848.866 720.124,914.656 720.124,914.656C705.82,917.933 690.884,924.376 675.468,933.215Z" style="fill:url(#_Linear21);"/><path d="M688.513,775.452C688.513,775.452 675.34,776.559 649.644,687.663C623.76,598.118 579.721,581.292 579.721,581.292L620.759,552.853C620.759,552.853 670.791,577.238 697.357,676.358C715.108,742.587 732.241,769.524 732.241,769.524C722.18,775.827 704.864,778.186 688.513,775.452Z" style="fill:url(#_Linear22);"/><path d="M674.296,687.425L672.616,679.99" style="fill:none;stroke:#65331d;stroke-width:8.33px;"/><path d="M675.201,684.948L673.52,677.513" style="fill:none;stroke:#b3922f;stroke-width:8.33px;"/><path d="M707.928,699.674L702.553,682.875C703.799,687.501 696.928,673.092 673.043,677.649C646.913,682.633 646.53,701.134 645.283,696.507L651.023,714.745" style="fill:none;stroke:#b39100;stroke-width:8.33px;"/><path d="M661.037,741.038C661.037,741.038 667.6,734.077 690.083,731.224C712.566,728.37 714.928,733.049 714.928,733.049L710.603,718.477C710.603,718.477 705.091,715.003 686.78,717.581C668.468,720.159 657.744,727.057 657.744,727.057L661.037,741.038Z" style="fill:url(#_Linear23);"/><path d="M668.113,657.145C669.634,656.942 671.033,658.013 671.236,659.534C671.438,661.055 670.368,662.455 668.847,662.658C667.325,662.86 665.926,661.789 665.723,660.268C665.521,658.747 666.591,657.347 668.113,657.145Z" style="fill:#65331d;"/><path d="M655.571,631.211C657.092,631.008 658.491,632.079 658.694,633.6C658.896,635.122 657.826,636.521 656.305,636.724C654.783,636.926 653.384,635.856 653.181,634.334C652.979,632.813 654.049,631.413 655.571,631.211Z" style="fill:#65331d;"/><path d="M644.071,609.739C645.593,609.536 646.992,610.607 647.195,612.128C647.397,613.65 646.327,615.049 644.805,615.252C643.284,615.454 641.885,614.384 641.682,612.862C641.479,611.341 642.55,609.941 644.071,609.739Z" style="fill:#65331d;"/><path d="M681.943,709.613C683.465,709.411 684.864,710.481 685.067,712.002C685.269,713.524 684.199,714.923 682.677,715.126C681.156,715.328 679.756,714.258 679.554,712.736C679.351,711.215 680.422,709.816 681.943,709.613Z" style="fill:#65331d;"/></g><path d="M362.635,778.595C362.635,778.595 352.863,761.161 351.438,751.013C350.014,740.865 369.739,740.533 372.181,754.404C372.181,754.404 404.796,747.685 393.285,762.177C381.774,776.67 362.635,778.595 362.635,778.595Z" style="fill:#f68c1e;"/><clipPath id="_clip24"><path d="M362.635,778.595C362.635,778.595 352.863,761.161 351.438,751.013C350.014,740.865 369.739,740.533 372.181,754.404C372.181,754.404 404.796,747.685 393.285,762.177C381.774,776.67 362.635,778.595 362.635,778.595Z"/></clipPath><g clip-path="url(#_clip24)"><path d="M365.955,782.781C365.955,782.781 356.182,765.346 354.758,755.198C353.333,745.05 373.059,744.719 375.5,758.59C375.5,758.59 408.115,751.87 396.604,766.363C385.094,780.855 365.955,782.781 365.955,782.781Z" style="fill:#d12026;fill-opacity:0.5;"/></g><path d="M540.035,402.715C619.449,404.671 711.866,455.16 719.12,500.779C725.278,539.501 616.126,571.902 519.225,561.652C466.267,556.05 451.669,442.935 407.374,456.036C369.577,467.215 416.725,399.678 540.035,402.715Z" style="fill:#92522b;"/><path d="M358.267,489.378C358.267,489.378 371.672,481.091 376.48,480.224C394.674,476.944 429.17,484.721 450.971,515.549C470.989,543.855 452.13,609.26 583.167,594.843C724.809,579.259 758.817,517.948 747.669,486.732C739.442,463.7 721.86,454.155 711.851,451.145C694.287,445.863 679.462,451.169 679.462,451.169C679.462,451.169 734.452,487.704 686.739,517.762C621.961,558.572 559.767,561.733 531.88,556.914C504.692,552.216 494.128,514.169 482.667,490.702C473.611,472.159 461.197,450.275 443.134,443.428C422.627,435.654 394.059,427.004 375.003,439.206C367.918,443.743 353.877,460.162 352.17,469.55C349.208,485.845 358.267,489.378 358.267,489.378Z" style="fill:url(#_Radial25);"/><path d="M648.842,523.505C650.843,524.986 648.376,530.95 646.542,533.429C644.708,535.908 645.448,541.965 641.146,539.729C638.246,538.222 634.708,532.399 636.543,529.92C638.377,527.441 646.841,522.025 648.842,523.505Z" style="fill:#65331d;"/><path d="M683.612,564.679C685.614,566.16 685.749,569.375 683.915,571.854C682.081,574.333 678.967,575.144 676.965,573.663C674.964,572.182 674.829,568.967 676.663,566.488C678.497,564.009 681.611,563.199 683.612,564.679Z" style="fill:#65331d;"/><g><g><path d="M844.468,256.404C848.828,258.922 851.861,261.844 851.236,262.925C850.612,264.007 846.565,262.842 842.205,260.324C837.845,257.807 834.812,254.885 835.436,253.803C836.061,252.722 840.108,253.887 844.468,256.404Z" style="fill:#92522b;"/><path d="M848.629,261.308L809.634,328.85L799.228,322.842L838.235,255.278C842.05,256.682 845.502,258.713 848.629,261.308Z" style="fill:#c7c4cb;"/><path d="M867.367,198.498C876.037,183.48 895.269,178.327 910.287,186.998C925.305,195.668 930.458,214.9 921.788,229.918L911.857,247.118C904.841,247.045 899.759,243.621 895.975,237.949L905.906,220.748L905.902,220.746C909.371,214.376 907.272,206.432 901.118,202.88C894.964,199.327 887.035,201.48 883.253,207.67L883.249,207.667L851.318,262.973C847.331,257.654 842.112,254.467 835.436,253.803L867.367,198.498Z" style="fill:#7f4425;"/></g><path d="M784.815,282.921C782.445,300.974 835.419,327.1 848.438,308.833C841.96,339.274 854.75,349.053 878.712,346.548C879.648,346.45 880.853,345.701 880.696,346.937C778.401,454.657 677.767,567.652 580.616,691.701L578.163,689.782C579.445,687.794 580.727,685.808 582.011,683.825C580.672,685.838 579.333,687.854 577.993,689.872L575.54,687.953L575.607,687.829L572.91,686.386C641.49,545.259 699.479,403.804 751.084,262.151C751.538,260.903 751.755,262.528 752.195,263.447C758.499,276.629 771.122,298.469 784.815,282.921Z" style="fill:#450053;"/><path d="M751.084,262.151C699.479,403.804 644.121,534.741 575.54,675.867L575.646,687.85C655.392,557.077 732.011,410.296 807.127,255.819C767.873,294.724 749.9,296.492 750.938,265.081C750.969,264.134 751.018,263.157 751.084,262.151Z" style="fill:url(#_Linear26);"/><path d="M880.696,346.937C778.401,454.657 686.942,559.433 589.791,683.482L578.163,689.782C669.199,548.585 765.368,419.211 862.591,292.268C844.228,346.736 851.19,363.582 880.696,346.937Z" style="fill:url(#_Linear27);"/><path d="M862.613,292.268C767.941,417.788 673.181,546.405 577.993,689.872L575.54,687.953L807.127,255.819C788.764,310.287 833.106,308.912 862.613,292.268Z" style="fill:url(#_Linear28);"/><path d="M589.738,667.556C594.998,670.82 598.291,675.122 594.69,681.205C591.089,687.289 584.485,697.647 575.299,691.948C566.114,686.249 572.027,675.461 575.628,669.378C579.229,663.294 584.477,664.292 589.738,667.556Z" style="fill:#c7c4cb;"/></g><path d="M681.457,573.86C680.223,574.554 680.517,573.94 680.971,573.373C683.283,570.481 689.486,560.136 679.163,538.162C670.467,519.654 644.692,522.298 638.651,528.465C635.752,531.424 635.76,531.145 636.876,529.35L651.786,510.424C651.786,510.424 679.376,500.415 691.334,525.472C703.291,550.528 698,565.603 698,565.603L681.457,573.86Z" style="fill:url(#_Linear29);"/><g><path d="M545.9,79.882C545.9,79.882 593.082,71.913 593.082,48.008C593.082,48.008 603.987,64.783 591.824,80.301C591.824,80.301 631.667,39.2 687.656,71.494C687.656,71.494 676.962,67.719 661.444,76.946C653.592,81.615 624.579,93.941 634.133,103.421C652.686,121.828 648.443,159.567 648.443,159.567C648.443,159.567 528.915,109.449 545.9,79.882Z" style="fill:#e0caae;"/><path d="M564.529,251.797C588.732,246.27 612.832,289.162 639.919,331.689C660.622,364.193 651.171,380.977 612.791,398.186C581.016,412.433 556.47,402.069 554.577,363.049C551.946,308.806 540.326,257.323 564.529,251.797Z" style="fill:url(#_Linear30);"/><path d="M641.065,360.073C644.441,365.921 633.388,378.633 616.397,388.443C599.406,398.253 582.87,401.469 579.494,395.622C576.118,389.774 587.171,377.062 604.162,367.252C621.153,357.442 637.689,354.226 641.065,360.073Z" style="fill:url(#_Linear31);"/><path d="M526.125,368.578C541.832,342.965 602.643,362.736 663.792,383.815C707.886,399.014 702.776,420.471 691.169,452.147C680.795,480.456 649.021,507.91 613.669,476.517C564.523,432.876 510.417,394.191 526.125,368.578Z" style="fill:url(#_Linear32);"/><path d="M686.987,406.293C696.655,412.388 693.844,434.243 680.715,455.067C667.585,475.89 649.077,487.847 639.409,481.751C629.741,475.655 632.552,453.8 645.681,432.977C658.811,412.154 677.319,400.197 686.987,406.293Z" style="fill:url(#_Linear33);"/><path d="M556.202,242.822C596.392,247.663 596.307,266.999 596.307,298.392C596.307,329.785 563.077,348.457 545.717,348.457C528.357,348.457 497.486,338.435 497.486,307.042C497.486,275.649 512.353,237.54 556.202,242.822Z" style="fill:#92522b;"/><path d="M531.646,225.3C577.541,245.487 619.668,304.787 598.92,387.022C593.485,408.563 570.865,428.729 521.014,426.051C471.169,423.373 408.968,402.424 443.126,321.388C476.426,242.391 485.751,205.112 531.646,225.3Z" style="fill:url(#_Linear34);"/><path d="M547.339,244.365C580.431,260.672 594.698,303.267 597.407,340.345C600.238,379.099 583.942,416.657 554.782,412.408C525.622,408.16 478.842,409.246 484.858,330.846C487.702,293.778 520.906,231.34 547.339,244.365Z" style="fill:url(#_Linear35);"/><path d="M436.295,368.32C458.933,348.565 505.27,372.515 557.337,410.889C594.882,438.56 588.115,468.538 567.58,495.304C549.228,519.225 502.265,527.806 477.897,487.29C444.022,430.967 413.657,388.076 436.295,368.32Z" style="fill:url(#_Linear36);"/><path d="M689.253,130.635C710.587,137.054 708.905,171.985 697.765,191.279C686.626,210.572 668.182,211.689 648.888,200.55C629.595,189.411 622.974,164.703 634.113,145.41C645.253,126.116 668.631,124.43 689.253,130.635Z" style="fill:url(#_Linear37);"/><path d="M676.551,152.574C690.366,157.183 688.641,174.783 682.282,185.796C675.924,196.808 664.232,196.774 651.537,189.444C638.842,182.115 635.975,172.234 642.333,161.221C648.691,150.208 663.197,148.118 676.551,152.574Z" style="fill:#bfa179;"/><path d="M377.066,289.482C359.526,279.355 369.331,267.07 387.836,243.71C407.951,218.317 433.937,195.164 451.477,205.291C469.017,215.418 487.376,201.933 472.475,227.743C457.574,253.552 394.607,299.609 377.066,289.482Z" style="fill:#65331d;"/><path d="M453.923,200.941C491.081,209.913 494.064,213.941 496.122,220.789C497.895,226.69 466.436,241.179 456.866,243.38C446.628,245.734 458.775,234.96 452.313,227.497C428.561,200.064 400.55,243.046 380.337,241.756C371.319,241.181 359.153,235.816 364.768,234.918C402.138,228.939 414.651,191.459 453.923,200.941Z" style="fill:#92522b;"/><path d="M606.305,104.401C646.201,127.435 650.357,174.377 636.857,218.423C619.651,274.556 567.935,272.382 522.835,248.975C480.723,227.118 464.494,181.09 492.283,134.953C516.052,95.49 566.409,81.367 606.305,104.401Z" style="fill:url(#_Linear38);"/><path d="M429.9,226.306C449.655,230.774 443.319,251.709 436.745,280.777C430.172,309.845 417.134,355.944 396.728,341.049C380.369,329.108 347.2,322.992 353.774,293.924C360.347,264.857 410.146,221.839 429.9,226.306Z" style="fill:#92522b;"/><path d="M490.074,223.928C530.264,228.769 530.179,248.105 530.179,279.498C530.179,310.891 496.949,329.563 479.589,329.563C462.229,329.563 431.358,319.541 431.358,288.148C431.358,256.755 446.225,218.646 490.074,223.928Z" style="fill:#92522b;"/><path d="M477.728,106.824C485.641,100.745 494.432,98.891 497.349,102.687C500.265,106.482 496.21,114.5 488.297,120.579C480.385,126.659 471.593,128.513 468.677,124.717C465.76,120.921 469.816,112.904 477.728,106.824Z" style="fill:none;stroke:#907400;stroke-width:5px;"/><path d="M472.322,93.496C478.776,90.727 485.514,91.967 487.358,96.265C489.202,100.562 485.459,106.3 479.004,109.07C472.55,111.84 465.812,110.599 463.968,106.302C462.124,102.004 465.867,96.266 472.322,93.496Z" style="fill:none;stroke:#907400;stroke-width:5px;"/><path d="M536.872,40.792C560.426,60.844 565.381,88.319 556.943,100.774C552.396,107.485 542.135,109.469 533.889,116.298C520.496,127.389 507.461,130.988 493.654,123.017C469.866,109.283 461.703,86.541 475.438,62.753C489.172,38.965 515.956,22.987 536.872,40.792Z" style="fill:url(#_Linear39);"/><path d="M575.31,188.873C570.409,197.283 564.61,201.422 554.957,198.974C542.865,195.908 536.428,182.469 543.329,173.306" style="fill:none;stroke:#450053;stroke-width:5px;"/><path d="M551.529,121.578C553.743,122.855 553.257,127.847 550.445,132.718C547.633,137.588 543.553,140.505 541.34,139.227C539.126,137.949 539.612,132.958 542.424,128.087C545.236,123.217 549.316,120.3 551.529,121.578Z" style="fill:#450053;"/><path d="M624.652,164.022C626.866,165.299 626.38,170.291 623.568,175.162C620.756,180.032 616.676,182.949 614.462,181.671C612.249,180.393 612.735,175.402 615.547,170.531C618.359,165.661 622.439,162.744 624.652,164.022Z" style="fill:#450053;"/><path d="M593.568,202.156C592.146,207.701 586.022,210.858 578.904,209.332C571.786,207.807 568.783,201.538 570.206,195.993" style="fill:none;stroke:#450053;stroke-width:5px;"/><path d="M585.582,172.717C594.047,176.514 605.934,175.286 602.583,181.528C599.232,187.771 583.694,192.585 575.229,188.788C566.764,184.992 560.903,170.813 564.254,164.571C567.605,158.329 577.117,168.921 585.582,172.717Z" style="fill:#450053;"/><path d="M529.183,69.679C543.978,81.683 552.134,95.505 529.417,103.586C515.533,108.525 511.611,121.872 496.9,113.379C482.189,104.885 481.369,92.117 488.737,79.355C496.104,66.594 516.045,59.02 529.183,69.679Z" style="fill:#bfa179;"/><path d="M497.349,102.687C500.265,106.482 496.21,114.5 488.297,120.579C480.385,126.659 471.593,128.513 468.677,124.717" style="fill:none;stroke:#b39100;stroke-width:5px;"/><path d="M487.358,96.265C489.202,100.562 485.459,106.3 479.004,109.07C472.55,111.84 465.812,110.599 463.968,106.302" style="fill:none;stroke:#b39100;stroke-width:5px;"/><path d="M592.16,100.801C599.68,94.736 617.03,81.066 646.212,92.405C672.85,102.756 683.202,135.024 683.202,135.024C683.202,135.024 667.953,109.885 631.885,116.596C636.593,118.461 676.411,130.812 659.565,172.962C649.986,161.841 644.008,134.718 604.649,130.595C607.502,127.479 620.164,123.45 634.871,127.089C623.811,121.572 607.839,119.532 597.495,122.962C599.496,117.447 604.252,113.84 610.907,111.546C605.783,108.514 582.59,111.241 570.443,116.201C572.241,109.646 572.639,106.068 579.536,100.273C566.635,100.105 565.411,99.184 554.926,99.912C562.685,89.052 575.141,84.571 586.255,87.087C581.289,89.743 574.788,87.702 571.433,95.726C579.726,90.952 588.433,90.195 595.339,91.415C589.729,96.378 592.938,95.301 592.16,100.801Z" style="fill:#e0caae;"/><path d="M561.972,430.028C576.528,441.758 575.804,466.843 560.357,486.011C544.91,505.178 520.552,511.216 505.997,499.485C491.441,487.755 492.164,462.67 507.611,443.503C523.058,424.335 547.417,418.297 561.972,430.028Z" style="fill:url(#_Linear40);"/><path d="M493.337,240.024C521.127,251.447 520.409,303.602 509.349,367.33C501.373,413.283 477.2,420.064 434.74,408.189C391.693,396.15 380.144,370.313 405.5,330.407C440.747,274.933 465.547,228.6 493.337,240.024Z" style="fill:url(#_Linear41);"/><path d="M489.442,392.379C487.42,403.241 466.499,408.471 442.753,404.05C419.007,399.63 401.369,387.222 403.391,376.36C405.414,365.497 426.334,360.267 450.08,364.688C473.827,369.108 491.464,381.516 489.442,392.379Z" style="fill:url(#_Linear42);"/></g><path d="M359.934,484.45C359.934,484.45 383.613,480.735 404.891,487.673C420.635,492.807 456.029,514.147 456.029,514.147L460.624,507.161L382.238,464.972L359.934,484.45Z" style="fill:#65331d;"/><path d="M358.747,489.378C358.747,489.378 372.255,481.091 377.074,480.224C395.309,476.944 429.708,484.721 451.126,515.549C470.792,543.855 454.311,515.605 469.577,510.872C485.246,506.015 491.736,515.208 483.143,485.832C477.378,466.122 455.243,406.532 437.265,399.685C416.855,391.911 388.395,383.261 369.186,395.463C362.045,399.999 347.827,458.475 348.688,470.868C349.839,487.428 358.747,489.378 358.747,489.378Z" style="fill:url(#_Radial43);"/><g><path d="M441.754,530.256C441.754,530.256 434.857,505.924 427.041,504.075C427.041,504.075 426.928,493.503 433.244,496.421C433.244,496.421 438.292,491.282 444.042,492.315C449.792,493.348 448.442,498.06 448.442,498.06C448.442,498.06 449.751,494.133 462.225,496.374C474.7,498.614 469.434,504.97 469.434,504.97C469.434,504.97 474.457,502.768 480.446,506.948C486.436,511.127 481.096,516.213 481.096,516.213C481.096,516.213 485.316,515.683 490.708,521.507C490.708,521.507 464.242,525.475 458.871,535.213C453.501,544.951 441.754,530.256 441.754,530.256Z" style="fill:#bfa179;"/><path d="M455.754,520.824C465.551,525.159 471.366,533.511 468.732,539.462C466.098,545.413 456.006,546.724 446.21,542.388C436.413,538.053 430.598,529.701 433.232,523.75C435.866,517.799 445.958,516.488 455.754,520.824Z" style="fill:url(#_Linear44);"/><path d="M445.605,523.756C474.646,528.602 484.032,578.922 479.187,607.963C474.342,637.005 449.185,652.202 420.143,647.357C391.102,642.511 369.103,619.446 373.948,590.405C378.794,561.363 416.563,518.911 445.605,523.756Z" style="fill:url(#_Radial45);"/></g><g><path d="M501.988,559.964C501.988,559.964 494.817,532.922 485.971,530.547C485.971,530.547 486.137,518.924 493.246,522.409C493.246,522.409 499.135,516.985 505.652,518.373C512.168,519.761 510.501,524.88 510.501,524.88C510.501,524.88 512.1,520.622 526.238,523.634C540.375,526.645 534.203,533.397 534.203,533.397C534.203,533.397 539.982,531.199 546.684,536.056C553.385,540.912 547.164,546.266 547.164,546.266C547.164,546.266 551.983,545.869 557.958,552.507C557.958,552.507 527.72,555.701 521.335,566.166C514.949,576.63 501.988,559.964 501.988,559.964Z" style="fill:#bfa179;"/><path d="M515.775,550.017C525.572,554.353 531.387,562.705 528.753,568.656C526.119,574.607 516.028,575.918 506.231,571.582C496.435,567.246 490.62,558.895 493.253,552.944C495.887,546.993 505.979,545.681 515.775,550.017Z" style="fill:url(#_Linear46);"/><path d="M502.254,553.001C531.697,553.001 549.236,601.091 549.236,630.534C549.236,659.976 526.924,679.107 497.481,679.107C468.038,679.107 442.543,659.976 442.543,630.534C442.543,601.091 472.811,553.001 502.254,553.001Z" style="fill:url(#_Radial47);"/></g><g><path d="M292.595,474.926L156.387,458.072L129.766,443.458L131.896,297.598L325.911,331.55L337.419,352.781L292.595,474.926Z" style="fill:#bfa179;"/><path d="M184.982,239.251C192.515,236.22 199.929,235.026 206.541,237.191C213.185,239.367 219.168,244.912 223.56,255.83C226.929,264.203 226.665,275.469 225.026,285.978C222.635,301.317 217.431,314.991 217.431,314.991C217.183,315.642 216.674,316.161 216.028,316.421C215.381,316.681 214.655,316.66 214.024,316.361C214.024,316.361 200.198,313.798 187.85,304.389C179.39,297.942 169.36,290.225 165.992,281.851C161.599,270.933 164.717,258.865 168.004,252.694C171.274,246.554 177.449,242.281 184.982,239.251ZM181.339,243.965C174.994,246.517 173.209,249.194 170.455,254.366C167.716,259.508 169.611,266.963 173.272,276.061C176.345,283.7 183.766,290.833 191.484,296.714C200.216,303.368 209.399,308.392 213.687,310.603C215.249,306.039 218.017,300.96 219.708,290.113C221.203,280.526 220.863,268.806 217.79,261.167C214.129,252.069 209.238,246.774 203.702,244.962C198.133,243.138 187.684,241.412 181.339,243.965Z" style="fill:#d12026;"/><path d="M285.368,272.422C289.478,279.425 292.131,289.905 290.966,296.764C289.796,303.657 285.497,310.645 275.347,316.602C267.563,321.17 254.419,321.109 243.783,321.04C228.259,320.94 215.25,315.699 215.25,315.699C214.569,315.55 213.981,315.124 213.628,314.522C213.275,313.921 213.19,313.2 213.392,312.532C213.392,312.532 217.631,298.53 225.114,284.928C230.241,275.609 236.918,266.531 244.702,261.963C254.852,256.007 262.977,255.275 269.565,257.615C276.121,259.943 281.259,265.419 285.368,272.422ZM284.377,276.344C280.915,270.446 276.206,266.853 270.684,264.892C265.194,262.943 257.2,264.406 248.742,269.369C241.64,273.537 230.876,281.478 226.198,289.979C220.907,299.597 219.006,305.045 219.037,311.348C223.782,312.219 234.121,313.856 245.099,313.927C254.802,313.99 265.035,312.881 272.137,308.713C280.595,303.75 284.684,298.346 285.659,292.603C286.64,286.826 287.838,282.243 284.377,276.344Z" style="fill:#d12026;"/><path d="M279.945,461.861L130.424,442.967L131.062,296.764L325.911,331.233L279.945,461.861Z" style="fill:#e0caae;"/><path d="M311.569,344.469L253.715,334.306L246.679,359.584L297.757,375.221L311.569,344.469Z" style="fill:#fcfbf8;"/><path d="M130.424,375.935C129.061,375.715 129.061,365.269 130.424,365.49L304.517,389.846C305.353,389.982 306.064,390.531 306.406,391.307L316.332,414.5C316.888,415.763 312.459,423.978 311.903,422.715L302.872,396.334L130.424,375.935Z" style="fill:#d12026;"/><path d="M213.284,311.237C213.34,309.858 222.953,311.545 222.898,312.923L213.401,449.865C213.346,451.244 206.992,449.911 207.047,448.532L213.284,311.237Z" style="fill:#d12026;"/><path d="M283.572,366.54L291.581,346.429L297.187,347.942L288.555,367.874L283.572,366.54Z" style="fill:#c7c4cb;"/><path d="M252.929,356.97L256.656,338.645L261.495,338.145L256.577,358.479L252.929,356.97Z" style="fill:#c7c4cb;"/><path d="M258.992,360.585L263.58,340.731L268.085,340.647L262.079,361.169L258.992,360.585Z" style="fill:#c7c4cb;"/><path d="M267.345,361.528L270.827,341.237L276.883,342.905L271.326,362.404L267.345,361.528Z" style="fill:#c7c4cb;"/><path d="M273.608,362.953L279.261,343.412L281.331,345.564L275.015,364.151L273.608,362.953Z" style="fill:#c7c4cb;"/><path d="M278.176,363.959L283.782,345.54L287.252,345.807L280.579,364.582L278.176,363.959Z" style="fill:#c7c4cb;"/></g><path d="M198.859,445.52C286.26,445.52 357.218,511.689 357.218,573.094C357.218,660.494 290.921,762.821 203.521,762.821C116.12,762.821 40.5,660.494 40.5,573.094C40.5,511.689 111.458,445.52 198.859,445.52Z" style="fill:url(#_Linear48);"/><g><path d="M74.67,495.865C99.254,470.591 130.758,461.942 144.979,476.563C159.201,491.183 150.788,523.573 126.204,548.847C101.621,574.121 70.116,582.77 55.895,568.149C41.674,553.529 50.086,521.139 74.67,495.865Z" style="fill:#f68c1e;"/><path d="M321.064,497.083C296.243,471.565 264.656,462.604 250.571,477.084C236.486,491.565 245.202,524.039 270.023,549.557C294.844,575.075 326.431,584.036 340.516,569.555C354.601,555.075 345.885,522.601 321.064,497.083Z" style="fill:#f68c1e;"/><path d="M75.892,493.159C100.117,468.933 131.053,460.534 144.933,474.414C158.813,488.294 150.414,519.23 126.189,543.456C101.964,567.681 71.027,576.08 57.147,562.2C43.267,548.32 51.667,517.384 75.892,493.159Z" style="fill:#fcfbf8;"/><path d="M318.658,493.159C294.433,468.933 263.497,460.534 249.617,474.414C235.737,488.294 244.136,519.23 268.361,543.456C292.586,567.681 323.523,576.08 337.403,562.2C351.282,548.32 342.883,517.384 318.658,493.159Z" style="fill:#fcfbf8;"/><path d="M87.782,505.048C100.553,492.276 116.864,487.848 124.181,495.166C131.499,502.484 127.071,518.794 114.299,531.566C101.527,544.338 85.217,548.766 77.899,541.448C70.581,534.131 75.01,517.82 87.782,505.048Z" style="fill:#450053;"/><path d="M306.768,505.048C293.996,492.276 277.686,487.848 270.368,495.166C263.051,502.484 267.479,518.794 280.251,531.566C293.023,544.338 309.333,548.766 316.651,541.448C323.968,534.131 319.54,517.82 306.768,505.048Z" style="fill:#450053;"/><path d="M273.921,599.376C273.921,627.94 240.287,651.13 198.859,651.13C157.431,651.13 123.797,627.94 123.797,599.376" style="fill:none;stroke:#450053;stroke-width:5px;"/><path d="M115.716,607.457L131.879,591.294" style="fill:none;stroke:#450053;stroke-width:5px;"/><path d="M283.813,607.457L267.65,591.294" style="fill:none;stroke:#450053;stroke-width:5px;"/><path d="M177.57,557.406L180.246,541.243" style="fill:none;stroke:#450053;stroke-width:5px;"/><path d="M205.109,557.406L202.432,541.243" style="fill:none;stroke:#450053;stroke-width:5px;"/></g></g><defs><linearGradient id="_Linear1" x1="0" y1="0" x2="1" y2="0" gradientUnits="userSpaceOnUse" gradientTransform="matrix(-186.461,-109.74,109.74,-186.461,258.795,867.3)"><stop offset="0" style="stop-color:#fa8839;stop-opacity:1"/><stop offset="1" style="stop-color:#f8c97e;stop-opacity:1"/></linearGradient><linearGradient id="_Linear3" x1="0" y1="0" x2="1" y2="0" gradientUnits="userSpaceOnUse" gradientTransform="matrix(539.743,-108.941,108.941,539.743,13.2865,871.688)"><stop offset="0" style="stop-color:#fa8839;stop-opacity:1"/><stop offset="1" style="stop-color:#f8c97e;stop-opacity:1"/></linearGradient><linearGradient id="_Linear5" x1="0" y1="0" x2="1" y2="-0.0495019" gradientUnits="userSpaceOnUse" gradientTransform="matrix(-29.0219,193.101,-342.443,-21.2891,371.912,787.296)"><stop offset="0" style="stop-color:#d12026;stop-opacity:1"/><stop offset="0.48" style="stop-color:#ed7320;stop-opacity:1"/><stop offset="1" style="stop-color:#f68c1e;stop-opacity:1"/></linearGradient><linearGradient id="_Linear7" x1="0" y1="0" x2="1" y2="0" gradientUnits="userSpaceOnUse" gradientTransform="matrix(19.276,177.117,-177.117,19.276,938.51,565.847)"><stop offset="0" style="stop-color:#f8c97e;stop-opacity:1"/><stop offset="1" style="stop-color:#fa8839;stop-opacity:1"/></linearGradient><linearGradient id="_Linear9" x1="0" y1="0" x2="1" y2="0" gradientUnits="userSpaceOnUse" gradientTransform="matrix(-83.7618,-160.24,160.24,-83.7618,503.269,1154.95)"><stop offset="0" style="stop-color:#fa8839;stop-opacity:1"/><stop offset="1" style="stop-color:#f8c97e;stop-opacity:1"/></linearGradient><linearGradient id="_Linear11" x1="0" y1="0" x2="1" y2="0" gradientUnits="userSpaceOnUse" gradientTransform="matrix(-166.405,-202.397,202.397,-166.405,893.044,924.569)"><stop offset="0" style="stop-color:#f8c97e;stop-opacity:1"/><stop offset="1" style="stop-color:#fa8839;stop-opacity:1"/></linearGradient><linearGradient id="_Linear13" x1="0" y1="0" x2="1" y2="0" gradientUnits="userSpaceOnUse" gradientTransform="matrix(-25.6383,381.468,-381.468,-25.6383,599.315,640.441)"><stop offset="0" style="stop-color:#357c16;stop-opacity:1"/><stop offset="1" style="stop-color:#3d683a;stop-opacity:1"/></linearGradient><linearGradient id="_Linear16" x1="0" y1="0" x2="1" y2="0" gradientUnits="userSpaceOnUse" gradientTransform="matrix(50.5,-693.403,693.403,50.5,545.935,1055.28)"><stop offset="0" style="stop-color:#d12026;stop-opacity:1"/><stop offset="0.48" style="stop-color:#ed7320;stop-opacity:1"/><stop offset="1" style="stop-color:#f68c1e;stop-opacity:1"/></linearGradient><linearGradient id="_Linear17" x1="0" y1="0" x2="1" y2="0" gradientUnits="userSpaceOnUse" gradientTransform="matrix(176.277,76.4885,-76.4885,176.277,646.88,628.699)"><stop offset="0" style="stop-color:#c7c4cb;stop-opacity:1"/><stop offset="1" style="stop-color:#fcfbf8;stop-opacity:1"/></linearGradient><linearGradient id="_Linear18" x1="0" y1="0" x2="1" y2="0.107677" gradientUnits="userSpaceOnUse" gradientTransform="matrix(-32.0711,5.59162,-1.92009,-35.8944,852.079,518.379)"><stop offset="0" style="stop-color:#e0caae;stop-opacity:1"/><stop offset="1" style="stop-color:#bfa179;stop-opacity:1"/></linearGradient><linearGradient id="_Linear19" x1="0" y1="0" x2="1" y2="0.107677" gradientUnits="userSpaceOnUse" gradientTransform="matrix(-52.8582,23.7354,-19.0827,-61.0657,833.827,517.464)"><stop offset="0" style="stop-color:#e0caae;stop-opacity:1"/><stop offset="1" style="stop-color:#bfa179;stop-opacity:1"/></linearGradient><linearGradient id="_Linear20" x1="0" y1="0" x2="1" y2="0.107677" gradientUnits="userSpaceOnUse" gradientTransform="matrix(-76.9996,34.5758,-27.7981,-88.9555,831.918,505.038)"><stop offset="0" style="stop-color:#e0caae;stop-opacity:1"/><stop offset="1" style="stop-color:#bfa179;stop-opacity:1"/></linearGradient><linearGradient id="_Linear21" x1="0" y1="0" x2="1" y2="-0.00264124" gradientUnits="userSpaceOnUse" gradientTransform="matrix(-62.0767,-155.861,154.484,-61.9979,736.885,924.964)"><stop offset="0" style="stop-color:#65331d;stop-opacity:1"/><stop offset="0.13" style="stop-color:#773f22;stop-opacity:1"/><stop offset="0.28" style="stop-color:#894c28;stop-opacity:1"/><stop offset="0.67" style="stop-color:#92522b;stop-opacity:1"/><stop offset="0.86" style="stop-color:#894c28;stop-opacity:1"/><stop offset="0.93" style="stop-color:#773f22;stop-opacity:1"/><stop offset="1" style="stop-color:#65331d;stop-opacity:1"/></linearGradient><linearGradient id="_Linear22" x1="0" y1="0" x2="1" y2="-0.00264124" gradientUnits="userSpaceOnUse" gradientTransform="matrix(-125.872,-417.747,414.162,-125.977,745.795,940.08)"><stop offset="0" style="stop-color:#65331d;stop-opacity:1"/><stop offset="0.13" style="stop-color:#773f22;stop-opacity:1"/><stop offset="0.27" style="stop-color:#894c28;stop-opacity:1"/><stop offset="0.65" style="stop-color:#92522b;stop-opacity:1"/><stop offset="0.85" style="stop-color:#894c28;stop-opacity:1"/><stop offset="0.93" style="stop-color:#773f22;stop-opacity:1"/><stop offset="1" style="stop-color:#65331d;stop-opacity:1"/></linearGradient><linearGradient id="_Linear23" x1="0" y1="0" x2="1" y2="0" gradientUnits="userSpaceOnUse" gradientTransform="matrix(78.7886,-9.56455,9.56455,78.7886,642.701,733.745)"><stop offset="0" style="stop-color:#65331d;stop-opacity:1"/><stop offset="0.18" style="stop-color:#6e3a1f;stop-opacity:1"/><stop offset="0.47" style="stop-color:#834826;stop-opacity:1"/><stop offset="0.76" style="stop-color:#864a27;stop-opacity:1"/><stop offset="1" style="stop-color:#65331d;stop-opacity:1"/></linearGradient><radialGradient id="_Radial25" cx="0" cy="0" r="1" gradientUnits="userSpaceOnUse" gradientTransform="matrix(-54.2356,268.779,-268.779,-54.2356,616.586,399.268)"><stop offset="0" style="stop-color:#92522b;stop-opacity:1"/><stop offset="0.48" style="stop-color:#864a27;stop-opacity:1"/><stop offset="1" style="stop-color:#65331d;stop-opacity:1"/></radialGradient><linearGradient id="_Linear26" x1="0" y1="0" x2="1" y2="-0.00703566" gradientUnits="userSpaceOnUse" gradientTransform="matrix(19.9511,136.798,-133.615,20.4264,719.076,275.247)"><stop offset="0" style="stop-color:#710b85;stop-opacity:1"/><stop offset="1" style="stop-color:#450053;stop-opacity:1"/></linearGradient><linearGradient id="_Linear27" x1="0" y1="0" x2="1" y2="-0.0212327" gradientUnits="userSpaceOnUse" gradientTransform="matrix(27.2005,45.2981,-44.2439,27.8486,737.867,431.401)"><stop offset="0" style="stop-color:#710b85;stop-opacity:1"/><stop offset="1" style="stop-color:#450053;stop-opacity:1"/></linearGradient><linearGradient id="_Linear28" x1="0" y1="0" x2="1" y2="0" gradientUnits="userSpaceOnUse" gradientTransform="matrix(36.1804,33.5933,-33.5933,36.1804,735.274,393.911)"><stop offset="0" style="stop-color:#8415ac;stop-opacity:1"/><stop offset="1" style="stop-color:#450053;stop-opacity:1"/></linearGradient><linearGradient id="_Linear29" x1="0" y1="0" x2="1" y2="0" gradientUnits="userSpaceOnUse" gradientTransform="matrix(-2.74639,59.0956,-59.0956,-2.74639,740.833,480.513)"><stop offset="0" style="stop-color:#65331d;stop-opacity:1"/><stop offset="0.13" style="stop-color:#773f22;stop-opacity:1"/><stop offset="0.27" style="stop-color:#894c28;stop-opacity:1"/><stop offset="0.65" style="stop-color:#92522b;stop-opacity:1"/><stop offset="0.85" style="stop-color:#894c28;stop-opacity:1"/><stop offset="0.93" style="stop-color:#773f22;stop-opacity:1"/><stop offset="1" style="stop-color:#65331d;stop-opacity:1"/></linearGradient><linearGradient id="_Linear30" x1="0" y1="0" x2="1" y2="0" gradientUnits="userSpaceOnUse" gradientTransform="matrix(94.3643,117.3,-117.3,94.3643,544.337,256.717)"><stop offset="0" style="stop-color:#e0caae;stop-opacity:1"/><stop offset="1" style="stop-color:#bfa179;stop-opacity:1"/></linearGradient><linearGradient id="_Linear31" x1="0" y1="0" x2="1" y2="-0.770606" gradientUnits="userSpaceOnUse" gradientTransform="matrix(-98.0111,114.75,-151.23,30.7794,547.007,435.841)"><stop offset="0" style="stop-color:#e0caae;stop-opacity:1"/><stop offset="1" style="stop-color:#bfa179;stop-opacity:1"/></linearGradient><linearGradient id="_Linear32" x1="0" y1="0" x2="1" y2="0" gradientUnits="userSpaceOnUse" gradientTransform="matrix(-213.63,-107.143,107.143,-213.63,773.695,495.904)"><stop offset="0" style="stop-color:#e0caae;stop-opacity:1"/><stop offset="0.43" style="stop-color:#d6bd9e;stop-opacity:1"/><stop offset="1" style="stop-color:#bfa179;stop-opacity:1"/></linearGradient><linearGradient id="_Linear33" x1="0" y1="0" x2="1" y2="-0.633456" gradientUnits="userSpaceOnUse" gradientTransform="matrix(-23.0772,196.457,-168.042,111.14,633.737,549.735)"><stop offset="0" style="stop-color:#e0caae;stop-opacity:1"/><stop offset="1" style="stop-color:#bfa179;stop-opacity:1"/></linearGradient><linearGradient id="_Linear34" x1="0" y1="0" x2="1" y2="0" gradientUnits="userSpaceOnUse" gradientTransform="matrix(69.7902,246.395,-246.395,69.7902,526.316,206.258)"><stop offset="0" style="stop-color:#e0caae;stop-opacity:1"/><stop offset="1" style="stop-color:#bfa179;stop-opacity:1"/></linearGradient><linearGradient id="_Linear35" x1="0" y1="0" x2="1" y2="-0.226729" gradientUnits="userSpaceOnUse" gradientTransform="matrix(178.661,298.437,-251.417,243.627,595.067,507.358)"><stop offset="0" style="stop-color:#e0caae;stop-opacity:1"/><stop offset="1" style="stop-color:#bfa179;stop-opacity:1"/></linearGradient><linearGradient id="_Linear36" x1="0" y1="0" x2="1" y2="0" gradientUnits="userSpaceOnUse" gradientTransform="matrix(-63.5647,113.041,-113.041,-63.5647,550.235,359.6)"><stop offset="0" style="stop-color:#e0caae;stop-opacity:1"/><stop offset="0.45" style="stop-color:#c6aa84;stop-opacity:1"/><stop offset="1" style="stop-color:#bfa179;stop-opacity:1"/></linearGradient><linearGradient id="_Linear37" x1="0" y1="0" x2="1" y2="0" gradientUnits="userSpaceOnUse" gradientTransform="matrix(-189.813,133.566,-133.566,-189.813,748.385,103.983)"><stop offset="0" style="stop-color:#e0caae;stop-opacity:1"/><stop offset="1" style="stop-color:#bfa179;stop-opacity:1"/></linearGradient><linearGradient id="_Linear38" x1="0" y1="0" x2="1" y2="0" gradientUnits="userSpaceOnUse" gradientTransform="matrix(127.539,181.315,-181.315,127.539,528.259,110.714)"><stop offset="0" style="stop-color:#e0caae;stop-opacity:1"/><stop offset="1" style="stop-color:#bfa179;stop-opacity:1"/></linearGradient><linearGradient id="_Linear39" x1="0" y1="0" x2="1" y2="0" gradientUnits="userSpaceOnUse" gradientTransform="matrix(77.8738,274.935,-274.935,77.8738,525.364,219.317)"><stop offset="0" style="stop-color:#e0caae;stop-opacity:1"/><stop offset="1" style="stop-color:#bfa179;stop-opacity:1"/></linearGradient><linearGradient id="_Linear40" x1="0" y1="0" x2="1" y2="-0.26634" gradientUnits="userSpaceOnUse" gradientTransform="matrix(-3.41819,226.483,-220.77,57.9312,508.08,578.908)"><stop offset="0" style="stop-color:#e0caae;stop-opacity:1"/><stop offset="1" style="stop-color:#bfa179;stop-opacity:1"/></linearGradient><linearGradient id="_Linear41" x1="0" y1="0" x2="1" y2="0" gradientUnits="userSpaceOnUse" gradientTransform="matrix(-42.25,-144.091,144.091,-42.25,493.154,388.504)"><stop offset="0" style="stop-color:#bfa179;stop-opacity:1"/><stop offset="1" style="stop-color:#e0caae;stop-opacity:1"/></linearGradient><linearGradient id="_Linear42" x1="0" y1="0" x2="1" y2="-0.641729" gradientUnits="userSpaceOnUse" gradientTransform="matrix(-187.262,48.9791,-162.481,-111.737,339.433,395.39)"><stop offset="0" style="stop-color:#e0caae;stop-opacity:1"/><stop offset="1" style="stop-color:#bfa179;stop-opacity:1"/></linearGradient><radialGradient id="_Radial43" cx="0" cy="0" r="1" gradientUnits="userSpaceOnUse" gradientTransform="matrix(-57.578,268.779,-268.104,-54.2356,618.186,399.268)"><stop offset="0" style="stop-color:#92522b;stop-opacity:1"/><stop offset="0.48" style="stop-color:#864a27;stop-opacity:1"/><stop offset="1" style="stop-color:#65331d;stop-opacity:1"/></radialGradient><linearGradient id="_Linear44" x1="0" y1="0" x2="1" y2="0" gradientUnits="userSpaceOnUse" gradientTransform="matrix(27.4137,18.0322,-18.0322,27.4137,441.318,521.43)"><stop offset="0" style="stop-color:#92522b;stop-opacity:1"/><stop offset="1" style="stop-color:#5a280a;stop-opacity:1"/></linearGradient><radialGradient id="_Radial45" cx="0" cy="0" r="1" gradientUnits="userSpaceOnUse" gradientTransform="matrix(89.6846,110.784,-110.784,89.6846,385.015,524.075)"><stop offset="0" style="stop-color:#e0caae;stop-opacity:1"/><stop offset="1" style="stop-color:#bfa179;stop-opacity:1"/></radialGradient><linearGradient id="_Linear46" x1="0" y1="0" x2="1" y2="0" gradientUnits="userSpaceOnUse" gradientTransform="matrix(27.4137,18.0322,-18.0322,27.4137,501.339,550.623)"><stop offset="0" style="stop-color:#92522b;stop-opacity:1"/><stop offset="1" style="stop-color:#5a280a;stop-opacity:1"/></linearGradient><radialGradient id="_Radial47" cx="0" cy="0" r="1" gradientUnits="userSpaceOnUse" gradientTransform="matrix(106.693,94.5138,-94.5138,106.693,442.543,563.287)"><stop offset="0" style="stop-color:#e0caae;stop-opacity:1"/><stop offset="1" style="stop-color:#bfa179;stop-opacity:1"/></radialGradient><linearGradient id="_Linear48" x1="0" y1="0" x2="1" y2="0" gradientUnits="userSpaceOnUse" gradientTransform="matrix(101.243,-237.447,237.447,101.243,64.4861,812.244)"><stop offset="0" style="stop-color:#fa8839;stop-opacity:1"/><stop offset="1" style="stop-color:#f8c97e;stop-opacity:1"/></linearGradient></defs></svg>