<?xml version="1.0" encoding="UTF-8" standalone="no"?><!DOCTYPE svg PUBLIC "-//W3C//DTD SVG 1.1//EN" "http://www.w3.org/Graphics/SVG/1.1/DTD/svg11.dtd"><svg width="100%" height="100%" viewBox="0 0 1000 1300" version="1.1" xmlns="http://www.w3.org/2000/svg" xmlns:xlink="http://www.w3.org/1999/xlink" xml:space="preserve" xmlns:serif="http://www.serif.com/" style="fill-rule:evenodd;clip-rule:evenodd;stroke-linecap:round;stroke-linejoin:round;stroke-miterlimit:1.5;"><path d="M536.591,555.613L538.725,586.677L720.844,562.016L722.267,546.365L536.591,555.613Z" style="fill:#a19ca7;"/><path d="M704.115,578.943L730.937,578.363L720.144,710.876L701.425,695.874L704.115,578.943Z" style="fill:#a19ca7;"/><circle cx="718.77" cy="563.173" r="27.241" style="fill:#a19ca7;"/><circle cx="723.897" cy="566.622" r="21.046" style="fill:#c7c4cb;"/><circle cx="723.897" cy="566.622" r="11.222" style="fill:#a19ca7;"/><path d="M563.56,570.943C550.179,552.902 547.766,534.605 563.56,515.885L724.942,502.038C734.604,523.058 733.952,542.638 724.942,561.053L563.56,570.943Z" style="fill:#c7c4cb;"/><path d="M717.972,502.769C717.972,502.769 696.864,504.522 696.841,506.673C692.042,505.959 685.272,505.841 677.258,506.101L717.972,502.769Z" style="fill:#fcfbf8;"/><path d="M526.93,502.42L563.56,515.885C554.077,531.576 553.707,549.825 563.56,570.943L524.884,537.763C520.566,525.982 520.392,514.201 526.93,502.42Z" style="fill:#a19ca7;"/><path d="M724.942,502.038L674.161,482.888L525.975,502.038L563.56,516.215L724.942,502.038" style="fill:#a19ca7;"/><path d="M511.188,686.995L517.505,579.091L540.533,579.091L533.183,694.907L511.188,686.995Z" style="fill:#a19ca7;"/><clipPath id="_clip1"><path d="M511.188,686.995L517.505,579.091L540.533,579.091L533.183,694.907L511.188,686.995Z"/></clipPath><g clip-path="url(#_clip1)"><path d="M515.902,605.141C515.902,605.141 514.7,626.287 516.828,626.61C515.452,631.262 514.394,637.95 513.536,645.923L515.902,605.141Z" style="fill:#c7c4cb;"/></g><circle cx="531.316" cy="577.757" r="27.241" style="fill:#a19ca7;"/><circle cx="536.442" cy="581.206" r="21.046" style="fill:#c7c4cb;"/><circle cx="536.442" cy="581.206" r="11.222" style="fill:#a19ca7;"/><g><path d="M619.209,481.335C634.963,480.453 648.071,485.429 648.464,492.439C648.856,499.449 645.649,503.541 629.895,504.423C614.141,505.305 591.768,502.645 591.376,495.635C590.983,488.625 603.455,482.217 619.209,481.335Z" style="fill:#16417c;"/><rect x="591.331" y="441.56" width="57.177" height="52.477" style="fill:#16417c;"/><path d="M646.563,492.545C646.504,491.496 647.308,490.597 648.358,490.538C649.407,490.479 650.306,491.283 650.365,492.332C650.552,495.682 649.96,498.45 648.087,500.662C645.536,503.675 640.257,505.749 630.001,506.324C618.697,506.957 604.073,505.765 596.175,502.555C593.866,501.617 592.09,500.483 590.988,499.229C590.05,498.164 589.545,496.991 589.475,495.741C589.416,494.692 590.22,493.793 591.269,493.734C592.319,493.675 593.218,494.48 593.277,495.529C593.31,496.114 593.685,496.607 594.215,497.085C595.029,497.82 596.195,498.454 597.608,499.028C605.12,502.08 619.038,503.124 629.789,502.522C635.043,502.228 638.837,501.584 641.528,500.552C643.787,499.686 645.175,498.578 645.895,497.112C646.534,495.814 646.66,494.285 646.563,492.545Z" style="fill:url(#_Linear2);"/><path d="M646.563,478.734C646.504,477.684 647.308,476.785 648.358,476.726C649.407,476.668 650.306,477.472 650.365,478.521C650.552,481.871 649.96,484.638 648.087,486.85C645.536,489.863 640.257,491.938 630.001,492.512C618.697,493.145 604.073,491.953 596.175,488.743C593.866,487.805 592.09,486.671 590.988,485.418C590.05,484.352 589.545,483.18 589.475,481.93C589.416,480.881 590.22,479.981 591.269,479.922C592.319,479.864 593.218,480.668 593.277,481.717C593.31,482.303 593.685,482.795 594.215,483.274C595.029,484.008 596.195,484.642 597.608,485.216C605.12,488.268 619.038,489.312 629.789,488.71C635.043,488.416 638.837,487.772 641.528,486.74C643.787,485.874 645.175,484.766 645.895,483.301C646.534,482.002 646.66,480.473 646.563,478.734Z" style="fill:url(#_Linear3);"/><path d="M646.563,464.922C646.504,463.873 647.308,462.973 648.358,462.915C649.407,462.856 650.306,463.66 650.365,464.709C650.552,468.059 649.96,470.826 648.087,473.038C645.536,476.051 640.257,478.126 630.001,478.7C618.697,479.333 604.073,478.141 596.175,474.932C593.866,473.994 592.09,472.86 590.988,471.606C590.05,470.54 589.545,469.368 589.475,468.118C589.416,467.069 590.22,466.169 591.269,466.111C592.319,466.052 593.218,466.856 593.277,467.905C593.31,468.491 593.685,468.984 594.215,469.462C595.029,470.196 596.195,470.83 597.608,471.404C605.12,474.456 619.038,475.5 629.789,474.898C635.043,474.604 638.837,473.96 641.528,472.928C643.787,472.062 645.175,470.954 645.895,469.489C646.534,468.19 646.66,466.661 646.563,464.922Z" style="fill:url(#_Linear4);"/><path d="M646.563,451.11C646.504,450.061 647.308,449.161 648.358,449.103C649.407,449.044 650.306,449.848 650.365,450.897C650.552,454.247 649.96,457.015 648.087,459.227C645.536,462.24 640.257,464.314 630.001,464.888C618.697,465.521 604.073,464.329 596.175,461.12C593.866,460.182 592.09,459.048 590.988,457.794C590.05,456.728 589.545,455.556 589.475,454.306C589.416,453.257 590.22,452.358 591.269,452.299C592.319,452.24 593.218,453.044 593.277,454.093C593.31,454.679 593.685,455.172 594.215,455.65C595.029,456.385 596.195,457.018 597.608,457.592C605.12,460.645 619.038,461.689 629.789,461.087C635.043,460.793 638.837,460.148 641.528,459.117C643.787,458.25 645.175,457.143 645.895,455.677C646.534,454.378 646.66,452.85 646.563,451.11Z" style="fill:url(#_Linear5);"/><path d="M646.563,485.639C646.504,484.59 647.308,483.691 648.358,483.632C649.407,483.573 650.306,484.377 650.365,485.427C650.552,488.776 649.96,491.544 648.087,493.756C645.536,496.769 640.257,498.844 630.001,499.418C618.697,500.051 604.073,498.859 596.175,495.649C593.866,494.711 592.09,493.577 590.988,492.323C590.05,491.258 589.545,490.086 589.475,488.836C589.416,487.787 590.22,486.887 591.269,486.828C592.319,486.77 593.218,487.574 593.277,488.623C593.31,489.209 593.685,489.701 594.215,490.179C595.029,490.914 596.195,491.548 597.608,492.122C605.12,495.174 619.038,496.218 629.789,495.616C635.043,495.322 638.837,494.678 641.528,493.646C643.787,492.78 645.175,491.672 645.895,490.206C646.534,488.908 646.66,487.379 646.563,485.639Z" style="fill:url(#_Linear6);"/><path d="M646.563,471.828C646.504,470.779 647.308,469.879 648.358,469.82C649.407,469.762 650.306,470.566 650.365,471.615C650.552,474.965 649.96,477.732 648.087,479.944C645.536,482.957 640.257,485.032 630.001,485.606C618.697,486.239 604.073,485.047 596.175,481.838C593.866,480.9 592.09,479.765 590.988,478.512C590.05,477.446 589.545,476.274 589.475,475.024C589.416,473.975 590.22,473.075 591.269,473.017C592.319,472.958 593.218,473.762 593.277,474.811C593.31,475.397 593.685,475.889 594.215,476.368C595.029,477.102 596.195,477.736 597.608,478.31C605.12,481.362 619.038,482.406 629.789,481.804C635.043,481.51 638.837,480.866 641.528,479.834C643.787,478.968 645.175,477.86 645.895,476.395C646.534,475.096 646.66,473.567 646.563,471.828Z" style="fill:url(#_Linear7);"/><path d="M646.563,458.016C646.504,456.967 647.308,456.067 648.358,456.009C649.407,455.95 650.306,456.754 650.365,457.803C650.552,461.153 649.96,463.92 648.087,466.132C645.536,469.146 640.257,471.22 630.001,471.794C618.697,472.427 604.073,471.235 596.175,468.026C593.866,467.088 592.09,465.954 590.988,464.7C590.05,463.634 589.545,462.462 589.475,461.212C589.416,460.163 590.22,459.264 591.269,459.205C592.319,459.146 593.218,459.95 593.277,460.999C593.31,461.585 593.685,462.078 594.215,462.556C595.029,463.291 596.195,463.924 597.608,464.498C605.12,467.551 619.038,468.595 629.789,467.993C635.043,467.698 638.837,467.054 641.528,466.023C643.787,465.156 645.175,464.049 645.895,462.583C646.534,461.284 646.66,459.755 646.563,458.016Z" style="fill:url(#_Linear8);"/><path d="M646.563,444.204C646.504,443.155 647.308,442.256 648.358,442.197C649.407,442.138 650.306,442.942 650.365,443.991C650.552,447.341 649.96,450.109 648.087,452.321C645.536,455.334 640.257,457.408 630.001,457.982C618.697,458.615 604.073,457.423 596.175,454.214C593.866,453.276 592.09,452.142 590.988,450.888C590.05,449.822 589.545,448.65 589.475,447.4C589.416,446.351 590.22,445.452 591.269,445.393C592.319,445.334 593.218,446.138 593.277,447.188C593.31,447.773 593.685,448.266 594.215,448.744C595.029,449.479 596.195,450.112 597.608,450.687C605.12,453.739 619.038,454.783 629.789,454.181C635.043,453.887 638.837,453.243 641.528,452.211C643.787,451.345 645.175,450.237 645.895,448.771C646.534,447.473 646.66,445.944 646.563,444.204Z" style="fill:url(#_Linear9);"/></g><path d="M778.472,326.733L654.039,308.38L664.768,341.788L777.927,345.253L778.472,326.733Z" style="fill:#a19ca7;"/><path d="M768.762,327.003L668.054,316.871L669.224,303.3L769.99,325.192L768.762,327.003Z" style="fill:#c7c4cb;"/><path d="M777.602,318.993L802.585,224.351L816.855,224.698L803.485,327.883L777.602,318.993Z" style="fill:#a19ca7;"/><clipPath id="_clip10"><path d="M777.602,318.993L802.585,224.351L816.855,224.698L803.485,327.883L777.602,318.993Z"/></clipPath><g clip-path="url(#_clip10)"><path d="M785.035,290.834C786.31,285.376 789.317,279.825 790.128,274.192L789.387,272.295C790.49,269.902 791.456,269.817 793.473,269.481C791.48,268.755 792.672,262.126 793.08,258.771L785.035,290.834Z" style="fill:#fcfbf8;"/></g><path d="M795.694,331.739L808.771,220.111L824.416,223.676L803.491,330.258L795.694,331.739Z" style="fill:#c7c4cb;"/><path d="M717.405,431.359C717.405,431.359 592.243,462.805 581.693,462.145C571.143,461.486 519.381,454.233 519.052,429.176C518.722,404.12 510.15,311.476 537.185,298.618C564.219,285.76 653.566,270.265 675.985,307.19C698.404,344.116 717.405,431.359 717.405,431.359Z" style="fill:url(#_Linear11);"/><g><path d="M592.157,417.612L591.857,413.379L611.824,404.765L610.482,412.235L602.45,413.645L604.503,430.571L606.57,443.133L601.691,444.252L600.569,432.327L598.236,415.515L592.157,417.612Z" style="fill:#3b673b;fill-rule:nonzero;"/><path d="M614.14,441.769C612.705,442.098 611.413,441.729 610.264,440.66C609.115,439.592 608.417,438.105 608.169,436.201L605.678,418.97L609.007,417.298L610.774,432.794C610.988,434.44 611.708,435.656 612.345,436.455C612.983,437.253 613.393,437.075 614.477,436.826C615.562,436.577 615.876,436.12 616.238,435.117C616.6,434.114 616.858,432.982 616.574,430.795L614.694,416.901L617.928,415.251L619.686,430.832C620.047,433.607 619.711,436.009 618.679,438.039C617.646,440.068 616.133,441.312 614.14,441.769Z" style="fill:#3b673b;fill-rule:nonzero;"/><path d="M626.44,425.618L624.76,426.004L624.793,426.258L626.581,437.191L622.633,438.098L621.646,427.722L618.826,408.867L625.22,407.399C627.106,406.966 628.704,407.356 630.015,408.567C631.326,409.779 632.14,411.599 632.456,414.028C632.695,415.864 632.584,417.613 632.123,419.275C631.661,420.937 630.928,422.334 629.922,423.466L636.406,432.711L633.183,436.156L627.053,425.434C626.919,425.494 626.715,425.555 626.44,425.618ZM624.717,411.921L623.273,412.253L624.313,421.874L626.317,421.414C627.299,421.189 628,420.548 628.418,419.492C628.837,418.436 628.935,417.047 628.71,415.324C628.346,412.528 627.015,411.394 624.717,411.921Z" style="fill:#3b673b;fill-rule:nonzero;"/><path d="M628.162,405.647L625.715,401.234L643.523,396.922L642.159,402.434L636.949,402.975L638.652,416.982L640.44,427.916L636.314,428.863L635.327,418.487L633.301,403.856L628.162,405.647Z" style="fill:#3b673b;fill-rule:nonzero;"/><path d="M644.347,436.189L643.36,425.814L640.65,407.806L644.697,405.786L646.684,424.309L647.784,431.124L653.736,429.06L654.041,433.964L644.347,436.189Z" style="fill:#3b673b;fill-rule:nonzero;"/><path d="M650.418,427.188L649.431,416.812L646.611,397.957L657.661,395.421L657.927,400.028L651.297,401.55L652.097,409.089L657.99,407.736L658.251,412.301L652.564,413.606L652.755,415.308L653.811,421.784L660.942,420.148L661.202,424.713L650.418,427.188Z" style="fill:#3b673b;fill-rule:nonzero;"/><path d="M663.545,430.026C663.414,428.891 663.28,427.794 663.142,426.737C663.018,425.651 662.889,424.591 662.755,423.558C662.634,422.496 662.505,421.437 662.367,420.379L661.939,417.095C661.52,413.873 661.101,410.79 660.682,407.846C660.281,404.899 659.896,402.277 659.527,399.98C665.108,395.013 673.207,398.124 671.763,406.823C671.544,408.143 671.301,408.728 670.316,409.207C672.018,409.272 673.342,409.918 674.288,411.145C675.23,412.348 675.867,414.215 676.196,416.749C676.661,420.315 676.242,423.135 674.94,425.207C673.635,427.254 671.372,428.648 668.15,429.387C667.523,429.531 666.814,429.656 666.025,429.761C665.255,429.887 664.429,429.975 663.545,430.026ZM664.881,408.707C665.125,408.701 665.323,408.681 665.475,408.646L665.959,408.535C666.874,408.325 667.571,407.912 668.05,407.295C668.529,406.679 668.715,405.965 668.609,405.153C668.513,404.415 668.202,403.904 667.676,403.619C667.167,403.331 666.463,403.29 665.564,403.496C665.276,403.562 665.017,403.647 664.786,403.751C664.568,403.826 664.397,403.916 664.271,404.021L664.881,408.707ZM666.484,423.745C667.295,425.196 671.996,423.567 672.281,421.718C672.495,420.333 673.246,419.763 673.079,418.479C672.907,417.16 672.218,416.694 671.43,415.748C669.642,413.603 665.393,414.838 665.508,416.25L666.484,423.745Z" style="fill:#3993a0;"/><path d="M681.883,398.401C684.096,397.893 685.879,398.66 687.23,400.702C688.582,402.743 689.541,405.94 690.108,410.292C690.683,414.708 690.607,418.231 689.878,420.861C689.165,423.487 687.68,425.059 685.422,425.578C684.309,425.833 683.304,425.753 682.409,425.337C681.511,424.9 680.718,424.161 680.032,423.121C679.343,422.058 678.762,420.705 678.288,419.062C677.811,417.396 677.429,415.465 677.143,413.267C676.568,408.851 676.662,405.402 677.424,402.919C678.184,400.415 679.671,398.909 681.883,398.401ZM684.721,419.721C685.317,419.584 685.815,419.275 686.213,418.793C686.626,418.28 686.938,417.652 687.149,416.907C687.355,416.135 687.472,415.259 687.498,414.278C687.52,413.27 687.455,412.184 687.304,411.021C687.152,409.858 686.939,408.807 686.663,407.867C686.383,406.9 686.047,406.086 685.653,405.424C685.26,404.762 684.804,404.282 684.285,403.983C683.784,403.68 683.236,403.597 682.639,403.734C682.042,403.871 681.548,404.208 681.157,404.743C680.781,405.247 680.482,405.901 680.26,406.704C680.057,407.503 679.946,408.42 679.927,409.455C679.905,410.463 679.967,411.535 680.115,412.671C680.267,413.834 680.481,414.885 680.757,415.825C681.029,416.738 681.36,417.511 681.75,418.146C682.155,418.749 682.599,419.205 683.08,419.512C683.577,419.788 684.124,419.858 684.721,419.721Z" style="fill:#3993a0;"/><path d="M685.356,397.104L690.376,396.11C690.672,398.113 693.484,423.346 693.537,423.753L697.993,421.261C697.919,420.761 696.018,408.851 696.018,408.851C696.018,408.851 694.861,397.026 694.819,396.633L698.36,397.433L700.047,391.325L683.124,392.913L685.356,397.104Z" style="fill:#3993a0;"/></g><path d="M529.602,298.618C529.602,298.618 570.423,319.621 568.115,361.162C565.807,402.703 581.693,462.145 581.693,462.145L519.052,458.189C519.052,458.189 495.644,325.983 529.602,298.618Z" style="fill:#a19ca7;"/><g><path d="M597.346,283.015C609.407,282.242 619.443,286.603 619.743,292.747C620.044,298.891 617.588,302.477 605.527,303.25C593.467,304.023 576.338,301.693 576.038,295.548C575.738,289.404 585.285,283.788 597.346,283.015Z" style="fill:#16417c;"/><rect x="576.004" y="248.154" width="43.774" height="45.994" style="fill:#16417c;"/><path d="M618.288,292.84C618.243,291.921 618.859,291.133 619.662,291.081C620.465,291.03 621.154,291.734 621.199,292.654C621.342,295.59 620.889,298.015 619.455,299.954C617.502,302.595 613.46,304.413 605.609,304.916C596.954,305.471 585.759,304.426 579.712,301.614C577.945,300.791 576.585,299.797 575.741,298.699C575.023,297.764 574.636,296.737 574.583,295.642C574.538,294.722 575.153,293.934 575.957,293.882C576.76,293.831 577.448,294.536 577.493,295.455C577.518,295.969 577.806,296.4 578.212,296.819C578.835,297.463 579.728,298.019 580.809,298.522C586.56,301.197 597.215,302.112 605.446,301.584C609.469,301.327 612.373,300.762 614.433,299.858C616.163,299.099 617.225,298.128 617.777,296.843C618.266,295.705 618.363,294.365 618.288,292.84Z" style="fill:url(#_Linear12);"/><path d="M618.288,280.735C618.243,279.816 618.859,279.027 619.662,278.976C620.465,278.924 621.154,279.629 621.199,280.548C621.342,283.485 620.889,285.91 619.455,287.849C617.502,290.49 613.46,292.308 605.609,292.811C596.954,293.366 585.759,292.321 579.712,289.508C577.945,288.686 576.585,287.692 575.741,286.593C575.023,285.659 574.636,284.632 574.583,283.536C574.538,282.617 575.153,281.829 575.957,281.777C576.76,281.726 577.448,282.43 577.493,283.35C577.518,283.863 577.806,284.295 578.212,284.714C578.835,285.358 579.728,285.913 580.809,286.417C586.56,289.092 597.215,290.007 605.446,289.479C609.469,289.221 612.373,288.657 614.433,287.753C616.163,286.993 617.225,286.022 617.777,284.738C618.266,283.6 618.363,282.26 618.288,280.735Z" style="fill:url(#_Linear13);"/><path d="M618.288,268.63C618.243,267.71 618.859,266.922 619.662,266.87C620.465,266.819 621.154,267.524 621.199,268.443C621.342,271.379 620.889,273.805 619.455,275.743C617.502,278.384 613.46,280.203 605.609,280.706C596.954,281.26 585.759,280.216 579.712,277.403C577.945,276.581 576.585,275.587 575.741,274.488C575.023,273.554 574.636,272.527 574.583,271.431C574.538,270.512 575.153,269.723 575.957,269.672C576.76,269.62 577.448,270.325 577.493,271.245C577.518,271.758 577.806,272.19 578.212,272.609C578.835,273.253 579.728,273.808 580.809,274.311C586.56,276.986 597.215,277.901 605.446,277.374C609.469,277.116 612.373,276.551 614.433,275.647C616.163,274.888 617.225,273.917 617.777,272.632C618.266,271.494 618.363,270.154 618.288,268.63Z" style="fill:url(#_Linear14);"/><path d="M618.288,256.524C618.243,255.605 618.859,254.817 619.662,254.765C620.465,254.714 621.154,255.418 621.199,256.338C621.342,259.274 620.889,261.7 619.455,263.638C617.502,266.279 613.46,268.097 605.609,268.6C596.954,269.155 585.759,268.111 579.712,265.298C577.945,264.475 576.585,263.482 575.741,262.383C575.023,261.449 574.636,260.421 574.583,259.326C574.538,258.406 575.153,257.618 575.957,257.567C576.76,257.515 577.448,258.22 577.493,259.139C577.518,259.653 577.806,260.084 578.212,260.504C578.835,261.147 579.728,261.703 580.809,262.206C586.56,264.881 597.215,265.796 605.446,265.269C609.469,265.011 612.373,264.446 614.433,263.542C616.163,262.783 617.225,261.812 617.777,260.527C618.266,259.389 618.363,258.049 618.288,256.524Z" style="fill:url(#_Linear15);"/><path d="M618.288,286.788C618.243,285.868 618.859,285.08 619.662,285.028C620.465,284.977 621.154,285.682 621.199,286.601C621.342,289.537 620.889,291.963 619.455,293.901C617.502,296.542 613.46,298.361 605.609,298.864C596.954,299.418 585.759,298.374 579.712,295.561C577.945,294.739 576.585,293.745 575.741,292.646C575.023,291.712 574.636,290.685 574.583,289.589C574.538,288.67 575.153,287.881 575.957,287.83C576.76,287.778 577.448,288.483 577.493,289.402C577.518,289.916 577.806,290.348 578.212,290.767C578.835,291.411 579.728,291.966 580.809,292.469C586.56,295.144 597.215,296.059 605.446,295.532C609.469,295.274 612.373,294.709 614.433,293.805C616.163,293.046 617.225,292.075 617.777,290.79C618.266,289.652 618.363,288.312 618.288,286.788Z" style="fill:url(#_Linear16);"/><path d="M618.288,274.682C618.243,273.763 618.859,272.975 619.662,272.923C620.465,272.872 621.154,273.576 621.199,274.496C621.342,277.432 620.889,279.857 619.455,281.796C617.502,284.437 613.46,286.255 605.609,286.758C596.954,287.313 585.759,286.269 579.712,283.456C577.945,282.633 576.585,281.639 575.741,280.541C575.023,279.607 574.636,278.579 574.583,277.484C574.538,276.564 575.153,275.776 575.957,275.724C576.76,275.673 577.448,276.378 577.493,277.297C577.518,277.811 577.806,278.242 578.212,278.661C578.835,279.305 579.728,279.861 580.809,280.364C586.56,283.039 597.215,283.954 605.446,283.426C609.469,283.169 612.373,282.604 614.433,281.7C616.163,280.941 617.225,279.97 617.777,278.685C618.266,277.547 618.363,276.207 618.288,274.682Z" style="fill:url(#_Linear17);"/><path d="M618.288,262.577C618.243,261.658 618.859,260.869 619.662,260.818C620.465,260.766 621.154,261.471 621.199,262.391C621.342,265.327 620.889,267.752 619.455,269.691C617.502,272.332 613.46,274.15 605.609,274.653C596.954,275.208 585.759,274.163 579.712,271.35C577.945,270.528 576.585,269.534 575.741,268.435C575.023,267.501 574.636,266.474 574.583,265.378C574.538,264.459 575.153,263.671 575.957,263.619C576.76,263.568 577.448,264.272 577.493,265.192C577.518,265.705 577.806,266.137 578.212,266.556C578.835,267.2 579.728,267.755 580.809,268.259C586.56,270.934 597.215,271.849 605.446,271.321C609.469,271.063 612.373,270.499 614.433,269.595C616.163,268.835 617.225,267.864 617.777,266.58C618.266,265.442 618.363,264.102 618.288,262.577Z" style="fill:url(#_Linear18);"/><path d="M618.288,250.472C618.243,249.552 618.859,248.764 619.662,248.713C620.465,248.661 621.154,249.366 621.199,250.285C621.342,253.221 620.889,255.647 619.455,257.586C617.502,260.226 613.46,262.045 605.609,262.548C596.954,263.103 585.759,262.058 579.712,259.245C577.945,258.423 576.585,257.429 575.741,256.33C575.023,255.396 574.636,254.369 574.583,253.273C574.538,252.354 575.153,251.565 575.957,251.514C576.76,251.462 577.448,252.167 577.493,253.087C577.518,253.6 577.806,254.032 578.212,254.451C578.835,255.095 579.728,255.65 580.809,256.153C586.56,258.828 597.215,259.743 605.446,259.216C609.469,258.958 612.373,258.393 614.433,257.489C616.163,256.73 617.225,255.759 617.777,254.475C618.266,253.336 618.363,251.996 618.288,250.472Z" style="fill:url(#_Linear19);"/></g><path d="M622.841,338.221L525.771,303.729L524.98,339.395L629.096,358.259L622.841,338.221Z" style="fill:#a19ca7;"/><path d="M617.136,334.161L530.887,304.975L533.558,331.138L616.805,340.117L617.136,334.161Z" style="fill:#c7c4cb;"/><path d="M686.904,228.525L628.298,329.156L645.599,335.752L692.714,229.871L686.904,228.525Z" style="fill:#c7c4cb;"/><path d="M646.761,297.697C646.761,297.697 635.885,315.871 637.62,317.143C634.242,320.627 630.202,326.06 625.742,332.724L646.761,297.697Z" style="fill:#fcfbf8;"/><path d="M580.018,321.483C580.018,321.483 559.905,314.843 559.043,316.814C557.134,315.645 554.968,313.936 552.084,313.174C545.655,311.475 545.271,310.189 541.242,308.63L580.018,321.483Z" style="fill:#fcfbf8;"/><circle cx="785.397" cy="335.449" r="21.995" style="fill:#a19ca7;"/><path d="M603.069,95.617C603.069,95.617 601.286,65.682 630.537,45.201C659.787,24.72 694.448,34.398 694.448,34.398L693.097,47.227C693.097,47.227 663.613,38.674 639.756,54.879C615.898,71.084 614.773,99.668 614.773,99.668L603.069,95.617Z" style="fill:#16417c;"/><path d="M533.276,106.845L608.832,85.968L595.54,281.804L529.418,256.983C519.637,209.683 515.181,148.569 533.276,106.845Z" style="fill:#a19ca7;"/><path d="M608.068,85.968L697.205,112.027C689.564,147.276 690.795,255.372 685.047,261.31L595.54,281.804C582.687,212.552 572.941,144.024 608.068,85.968Z" style="fill:#c7c4cb;"/><path d="M588.523,240.652C588.523,240.652 592.108,261.527 594.254,261.362C594.118,263.596 593.627,266.311 594.309,269.215C595.829,275.689 594.875,276.632 595.391,280.921L588.523,240.652Z" style="fill:#fcfbf8;"/><path d="M528.833,201.266C525.769,195.984 523.9,188.969 523.9,181.276C523.9,173.583 525.769,166.569 528.833,161.287L528.833,151.538L545.258,151.538L545.258,151.769C554.615,153.603 561.865,166.124 561.865,181.276C561.865,196.429 554.615,208.949 545.258,210.783L545.258,211.014L528.833,211.014L528.833,201.266Z" style="fill:url(#_Linear20);"/><ellipse cx="526.276" cy="181.276" rx="18.982" ry="29.738" style="fill:#c7c4cb;"/><clipPath id="_clip21"><ellipse cx="526.276" cy="181.276" rx="18.982" ry="29.738"/></clipPath><g clip-path="url(#_clip21)"><path d="M527.54,151.291L534.935,155.454C537.703,159.623 540.355,163.285 539.563,164.95C542.276,164.898 543.905,169.648 545.664,173.82C544.843,163.218 542.484,154.369 527.54,151.291Z" style="fill:#fcfbf8;"/></g><ellipse cx="524.647" cy="181.786" rx="11.819" ry="18.515" style="fill:#a19ca7;"/><clipPath id="_clip22"><ellipse cx="524.647" cy="181.786" rx="11.819" ry="18.515"/></clipPath><g clip-path="url(#_clip22)"><ellipse cx="529.914" cy="181.786" rx="9.613" ry="15.06" style="fill:#c7c4cb;"/></g><path d="M643.29,230.409C643.29,230.409 645.899,243.407 659.572,243.407C673.245,243.407 675.102,228.721 675.102,228.721" style="fill:none;stroke:#450053;stroke-width:4.17px;"/><path d="M652.189,155.42C652.189,155.42 650.307,146.043 640.442,146.043C630.578,146.043 629.239,156.638 629.239,156.638" style="fill:none;stroke:#450053;stroke-width:4.17px;"/><ellipse cx="640.003" cy="188.481" rx="9.466" ry="14.176" style="fill:#450053;"/><g><path d="M805.165,138.122L805.119,137.998L792.604,141.353C798.857,131.522 827.131,128.231 841.262,148.954L840.877,149.777C840.86,149.756 840.814,149.696 840.807,149.688C833.815,140.801 822.835,136.497 812.657,139.705C809.991,140.546 807.29,136.466 805.165,138.122Z" style="fill:#a19ca7;"/><path d="M808.768,148.77L795.606,152.873L792.769,141.282L805.416,137.932L808.768,148.77Z" style="fill:#a19ca7;"/><path d="M810.369,156.545L805.108,137.836C816.791,131.718 832.402,136.467 840.807,149.688L828.277,156.11C825.663,153.225 822.699,153.303 821.22,153.052C819.313,152.728 817.347,152.834 815.435,153.437C813.473,154.055 811.766,155.135 810.369,156.545Z" style="fill:#c7c4cb;"/><circle cx="821.381" cy="211.31" r="19.204" style="fill:#a19ca7;"/></g><g><path d="M652.517,201.501C658.487,201.501 663.334,194.929 663.334,186.834C663.334,178.739 658.487,172.167 652.517,172.167" style="fill:none;stroke:#907400;stroke-width:4.17px;"/><path d="M861.476,238.117C882.572,238.117 899.699,214.892 899.699,186.285C899.699,157.678 882.572,134.453 861.476,134.453" style="fill:none;stroke:#907400;stroke-width:4.17px;"/><path d="M794.748,225.437C810.566,225.437 823.409,208.022 823.409,186.571C823.409,165.121 810.566,147.706 794.748,147.706" style="fill:none;stroke:#907400;stroke-width:4.04px;"/><path d="M726.097,210.627C736.2,210.627 744.402,199.504 744.402,185.804C744.402,172.105 736.2,160.982 726.097,160.982" style="fill:none;stroke:#907400;stroke-width:4.17px;"/><path d="M657.947,199.391C663.058,199.391 667.208,193.764 667.208,186.834C667.208,179.903 663.058,174.277 657.947,174.277" style="fill:none;stroke:#907400;stroke-width:4.17px;"/><path d="M646.912,178.424L931.344,122.156L921.497,248.154L647.756,195.585L646.912,178.424Z" style="fill:url(#_Linear23);"/><clipPath id="_clip24"><path d="M646.912,178.424L931.344,122.156L921.497,248.154L647.756,195.585L646.912,178.424Z"/></clipPath><g clip-path="url(#_clip24)"><path d="M642.439,182.77L905.156,149.821L894.847,176.435L641.919,186.158L642.439,182.77Z" style="fill:#fcfbf8;fill-opacity:0.5;"/><path d="M651.293,179.004L893.472,139.266L886.902,147.187L644.411,181.368L651.293,179.004Z" style="fill:#fcfbf8;fill-opacity:0.5;"/></g><path d="M652.467,201.501C646.497,201.501 641.65,194.929 641.65,186.834C641.65,178.739 646.497,172.167 652.467,172.167" style="fill:#b39100;stroke:#907400;stroke-width:4.17px;"/><path d="M861.296,238.117C840.2,238.117 823.073,214.892 823.073,186.285C823.073,157.678 840.2,134.453 861.296,134.453" style="fill:none;stroke:#907400;stroke-width:4.17px;"/><path d="M922.754,252.675C897.129,252.675 876.324,223.816 876.324,188.27C876.324,152.725 897.129,123.866 922.754,123.866" style="fill:none;stroke:#907400;stroke-width:5.02px;"/><path d="M794.613,225.437C778.795,225.437 765.952,208.022 765.952,186.571C765.952,165.121 778.795,147.706 794.613,147.706" style="fill:none;stroke:#907400;stroke-width:4.04px;"/><path d="M814.831,216.668C809.495,208.902 806.353,199.382 806.353,189.102C806.353,182.404 807.687,176.029 810.092,170.251" style="fill:none;stroke:#907400;stroke-width:4.55px;"/><path d="M874.007,228.126C866.076,217.643 861.404,204.794 861.404,190.918C861.404,181.878 863.388,173.273 866.963,165.474" style="fill:none;stroke:#907400;stroke-width:4.17px;"/><path d="M758.088,206.462C755.487,201.549 753.955,195.528 753.955,189.025C753.955,184.788 754.606,180.755 755.778,177.101" style="fill:none;stroke:#907400;stroke-width:4.17px;"/><path d="M799.91,209.739C795.732,203.657 793.271,196.201 793.271,188.15C793.271,182.904 794.315,177.911 796.199,173.386" style="fill:none;stroke:#907400;stroke-width:4.17px;"/><path d="M854.519,221.877C848.999,213.842 845.748,203.994 845.748,193.358C845.748,186.428 847.128,179.833 849.617,173.855" style="fill:none;stroke:#907400;stroke-width:4.17px;"/><path d="M747.05,201.87C744.702,197.435 743.32,192 743.32,186.13C743.32,182.305 743.907,178.665 744.965,175.366" style="fill:none;stroke:#907400;stroke-width:4.17px;"/><path d="M789.34,209.141C785.569,203.651 783.347,196.921 783.347,189.654C783.347,184.918 784.29,180.411 785.99,176.327" style="fill:none;stroke:#907400;stroke-width:4.17px;"/><path d="M780.292,206.915C776.685,201.665 774.56,195.229 774.56,188.279C774.56,183.751 775.462,179.441 777.088,175.535" style="fill:none;stroke:#907400;stroke-width:3.98px;"/><path d="M841.875,215.674C836.892,208.421 833.957,199.531 833.957,189.93C833.957,183.675 835.203,177.722 837.45,172.326" style="fill:none;stroke:#907400;stroke-width:4.17px;"/><path d="M737.001,199.422C735.108,195.846 733.993,191.462 733.993,186.729C733.993,183.644 734.467,180.709 735.32,178.048" style="fill:none;stroke:#907400;stroke-width:4.17px;"/><path d="M726.532,197.608C724.96,194.639 724.034,191 724.034,187.069C724.034,184.508 724.427,182.071 725.136,179.862" style="fill:none;stroke:#907400;stroke-width:4.17px;"/><path d="M719.591,195.58C718.378,193.29 717.664,190.482 717.664,187.45C717.664,185.474 717.967,183.594 718.514,181.89" style="fill:none;stroke:#907400;stroke-width:4.17px;"/><path d="M673.934,193.22C672.721,190.93 672.007,188.122 672.007,185.09C672.007,183.115 672.31,181.234 672.857,179.53" style="fill:none;stroke:#907400;stroke-width:4.17px;"/><path d="M667.243,191.965C665.744,190.086 664.861,187.782 664.861,185.294C664.861,183.673 665.236,182.13 665.911,180.731" style="fill:none;stroke:#907400;stroke-width:4.17px;"/><path d="M658.377,191.764C657.56,190.22 657.078,188.328 657.078,186.284C657.078,184.952 657.283,183.685 657.651,182.536" style="fill:none;stroke:#907400;stroke-width:4.17px;"/><path d="M726.011,210.627C715.908,210.627 707.705,199.504 707.705,185.804C707.705,172.105 715.908,160.982 726.011,160.982" style="fill:none;stroke:#907400;stroke-width:4.17px;"/><path d="M657.904,199.391C652.793,199.391 648.643,193.764 648.643,186.834C648.643,179.903 652.793,174.277 657.904,174.277" style="fill:none;stroke:#907400;stroke-width:4.17px;"/><ellipse cx="927.883" cy="188.27" rx="48.756" ry="66.114" style="fill:#b39100;"/><clipPath id="_clip25"><ellipse cx="927.883" cy="188.27" rx="48.756" ry="66.114"/></clipPath><g clip-path="url(#_clip25)"><ellipse cx="910.281" cy="187.708" rx="47.042" ry="53.735" style="fill:#c7c4cb;stroke:#907400;stroke-width:4.17px;"/><path d="M890.795,156.544C897.368,146.668 906.986,140.435 917.693,140.435C937.485,140.435 953.554,161.734 953.554,187.969C953.554,207.102 945.007,223.61 932.703,231.145C938.28,222.766 941.666,211.763 941.666,199.721C941.666,173.486 925.597,152.187 905.805,152.187C900.447,152.187 895.362,153.747 890.795,156.544Z" style="fill:#fcfbf8;"/><path d="M930.345,222.749C924.801,230.076 916.689,234.7 907.659,234.7C890.966,234.7 877.414,218.899 877.414,199.437C877.414,185.244 884.622,172.998 894.999,167.407C890.295,173.624 887.44,181.786 887.44,190.72C887.44,210.182 900.992,225.982 917.685,225.982C922.204,225.982 926.493,224.824 930.345,222.749Z" style="fill:#a19ca7;"/></g><ellipse cx="927.883" cy="188.27" rx="48.756" ry="66.114" style="fill:none;stroke:#907400;stroke-width:4.17px;"/></g><circle cx="699.153" cy="41.061" r="19.204" style="fill:#a19ca7;"/><path d="M687.541,35.61C689.45,29.366 694.737,24.872 700.953,24.872C708.775,24.872 715.125,31.989 715.125,40.755C715.125,44.684 713.849,48.282 711.736,51.057C711.574,49.549 711.274,48.023 710.826,46.504C707.806,36.257 699.211,30.211 691.643,33.012C690.109,33.58 688.733,34.469 687.541,35.61Z" style="fill:#c7c4cb;"/><circle cx="699.114" cy="228.059" r="19.204" style="fill:#a19ca7;"/><clipPath id="_clip26"><circle cx="699.114" cy="228.059" r="19.204"/></clipPath><g clip-path="url(#_clip26)"><path d="M697.387,244.894L701.145,246.332C704.472,246.298 707.632,243.505 708.8,241.941C711.175,242.523 715.052,240.851 718.733,239.474L697.602,252.57L692.794,245.737L697.387,244.894Z" style="fill:#c7c4cb;"/></g><path d="M644.524,339.007L686.402,234.844L699.681,240.021L643.829,358.669L644.524,339.007Z" style="fill:#a19ca7;"/><g><path d="M716.045,213.022L715.974,213.133L701.896,215.714C703.908,217.53 706.153,219.151 708.617,220.53C723.13,228.656 740.798,225.917 752.217,214.968L752.007,214.084C751.987,214.101 751.929,214.15 751.921,214.157C743.266,221.434 731.64,223.413 722.328,218.2C719.889,216.834 717.788,215.075 716.045,213.022Z" style="fill:#a19ca7;"/><path d="M723.516,201.247L707.023,200.751L702.044,215.817L716.251,213.259L723.516,201.247Z" style="fill:#a19ca7;"/><path d="M723.516,201.247L716.045,213.022C717.788,215.075 719.889,216.834 722.328,218.2C731.64,223.413 743.266,221.434 751.921,214.157L740.961,205.318C737.814,207.611 734.928,206.931 733.428,206.876C731.496,206.804 729.593,206.301 727.843,205.322C726.048,204.317 724.596,202.912 723.516,201.247Z" style="fill:#c7c4cb;"/></g><path d="M704.201,217.546C686.872,213.698 673.856,198.27 673.757,179.776C673.643,158.306 690.981,140.784 712.45,140.67C724.334,140.606 735.008,145.89 742.191,154.262C737.318,149.296 730.9,146.292 723.885,146.329C708.779,146.409 696.589,160.562 696.682,177.915C696.756,191.884 704.767,203.696 715.77,207.728L715.763,207.867L704.201,217.546Z" style="fill:#a19ca7;"/><path d="M623.285,326.146C634.999,322.962 647.094,329.888 650.278,341.602C653.462,353.317 646.536,365.412 634.822,368.595C623.107,371.779 611.012,364.853 607.828,353.139C604.645,341.425 611.571,329.33 623.285,326.146Z" style="fill:#a19ca7;"/><path d="M535.83,343.347C522.81,350.864 506.135,346.396 498.618,333.376C491.101,320.355 495.568,303.681 508.589,296.164C521.609,288.646 538.284,293.114 545.801,306.135C553.318,319.155 548.851,335.829 535.83,343.347Z" style="fill:#a19ca7;"/><path d="M526.568,337.558C516.509,343.366 503.626,339.914 497.819,329.855C492.011,319.795 495.463,306.913 505.522,301.105C515.581,295.298 528.464,298.749 534.271,308.809C540.079,318.868 536.627,331.75 526.568,337.558Z" style="fill:#c7c4cb;"/><path d="M742.191,154.262C743.546,155.644 744.782,157.178 745.878,158.841C745.878,158.841 728.376,162.443 728.346,162.428C726.528,161.508 724.517,161.002 722.405,161.014C714.35,161.056 707.85,168.603 707.9,177.855C707.936,184.618 711.46,190.432 716.5,193.055L715.77,207.728C704.767,203.696 696.756,191.884 696.682,177.915C696.589,160.562 708.779,146.409 723.885,146.329C730.9,146.292 737.318,149.296 742.191,154.262Z" style="fill:#c7c4cb;"/><path d="M632.737,346.492C635.075,355.094 632.295,363.349 626.533,364.915C620.77,366.481 614.194,360.769 611.856,352.167C609.518,343.565 612.299,335.309 618.061,333.743C623.823,332.177 630.399,337.89 632.737,346.492Z" style="fill:#c7c4cb;"/><path d="M521.656,329.05C516.292,332.147 509.423,330.306 506.327,324.943C503.23,319.579 505.07,312.71 510.434,309.613C515.798,306.517 522.667,308.357 525.763,313.721C528.86,319.085 527.02,325.953 521.656,329.05Z" style="fill:#a19ca7;"/><path d="M626.74,348.121C628.061,352.979 627.141,357.464 624.689,358.13C622.236,358.797 619.173,355.394 617.853,350.537C616.533,345.679 617.452,341.195 619.905,340.528C622.357,339.862 625.42,343.264 626.74,348.121Z" style="fill:#a19ca7;"/><g><path d="M171.68,792.938C122.115,779.87 72.309,776.429 13.591,779.38L13.541,777.784C108.583,765.335 137.144,778.236 176.54,787.006L171.68,792.938Z" style="fill:#bb8d66;"/><path d="M169.516,786.924C280.997,742.161 391.157,695.506 517.428,671.929C591.602,721.671 681.143,787.527 795.15,853.79L403.964,1034.64C314.616,986.36 238.422,906.757 169.516,786.924Z" style="fill:#bb8d66;"/><clipPath id="_clip27"><path d="M169.516,786.924C280.997,742.161 391.157,695.506 517.428,671.929C591.602,721.671 681.143,787.527 795.15,853.79L403.964,1034.64C314.616,986.36 238.422,906.757 169.516,786.924Z"/></clipPath><g clip-path="url(#_clip27)"><path d="M702.906,643.223L702.906,831.3L504.491,841.536C512.839,760.507 518.951,687.076 516.364,643.223L702.906,643.223Z" style="fill:url(#_Radial28);"/></g><path d="M172.03,791.562C122.466,778.494 71.835,775.009 13.116,777.96C13.116,777.96 127.88,704.632 215.615,706.242C303.35,707.851 482.333,616.862 482.333,616.862C499.762,635.834 512.997,651.624 517.428,672.89C517.428,672.89 398.33,707.851 337.157,732.804C275.983,757.756 172.03,791.562 172.03,791.562Z" style="fill:url(#_Linear29);"/><path d="M142.483,876.098C164.215,875.293 160.411,815.838 196.632,782.032C232.853,748.226 266.968,729.925 350.678,738.779C434.389,747.633 453.836,704.304 498.119,713.059C540.271,721.393 546.536,759.58 578.695,788.679C616.195,822.612 650.202,824.979 624.373,876.153C600.179,924.088 345.32,993.615 345.32,993.615C345.32,993.615 120.75,876.903 142.483,876.098Z" style="fill:url(#_Radial30);"/><clipPath id="_clip31"><path d="M142.483,876.098C164.215,875.293 160.411,815.838 196.632,782.032C232.853,748.226 266.968,729.925 350.678,738.779C434.389,747.633 453.836,704.304 498.119,713.059C540.271,721.393 546.536,759.58 578.695,788.679C616.195,822.612 650.202,824.979 624.373,876.153C600.179,924.088 345.32,993.615 345.32,993.615C345.32,993.615 120.75,876.903 142.483,876.098Z"/></clipPath><g clip-path="url(#_clip31)"><path d="M524.777,758.349C524.593,750.588 530.673,747.412 535.325,748.91C539.978,750.408 543.203,756.581 543.387,764.342C543.678,770.084 540.624,777.572 537.676,783.041C531.504,782.336 523.613,780.565 519.066,777.047C512.802,772.463 509.577,766.29 511.005,761.615C512.432,756.941 518.512,753.764 524.777,758.349Z" style="fill:#d12026;"/><path d="M205.327,818.063C205.143,810.302 211.223,807.125 215.875,808.624C220.528,810.122 223.752,816.295 223.937,824.056C224.227,829.797 221.174,837.286 218.226,842.754C212.054,842.05 204.163,840.279 199.616,836.761C193.351,832.176 190.127,826.004 191.554,821.329C192.982,816.654 199.062,813.478 205.327,818.063Z" style="fill:#d12026;"/><path d="M471.863,730.94C471.678,723.179 477.758,720.003 482.411,721.501C487.063,722.999 490.288,729.172 490.472,736.933C490.763,742.674 487.709,750.163 484.761,755.631C478.589,754.927 470.698,753.156 466.152,749.638C459.887,745.054 456.662,738.881 458.09,734.206C459.518,729.532 465.598,726.355 471.863,730.94Z" style="fill:#d12026;"/><path d="M212.493,759.515C212.308,751.754 218.388,748.577 223.041,750.076C227.693,751.574 230.918,757.747 231.102,765.508C231.393,771.249 228.339,778.737 225.391,784.206C219.219,783.502 211.328,781.731 206.782,778.213C200.517,773.628 197.292,767.455 198.72,762.781C200.148,758.106 206.228,754.93 212.493,759.515Z" style="fill:#d12026;"/><path d="M526.379,761.105L519.089,758.494L511.591,762.187L512.283,756.722L503.959,755.268L514.152,749.942L516.57,744.117L522.825,744.935L532.533,738.77L529.63,746.707L534.709,748.84L527.762,753.486L526.379,761.105Z" style="fill:#3d683a;"/><path d="M206.929,820.819L199.639,818.208L192.141,821.9L192.833,816.436L184.508,814.981L194.701,809.656L197.12,803.831L203.375,804.649L213.083,798.484L210.18,806.421L215.259,808.553L208.312,813.2L206.929,820.819Z" style="fill:#3d683a;"/><path d="M472.922,733.908L465.632,731.297L458.135,734.989L458.827,729.525L450.502,728.07L460.695,722.745L463.114,716.92L469.368,717.738L479.077,711.573L476.173,719.51L481.252,721.642L474.305,726.289L472.922,733.908Z" style="fill:#3d683a;"/><path d="M213.552,762.483L206.262,759.871L198.765,763.564L199.457,758.099L191.132,756.645L201.325,751.32L203.744,745.494L209.998,746.312L219.707,740.148L216.803,748.084L221.882,750.217L214.935,754.864L213.552,762.483Z" style="fill:#3d683a;"/></g><path d="M383.857,746.063C393.551,714.259 526.794,718.811 519.225,754.76C512.46,786.889 448.188,848.056 429.206,832.692C402.818,811.334 374.163,777.866 383.857,746.063Z" style="fill:url(#_Linear32);"/><path d="M228.622,906.932C214.457,874.046 192.151,827.26 243.548,786.957C280.609,757.896 314.005,753.852 339.386,799.737C365.119,846.256 353.665,867.127 310.216,885.767C306.817,887.225 286.873,885.792 278.248,891.528C256.908,905.72 238.71,930.353 228.622,906.932Z" style="fill:url(#_Linear33);"/><path d="M301.012,806.889C309.457,811.158 309.014,829.065 300.023,846.853C291.032,864.641 276.876,875.617 268.431,871.348C259.986,867.08 260.429,849.172 269.42,831.385C278.411,813.597 292.567,802.621 301.012,806.889Z" style="fill:#bfa179;"/><path d="M234.012,643.058C216.241,624.854 290.714,597.085 294.642,549.585C294.642,549.585 312.602,568.818 300.399,591.697C300.399,591.697 346.249,553.823 418.637,593.146C385.98,595.641 339.316,595.799 360.483,611.964C387.8,632.825 391.858,681.409 391.858,681.409C391.858,681.409 218.776,685.237 234.012,643.058Z" style="fill:#e0caae;"/><path d="M409.47,579.547C436.16,567.457 455.141,594.621 460.79,623.372C466.439,652.122 449.129,669.18 420.379,674.829C391.628,680.478 370.199,671.719 378.163,643.522C387.68,609.826 383.671,591.234 409.47,579.547Z" style="fill:url(#_Linear34);"/><path d="M419.142,612.518C425.823,593.789 445.11,616.018 448.334,632.429C451.558,648.839 437.645,659.368 415.406,663.738C393.167,668.107 412.854,630.148 419.142,612.518Z" style="fill:#bfa179;"/><path d="M303.29,602.859C362.741,591.179 425.013,633.083 433.354,714.734C441.202,791.55 412.01,800.134 349.163,822.855C268.674,851.953 229.102,801.49 216.735,731.742C206.157,672.085 243.838,614.54 303.29,602.859Z" style="fill:url(#_Linear35);"/><path d="M187.559,741.438C186.507,728.357 190.748,717.327 197.023,716.823C203.299,716.318 209.247,726.528 210.299,739.609C211.351,752.691 207.11,763.72 200.835,764.225C194.56,764.73 188.611,754.519 187.559,741.438Z" style="fill:none;stroke:#907400;stroke-width:6.58px;"/><path d="M162.421,725.06C166.421,716.734 174.169,712.136 179.713,714.799C185.258,717.463 186.511,726.385 182.511,734.712C178.511,743.038 170.762,747.636 165.218,744.973C159.674,742.309 158.421,733.387 162.421,725.06Z" style="fill:none;stroke:#907400;stroke-width:6.58px;"/><path d="M180.799,617.014C221.479,616.511 243.574,644.914 245.985,664.552C247.283,675.133 233.21,704.247 230.946,718.145C227.268,740.717 223.728,744.347 203.154,748.389C167.706,755.354 145.885,727.352 138.92,691.904C131.955,656.455 144.676,617.46 180.799,617.014Z" style="fill:url(#_Linear36);"/><path d="M372.096,780.944C372.833,789.625 370.714,795.639 362.384,798.811C351.95,802.785 331.302,796.254 331.643,785.992" style="fill:none;stroke:#450053;stroke-width:3.71px;"/><path d="M283.389,738.262C283.389,738.262 286.599,746.355 297.929,747.457C318.96,749.503 322.72,734.27 322.72,734.27" style="fill:none;stroke:#450053;stroke-width:4.17px;"/><path d="M284.171,736.009C284.171,736.009 287.413,742.332 298.049,743.516C317.788,745.714 320.856,734.101 320.856,734.101" style="fill:none;stroke:#450053;stroke-width:4.17px;"/><path d="M394.614,726.607C394.614,726.607 397.682,729.663 406.253,728.464C417.448,726.898 416.569,715.466 416.569,715.466" style="fill:none;stroke:#450053;stroke-width:4.17px;"/><path d="M392.842,724.17C392.842,724.17 395.729,726.506 403.793,725.589C414.326,724.392 413.499,715.653 413.499,715.653" style="fill:none;stroke:#450053;stroke-width:4.17px;"/><path d="M392.302,781.281C394.112,786.074 391.251,791.536 385.253,794.08C379.254,796.625 373.83,793.577 372.02,788.784" style="fill:none;stroke:#450053;stroke-width:3.71px;"/><path d="M371.17,759.61C380.687,757.773 390.113,749.586 390.996,756.935C391.878,764.284 381.485,777.729 371.968,779.565C362.452,781.402 348.928,772.799 348.045,765.45C347.162,758.101 361.654,761.446 371.17,759.61Z" style="fill:#450053;"/><path d="M184.645,657.23C218.588,673.802 238.95,673.851 221.785,700.516C214.938,711.152 225.891,719.197 203.97,723.504C182.048,727.811 170.192,715.869 166.456,696.853C162.719,677.836 164.651,647.468 184.645,657.23Z" style="fill:#bfa179;"/><path d="M197.023,716.823C203.299,716.318 209.247,726.528 210.299,739.609C211.351,752.691 207.11,763.72 200.835,764.225" style="fill:none;stroke:#b39100;stroke-width:6.58px;"/><path d="M179.713,714.799C185.258,717.463 186.511,726.385 182.511,734.712C178.511,743.038 170.762,747.636 165.218,744.973" style="fill:none;stroke:#b39100;stroke-width:6.58px;"/><path d="M305.522,618.171C313.875,608.596 333.219,586.923 373.607,594.934C410.475,602.247 431.263,641.671 431.263,641.671C431.263,641.671 405.763,612.601 360.584,629.541C367.108,630.88 421.504,637.77 409.326,696.214C394.376,684.001 380.43,650.24 328.512,653.902C331.494,649.214 346.971,641.099 366.852,642.449C351.266,637.833 330.112,638.844 317.5,645.653C318.831,638.053 324.166,632.292 332.26,627.8C324.93,625.045 295.515,633.881 280.918,643.084C281.747,634.182 281.444,629.457 289.051,620.374C272.305,623.108 270.508,622.194 257.095,625.536C264.66,609.695 279.768,601.043 294.737,601.76C288.913,606.336 280.027,605.179 277.517,616.339C287.166,608.259 298.269,605.287 307.492,605.288C301.362,612.998 305.272,610.87 305.522,618.171Z" style="fill:#e0caae;"/><path d="M327.071,666.404C327.071,666.404 347.614,687.576 376.752,693.445C360.969,696.497 349.586,701.751 339.598,699.528C315.093,694.075 313.236,680.239 313.236,680.239C323.187,689.369 331.028,690.055 338.181,687.995C338.181,687.995 327.281,681.287 327.071,666.404Z" style="fill:#e0caae;"/><ellipse cx="455.337" cy="794.22" rx="29.366" ry="41.524" style="fill:#bfa179;"/><path d="M223.664,917.128C245.397,916.323 244.798,882.512 281.019,848.706C317.24,814.9 363.719,791.562 447.429,800.416C531.14,809.27 535.018,745.334 579.3,754.089C621.452,762.423 627.718,800.61 659.877,829.71C697.377,863.642 731.384,866.009 705.554,917.184C681.36,965.118 426.501,1034.64 426.501,1034.64C426.501,1034.64 201.932,917.933 223.664,917.128Z" style="fill:url(#_Radial37);"/><clipPath id="_clip38"><path d="M223.664,917.128C245.397,916.323 244.798,882.512 281.019,848.706C317.24,814.9 363.719,791.562 447.429,800.416C531.14,809.27 535.018,745.334 579.3,754.089C621.452,762.423 627.718,800.61 659.877,829.71C697.377,863.642 731.384,866.009 705.554,917.184C681.36,965.118 426.501,1034.64 426.501,1034.64C426.501,1034.64 201.932,917.933 223.664,917.128Z"/></clipPath><g clip-path="url(#_clip38)"><path d="M660.893,863.048C660.708,855.287 666.788,852.111 671.441,853.609C676.093,855.108 679.318,861.28 679.502,869.042C679.793,874.783 676.739,882.271 673.792,887.74C667.619,887.036 659.728,885.265 655.182,881.747C648.917,877.162 645.692,870.989 647.12,866.315C648.548,861.64 654.628,858.464 660.893,863.048Z" style="fill:#d12026;"/><path d="M595.955,852.819C595.77,845.058 601.85,841.881 606.503,843.38C611.155,844.878 614.38,851.051 614.564,858.812C614.855,864.553 611.801,872.041 608.853,877.51C602.681,876.806 594.79,875.035 590.244,871.517C583.979,866.932 580.754,860.759 582.182,856.085C583.61,851.41 589.69,848.234 595.955,852.819Z" style="fill:#d12026;"/><path d="M605.959,799.379C605.774,791.618 611.854,788.442 616.507,789.94C621.159,791.438 624.384,797.611 624.568,805.372C624.859,811.114 621.805,818.602 618.858,824.071C612.685,823.367 604.794,821.596 600.248,818.078C593.983,813.493 590.758,807.32 592.186,802.646C593.614,797.971 599.694,794.795 605.959,799.379Z" style="fill:#d12026;"/><path d="M553.044,771.97C552.859,764.209 558.939,761.033 563.592,762.531C568.245,764.029 571.469,770.202 571.654,777.963C571.944,783.705 568.891,791.193 565.943,796.662C559.77,795.958 551.88,794.187 547.333,790.669C541.068,786.084 537.843,779.911 539.271,775.236C540.699,770.562 546.779,767.386 553.044,771.97Z" style="fill:#d12026;"/><path d="M610.247,907.11C610.062,899.349 616.142,896.173 620.795,897.671C625.447,899.169 628.672,905.342 628.857,913.103C629.147,918.844 626.094,926.333 623.146,931.801C616.973,931.097 609.083,929.326 604.536,925.808C598.271,921.223 595.046,915.051 596.474,910.376C597.902,905.701 603.982,902.525 610.247,907.11Z" style="fill:#d12026;"/><path d="M534.474,884.606C534.289,876.845 540.369,873.668 545.022,875.166C549.674,876.665 552.899,882.838 553.083,890.599C553.374,896.34 550.32,903.828 547.372,909.297C541.2,908.593 533.309,906.822 528.763,903.304C522.498,898.719 519.273,892.546 520.701,887.872C522.129,883.197 528.209,880.021 534.474,884.606Z" style="fill:#d12026;"/><path d="M534.546,828.511C534.361,820.75 540.441,817.573 545.094,819.072C549.746,820.57 552.971,826.743 553.156,834.504C553.446,840.245 550.392,847.734 547.445,853.202C541.272,852.498 533.381,850.727 528.835,847.209C522.57,842.624 519.345,836.452 520.773,831.777C522.201,827.102 528.281,823.926 534.546,828.511Z" style="fill:#d12026;"/><path d="M478.215,782.045C478.03,774.284 484.11,771.108 488.763,772.606C493.415,774.104 496.64,780.277 496.825,788.038C497.115,793.779 494.061,801.268 491.114,806.736C484.941,806.032 477.05,804.261 472.504,800.743C466.239,796.159 463.014,789.986 464.442,785.311C465.87,780.637 471.95,777.46 478.215,782.045Z" style="fill:#d12026;"/><path d="M509.5,942.346C509.315,934.585 515.395,931.409 520.048,932.907C524.7,934.405 527.925,940.578 528.11,948.339C528.4,954.081 525.346,961.569 522.399,967.038C516.226,966.333 508.335,964.562 503.789,961.044C497.524,956.46 494.299,950.287 495.727,945.612C497.155,940.938 503.235,937.761 509.5,942.346Z" style="fill:#d12026;"/><path d="M439.532,906.631C439.348,898.87 445.428,895.694 450.081,897.192C454.733,898.69 457.958,904.863 458.142,912.624C458.433,918.365 455.379,925.854 452.431,931.322C446.259,930.618 438.368,928.847 433.822,925.329C427.557,920.745 424.332,914.572 425.76,909.897C427.187,905.223 433.268,902.046 439.532,906.631Z" style="fill:#d12026;"/><path d="M467.752,843.688C467.568,835.927 473.648,832.75 478.3,834.249C482.953,835.747 486.178,841.92 486.362,849.681C486.653,855.422 483.599,862.91 480.651,868.379C474.479,867.675 466.588,865.904 462.041,862.386C455.777,857.801 452.552,851.628 453.98,846.954C455.407,842.279 461.488,839.103 467.752,843.688Z" style="fill:#d12026;"/><path d="M389.2,829.436C389.016,821.675 395.096,818.499 399.748,819.997C404.401,821.495 407.626,827.668 407.81,835.429C408.101,841.171 405.047,848.659 402.099,854.128C395.927,853.424 388.036,851.653 383.489,848.135C377.225,843.55 374,837.377 375.428,832.702C376.855,828.028 382.936,824.852 389.2,829.436Z" style="fill:#d12026;"/><path d="M435.517,962.449C435.333,954.688 441.413,951.511 446.065,953.01C450.718,954.508 453.943,960.681 454.127,968.442C454.418,974.183 451.364,981.672 448.416,987.14C442.244,986.436 434.353,984.665 429.806,981.147C423.541,976.562 420.317,970.39 421.744,965.715C423.172,961.04 429.252,957.864 435.517,962.449Z" style="fill:#d12026;"/><path d="M361.207,943.73C361.022,935.969 367.102,932.792 371.755,934.291C376.407,935.789 379.632,941.962 379.817,949.723C380.107,955.464 377.053,962.953 374.106,968.421C367.933,967.717 360.042,965.946 355.496,962.428C349.231,957.843 346.006,951.671 347.434,946.996C348.862,942.321 354.942,939.145 361.207,943.73Z" style="fill:#d12026;"/><path d="M376.985,887.12C376.8,879.359 382.881,876.183 387.533,877.681C392.186,879.179 395.41,885.352 395.595,893.113C395.885,898.855 392.832,906.343 389.884,911.812C383.711,911.108 375.821,909.337 371.274,905.819C365.009,901.234 361.785,895.061 363.212,890.386C364.64,885.712 370.72,882.536 376.985,887.12Z" style="fill:#d12026;"/><path d="M291.703,916.302C291.519,908.541 297.599,905.364 302.251,906.863C306.904,908.361 310.129,914.534 310.313,922.295C310.603,928.036 307.55,935.524 304.602,940.993C298.43,940.289 290.539,938.518 285.992,935C279.727,930.415 276.503,924.242 277.93,919.568C279.358,914.893 285.438,911.717 291.703,916.302Z" style="fill:#d12026;"/><path d="M316.756,854.998C316.571,847.237 322.652,844.061 327.304,845.559C331.957,847.057 335.181,853.23 335.366,860.991C335.656,866.733 332.603,874.221 329.655,879.69C323.483,878.986 315.592,877.215 311.045,873.697C304.78,869.112 301.556,862.939 302.983,858.264C304.411,853.59 310.491,850.414 316.756,854.998Z" style="fill:#d12026;"/><path d="M538.16,889.354L530.87,886.743L523.373,890.435L524.065,884.971L515.74,883.517L525.933,878.191L528.352,872.366L534.606,873.184L544.315,867.019L541.412,874.956L546.49,877.089L539.544,881.735L538.16,889.354Z" style="fill:#3d683a;"/><path d="M598.182,855.592L590.892,852.981L583.394,856.673L584.086,851.209L575.762,849.755L585.955,844.429L588.373,838.604L594.628,839.422L604.336,833.257L601.433,841.194L606.512,843.327L599.565,847.973L598.182,855.592Z" style="fill:#3d683a;"/><path d="M607.56,802.136L600.27,799.524L592.773,803.217L593.465,797.752L585.14,796.298L595.333,790.973L597.752,785.147L604.006,785.965L613.715,779.8L610.811,787.737L615.89,789.87L608.943,794.517L607.56,802.136Z" style="fill:#3d683a;"/><path d="M554.103,774.938L546.813,772.327L539.316,776.02L540.008,770.555L531.683,769.101L541.876,763.776L544.295,757.95L550.55,758.768L560.258,752.603L557.355,760.54L562.433,762.673L555.487,767.319L554.103,774.938Z" style="fill:#3d683a;"/><path d="M391.67,831.584L384.38,828.972L376.883,832.665L377.575,827.2L369.25,825.746L379.443,820.421L381.862,814.595L388.116,815.413L397.825,809.248L394.922,817.185L400,819.318L393.054,823.965L391.67,831.584Z" style="fill:#3d683a;"/><path d="M378.353,889.917L371.063,887.305L363.566,890.998L364.258,885.534L355.933,884.079L366.126,878.754L368.545,872.929L374.799,873.747L384.508,867.582L381.604,875.519L386.683,877.651L379.736,882.298L378.353,889.917Z" style="fill:#3d683a;"/><path d="M363.91,945.812L356.62,943.201L349.123,946.893L349.815,941.429L341.49,939.974L351.683,934.649L354.102,928.824L360.357,929.642L370.065,923.477L367.162,931.414L372.24,933.546L365.294,938.193L363.91,945.812Z" style="fill:#3d683a;"/><path d="M437.624,964.194L430.334,961.582L422.837,965.275L423.529,959.81L415.204,958.356L425.397,953.031L427.816,947.205L434.07,948.023L443.779,941.858L440.876,949.795L445.954,951.928L439.008,956.575L437.624,964.194Z" style="fill:#3d683a;"/><path d="M442.126,910.549L434.836,907.938L427.338,911.631L428.031,906.166L419.706,904.712L429.899,899.387L432.318,893.561L438.572,894.379L448.28,888.214L445.377,896.151L450.456,898.284L443.509,902.93L442.126,910.549Z" style="fill:#3d683a;"/><path d="M510.963,944.499L503.673,941.888L496.176,945.58L496.868,940.116L488.543,938.661L498.736,933.336L501.155,927.511L507.409,928.329L517.117,922.164L514.214,930.101L519.293,932.233L512.346,936.88L510.963,944.499Z" style="fill:#3d683a;"/><path d="M612.812,910.549L605.522,907.938L598.024,911.631L598.717,906.166L590.392,904.712L600.585,899.387L603.004,893.561L609.258,894.379L618.966,888.214L616.063,896.151L621.142,898.284L614.195,902.93L612.812,910.549Z" style="fill:#3d683a;"/><path d="M663.83,867.784L656.54,865.173L649.043,868.865L649.735,863.401L641.41,861.947L651.603,856.621L654.022,850.796L660.276,851.614L669.985,845.449L667.082,853.386L672.16,855.518L665.213,860.165L663.83,867.784Z" style="fill:#3d683a;"/></g><path d="M398.447,1281.43L210.098,1057.67L176.292,792.85C228.533,900.504 301.936,977.104 403.893,1009.75C420.958,1113.44 415.186,1200.64 398.447,1281.43Z" style="fill:#bb8d66;"/><path d="M403.964,1009.7C542.547,979.706 663.811,916.312 790.044,849.267L729.953,1084.55L398.33,1281.75L403.964,1009.7Z" style="fill:url(#_Linear39);"/><path d="M796.973,812.665C767.996,798.981 773.305,854.72 789.922,851.804L923.131,850.336L923.103,848.66C923.103,848.66 823.684,825.279 796.973,812.665Z" style="fill:#bb8d66;"/><path d="M598.752,596.774C564.346,623.82 527.695,651.448 517.428,672.236C525.6,682.923 773.305,853.095 789.922,850.179L923.131,848.711C923.131,848.711 795.955,738.438 766.979,724.755C738.002,711.071 598.752,596.774 598.752,596.774Z" style="fill:url(#_Linear40);"/><path d="M466.116,728.181C499.286,725.912 532.692,741.027 542.499,777.743C555.817,827.605 535.693,848.359 499.687,858.214C467.508,867.021 418.994,845.114 432.093,794.463C440.549,761.769 453.23,752.654 453.23,752.654C453.23,752.654 441.559,729.861 466.116,728.181Z" style="fill:url(#_Linear41);"/><path d="M537.112,813.645C538.221,833.49 517.041,850.836 489.843,852.356C462.645,853.877 439.664,838.999 438.554,819.154C437.445,799.309 458.625,781.963 485.823,780.443C513.02,778.922 536.002,793.8 537.112,813.645Z" style="fill:url(#_Linear42);"/><path d="M248.396,888.581C267.039,912.144 261.948,947.033 349.146,909.164C391.926,890.586 395.362,861.261 372.24,823.722C348.797,785.664 326.452,787.682 289.411,817.063C286.513,819.362 235.119,871.801 248.396,888.581Z" style="fill:url(#_Linear43);"/><path d="M372.126,880.663C382.01,875.724 381.268,854.172 370.471,832.565C359.674,810.958 342.884,797.426 333,802.365C323.116,807.305 323.858,828.856 334.655,850.463C345.453,872.07 362.243,885.602 372.126,880.663Z" style="fill:url(#_Linear44);"/><path d="M792.741,887.305L404.003,1009.6L403.856,1011.27C403.856,1011.27 435.395,1020.42 479.184,1043.93C522.973,1067.45 566.365,1114.72 566.365,1114.72L923.412,959.825L923.538,957.048L792.741,887.305Z" style="fill:#bb8d66;"/><path d="M790.844,849.491L403.964,1009.69C403.964,1009.69 436.555,1018.31 480.02,1041.65C523.485,1064.99 566.556,1111.92 566.556,1111.92L923.394,957.094C923.394,957.094 891.197,929.727 872.684,905.58C854.172,881.432 790.844,849.491 790.844,849.491Z" style="fill:url(#_Linear45);"/><path d="M266.669,1166.19L274.7,1175.91C274.7,1175.91 275.297,1175.9 276.311,1176.09C309.278,1100.53 360.8,1046.29 404.03,1010.5L403.713,1009.67C348.476,1051.68 303.101,1115.5 266.669,1166.19Z" style="fill:#bb8d66;"/><path d="M172.295,791.562L33.705,907.469C33.705,907.469 90.881,941.644 140.836,1011.03C181.171,1067.05 239.416,1160.2 274.636,1176.05C307.603,1100.49 360.734,1045.48 403.964,1009.69C403.964,1009.69 346.815,972.667 322.668,958.179C298.521,943.69 172.295,791.562 172.295,791.562Z" style="fill:url(#_Linear46);"/></g><defs><linearGradient id="_Linear2" x1="0" y1="0" x2="1" y2="0" gradientUnits="userSpaceOnUse" gradientTransform="matrix(57.1635,-4.44089e-16,-2.22045e-15,57.1635,591.331,481.234)"><stop offset="0" style="stop-color:#16417c;stop-opacity:1"/><stop offset="1" style="stop-color:#3993a0;stop-opacity:1"/></linearGradient><linearGradient id="_Linear3" x1="0" y1="0" x2="1" y2="0" gradientUnits="userSpaceOnUse" gradientTransform="matrix(57.1635,-4.44089e-16,-2.22045e-15,57.1635,591.331,480.378)"><stop offset="0" style="stop-color:#16417c;stop-opacity:1"/><stop offset="1" style="stop-color:#3993a0;stop-opacity:1"/></linearGradient><linearGradient id="_Linear4" x1="0" y1="0" x2="1" y2="0" gradientUnits="userSpaceOnUse" gradientTransform="matrix(57.1635,-4.44089e-16,-2.22045e-15,57.1635,591.331,479.521)"><stop offset="0" style="stop-color:#16417c;stop-opacity:1"/><stop offset="1" style="stop-color:#3993a0;stop-opacity:1"/></linearGradient><linearGradient id="_Linear5" x1="0" y1="0" x2="1" y2="0" gradientUnits="userSpaceOnUse" gradientTransform="matrix(57.1635,-4.44089e-16,-2.22045e-15,57.1635,591.331,478.665)"><stop offset="0" style="stop-color:#16417c;stop-opacity:1"/><stop offset="1" style="stop-color:#3993a0;stop-opacity:1"/></linearGradient><linearGradient id="_Linear6" x1="0" y1="0" x2="1" y2="0" gradientUnits="userSpaceOnUse" gradientTransform="matrix(57.1635,-4.44089e-16,-2.22045e-15,57.1635,591.331,480.806)"><stop offset="0" style="stop-color:#16417c;stop-opacity:1"/><stop offset="1" style="stop-color:#3993a0;stop-opacity:1"/></linearGradient><linearGradient id="_Linear7" x1="0" y1="0" x2="1" y2="0" gradientUnits="userSpaceOnUse" gradientTransform="matrix(57.1635,-4.44089e-16,-2.22045e-15,57.1635,591.331,479.95)"><stop offset="0" style="stop-color:#16417c;stop-opacity:1"/><stop offset="1" style="stop-color:#3993a0;stop-opacity:1"/></linearGradient><linearGradient id="_Linear8" x1="0" y1="0" x2="1" y2="0" gradientUnits="userSpaceOnUse" gradientTransform="matrix(57.1635,-4.44089e-16,-2.22045e-15,57.1635,591.331,479.093)"><stop offset="0" style="stop-color:#16417c;stop-opacity:1"/><stop offset="1" style="stop-color:#3993a0;stop-opacity:1"/></linearGradient><linearGradient id="_Linear9" x1="0" y1="0" x2="1" y2="0" gradientUnits="userSpaceOnUse" gradientTransform="matrix(57.1635,-4.44089e-16,-2.22045e-15,57.1635,591.331,478.237)"><stop offset="0" style="stop-color:#16417c;stop-opacity:1"/><stop offset="1" style="stop-color:#3993a0;stop-opacity:1"/></linearGradient><linearGradient id="_Linear11" x1="0" y1="0" x2="1" y2="0" gradientUnits="userSpaceOnUse" gradientTransform="matrix(104.683,150.186,-150.186,104.683,553.328,277.616)"><stop offset="0" style="stop-color:#c7c4cb;stop-opacity:1"/><stop offset="1" style="stop-color:#a19ca7;stop-opacity:1"/></linearGradient><linearGradient id="_Linear12" x1="0" y1="0" x2="1" y2="0" gradientUnits="userSpaceOnUse" gradientTransform="matrix(43.7632,0,-2.22045e-15,50.101,576.004,282.926)"><stop offset="0" style="stop-color:#16417c;stop-opacity:1"/><stop offset="1" style="stop-color:#3993a0;stop-opacity:1"/></linearGradient><linearGradient id="_Linear13" x1="0" y1="0" x2="1" y2="0" gradientUnits="userSpaceOnUse" gradientTransform="matrix(43.7632,0,-2.22045e-15,50.101,576.004,282.176)"><stop offset="0" style="stop-color:#16417c;stop-opacity:1"/><stop offset="1" style="stop-color:#3993a0;stop-opacity:1"/></linearGradient><linearGradient id="_Linear14" x1="0" y1="0" x2="1" y2="0" gradientUnits="userSpaceOnUse" gradientTransform="matrix(43.7632,0,-2.22045e-15,50.101,576.004,281.426)"><stop offset="0" style="stop-color:#16417c;stop-opacity:1"/><stop offset="1" style="stop-color:#3993a0;stop-opacity:1"/></linearGradient><linearGradient id="_Linear15" x1="0" y1="0" x2="1" y2="0" gradientUnits="userSpaceOnUse" gradientTransform="matrix(43.7632,0,-2.22045e-15,50.101,576.004,280.675)"><stop offset="0" style="stop-color:#16417c;stop-opacity:1"/><stop offset="1" style="stop-color:#3993a0;stop-opacity:1"/></linearGradient><linearGradient id="_Linear16" x1="0" y1="0" x2="1" y2="0" gradientUnits="userSpaceOnUse" gradientTransform="matrix(43.7632,0,-2.22045e-15,50.101,576.004,282.551)"><stop offset="0" style="stop-color:#16417c;stop-opacity:1"/><stop offset="1" style="stop-color:#3993a0;stop-opacity:1"/></linearGradient><linearGradient id="_Linear17" x1="0" y1="0" x2="1" y2="0" gradientUnits="userSpaceOnUse" gradientTransform="matrix(43.7632,0,-2.22045e-15,50.101,576.004,281.801)"><stop offset="0" style="stop-color:#16417c;stop-opacity:1"/><stop offset="1" style="stop-color:#3993a0;stop-opacity:1"/></linearGradient><linearGradient id="_Linear18" x1="0" y1="0" x2="1" y2="0" gradientUnits="userSpaceOnUse" gradientTransform="matrix(43.7632,0,-2.22045e-15,50.101,576.004,281.05)"><stop offset="0" style="stop-color:#16417c;stop-opacity:1"/><stop offset="1" style="stop-color:#3993a0;stop-opacity:1"/></linearGradient><linearGradient id="_Linear19" x1="0" y1="0" x2="1" y2="0" gradientUnits="userSpaceOnUse" gradientTransform="matrix(43.7632,0,-2.22045e-15,50.101,576.004,280.3)"><stop offset="0" style="stop-color:#16417c;stop-opacity:1"/><stop offset="1" style="stop-color:#3993a0;stop-opacity:1"/></linearGradient><linearGradient id="_Linear20" x1="0" y1="0" x2="1" y2="0" gradientUnits="userSpaceOnUse" gradientTransform="matrix(3.09922e-15,-62.4242,50.6142,3.82238e-15,546.008,212.392)"><stop offset="0" style="stop-color:#a19ca7;stop-opacity:1"/><stop offset="1" style="stop-color:#c7c4cb;stop-opacity:1"/></linearGradient><linearGradient id="_Linear23" x1="0" y1="0" x2="1" y2="0" gradientUnits="userSpaceOnUse" gradientTransform="matrix(2.86681,-35.7812,35.7812,2.86681,760.22,219.233)"><stop offset="0" style="stop-color:#907400;stop-opacity:1"/><stop offset="1" style="stop-color:#b39100;stop-opacity:1"/></linearGradient><radialGradient id="_Radial28" cx="0" cy="0" r="1" gradientUnits="userSpaceOnUse" gradientTransform="matrix(252.497,170.548,-170.548,252.497,434.203,603.009)"><stop offset="0" style="stop-color:#e6bc83;stop-opacity:1"/><stop offset="1" style="stop-color:#bb8d66;stop-opacity:1"/></radialGradient><linearGradient id="_Linear29" x1="0" y1="0" x2="1" y2="0" gradientUnits="userSpaceOnUse" gradientTransform="matrix(337.216,-108.132,108.132,337.216,136.347,753.815)"><stop offset="0" style="stop-color:#e6bc83;stop-opacity:1"/><stop offset="0.5" style="stop-color:#bb8d66;stop-opacity:1"/><stop offset="1" style="stop-color:#e6bc83;stop-opacity:1"/></linearGradient><radialGradient id="_Radial30" cx="0" cy="0" r="1" gradientUnits="userSpaceOnUse" gradientTransform="matrix(-266.306,14.3317,-14.3317,-266.306,399.474,812.13)"><stop offset="0" style="stop-color:#f4a0a2;stop-opacity:1"/><stop offset="0.4" style="stop-color:#f07a7e;stop-opacity:1"/><stop offset="1" style="stop-color:#d12026;stop-opacity:1"/></radialGradient><linearGradient id="_Linear32" x1="0" y1="0" x2="1" y2="0.0688462" gradientUnits="userSpaceOnUse" gradientTransform="matrix(-47.3694,49.3247,-92.6434,-121.584,467.311,719.985)"><stop offset="0" style="stop-color:#e0caae;stop-opacity:1"/><stop offset="0.43" style="stop-color:#d6bd9e;stop-opacity:1"/><stop offset="1" style="stop-color:#bfa179;stop-opacity:1"/></linearGradient><linearGradient id="_Linear33" x1="0" y1="0" x2="1" y2="0.163256" gradientUnits="userSpaceOnUse" gradientTransform="matrix(-63.398,149.099,-141.46,-91.16,280.325,764.781)"><stop offset="0" style="stop-color:#bfa179;stop-opacity:1"/><stop offset="1" style="stop-color:#e0caae;stop-opacity:1"/></linearGradient><linearGradient id="_Linear34" x1="0" y1="0" x2="1" y2="0" gradientUnits="userSpaceOnUse" gradientTransform="matrix(-72.5607,296.5,-296.5,-72.5607,435.45,493.098)"><stop offset="0" style="stop-color:#e0caae;stop-opacity:1"/><stop offset="1" style="stop-color:#bfa179;stop-opacity:1"/></linearGradient><linearGradient id="_Linear35" x1="0" y1="0" x2="1" y2="0" gradientUnits="userSpaceOnUse" gradientTransform="matrix(217.676,51.1261,-51.1261,217.676,315.719,660.663)"><stop offset="0" style="stop-color:#e0caae;stop-opacity:1"/><stop offset="1" style="stop-color:#bfa179;stop-opacity:1"/></linearGradient><linearGradient id="_Linear36" x1="0" y1="0" x2="1" y2="0" gradientUnits="userSpaceOnUse" gradientTransform="matrix(314.936,205.068,-205.068,314.936,323.793,803.856)"><stop offset="0" style="stop-color:#e0caae;stop-opacity:1"/><stop offset="1" style="stop-color:#bfa179;stop-opacity:1"/></linearGradient><radialGradient id="_Radial37" cx="0" cy="0" r="1" gradientUnits="userSpaceOnUse" gradientTransform="matrix(-313.931,13.4158,-13.4158,-313.931,498.057,882.926)"><stop offset="0" style="stop-color:#f4a0a2;stop-opacity:1"/><stop offset="0.61" style="stop-color:#f07a7e;stop-opacity:1"/><stop offset="1" style="stop-color:#d12026;stop-opacity:1"/></radialGradient><linearGradient id="_Linear39" x1="0" y1="0" x2="1" y2="0" gradientUnits="userSpaceOnUse" gradientTransform="matrix(250.538,110.899,-110.899,250.538,346.202,985.74)"><stop offset="0" style="stop-color:#e6bc83;stop-opacity:1"/><stop offset="1" style="stop-color:#bb8d66;stop-opacity:1"/></linearGradient><linearGradient id="_Linear40" x1="0" y1="0" x2="1" y2="0" gradientUnits="userSpaceOnUse" gradientTransform="matrix(218.171,99.433,-99.433,218.171,596.74,693.417)"><stop offset="0" style="stop-color:#e6bc83;stop-opacity:1"/><stop offset="0.65" style="stop-color:#cea272;stop-opacity:1"/><stop offset="1" style="stop-color:#e6bc83;stop-opacity:1"/></linearGradient><linearGradient id="_Linear41" x1="0" y1="0" x2="1" y2="0" gradientUnits="userSpaceOnUse" gradientTransform="matrix(-36.4556,76.2573,-76.2573,-36.4556,521.359,740.085)"><stop offset="0" style="stop-color:#e0caae;stop-opacity:1"/><stop offset="0.43" style="stop-color:#d6bd9e;stop-opacity:1"/><stop offset="1" style="stop-color:#bfa179;stop-opacity:1"/></linearGradient><linearGradient id="_Linear42" x1="0" y1="0" x2="1" y2="-0.30239" gradientUnits="userSpaceOnUse" gradientTransform="matrix(-188.926,159.065,-210.934,-132.549,374.729,877.521)"><stop offset="0" style="stop-color:#e0caae;stop-opacity:1"/><stop offset="1" style="stop-color:#bfa179;stop-opacity:1"/></linearGradient><linearGradient id="_Linear43" x1="0" y1="0" x2="1" y2="0" gradientUnits="userSpaceOnUse" gradientTransform="matrix(-150.155,-0.879028,-0.879028,150.155,369.425,885.299)"><stop offset="0" style="stop-color:#bfa179;stop-opacity:1"/><stop offset="1" style="stop-color:#e0caae;stop-opacity:1"/></linearGradient><linearGradient id="_Linear44" x1="0" y1="0" x2="1" y2="-0.641729" gradientUnits="userSpaceOnUse" gradientTransform="matrix(-4.55698,-193.507,-152.208,-125.371,333.657,735.639)"><stop offset="0" style="stop-color:#e0caae;stop-opacity:1"/><stop offset="1" style="stop-color:#bfa179;stop-opacity:1"/></linearGradient><linearGradient id="_Linear45" x1="0" y1="0" x2="1" y2="0" gradientUnits="userSpaceOnUse" gradientTransform="matrix(139.457,135.269,-135.269,139.457,414.233,901.872)"><stop offset="0" style="stop-color:#bb8d66;stop-opacity:1"/><stop offset="1" style="stop-color:#e6bc83;stop-opacity:1"/></linearGradient><linearGradient id="_Linear46" x1="0" y1="0" x2="1" y2="0" gradientUnits="userSpaceOnUse" gradientTransform="matrix(-128.326,203.038,-203.038,-128.326,347.161,740.977)"><stop offset="0" style="stop-color:#bb8d66;stop-opacity:1"/><stop offset="1" style="stop-color:#e6bc83;stop-opacity:1"/></linearGradient></defs></svg>