<?xml version="1.0" encoding="UTF-8" standalone="no"?><!DOCTYPE svg PUBLIC "-//W3C//DTD SVG 1.1//EN" "http://www.w3.org/Graphics/SVG/1.1/DTD/svg11.dtd"><svg width="100%" height="100%" viewBox="0 0 1500 1150" version="1.1" xmlns="http://www.w3.org/2000/svg" xmlns:xlink="http://www.w3.org/1999/xlink" xml:space="preserve" xmlns:serif="http://www.serif.com/" style="fill-rule:evenodd;clip-rule:evenodd;stroke-linecap:round;stroke-linejoin:round;stroke-miterlimit:1.5;"><g><path d="M143.095,565.264C127.664,579.715 109.715,590.507 116.141,646.842C129.134,760.757 340.785,789.734 313.354,683.365C289.856,592.246 180.337,718.236 179.27,592.041C178.71,525.804 162.021,547.539 143.095,565.264Z" style="fill:url(#_Linear1);"/><clipPath id="_clip2"><path d="M143.095,565.264C127.664,579.715 109.715,590.507 116.141,646.842C129.134,760.757 340.785,789.734 313.354,683.365C289.856,592.246 180.337,718.236 179.27,592.041C178.71,525.804 162.021,547.539 143.095,565.264Z"/></clipPath><g clip-path="url(#_clip2)"><path d="M160.556,587.142C175.506,582.465 151.56,537.224 149.32,541.851C144.893,551 152.58,589.637 160.556,587.142Z" style="fill:none;stroke:#fa8839;stroke-width:3.46px;"/><path d="M138.34,593.73C138.615,591.809 139.576,585.082 133.379,569.974C132.838,568.654 126.723,553.746 125.377,554.033C125.045,556.101 123.676,564.64 128.648,580.027C131.366,588.44 131.262,588.707 138.34,593.73Z" style="fill:none;stroke:#fa8839;stroke-width:3.46px;"/><path d="M110.926,579.164C114.321,603.117 123.883,604.105 124.1,598.7C124.263,594.643 116.648,564.716 105.972,565.43" style="fill:none;stroke:#fa8839;stroke-width:3.46px;"/><path d="M297.268,780.07C269.476,804.796 232.521,799.823 204.931,768.812C177.34,737.801 224.002,747.593 251.794,722.867C279.586,698.14 270.043,648.07 297.633,679.081C325.224,710.091 325.06,755.343 297.268,780.07Z" style="fill:#fa8839;"/></g><path d="M358.206,616.604C397.547,623.434 424.27,659.038 417.842,696.063C411.415,733.088 374.256,757.602 334.915,750.773C295.573,743.943 268.85,708.339 275.278,671.314C281.705,634.289 318.864,609.775 358.206,616.604Z" style="fill:#fa8839;"/><path d="M266.887,640.772C275.129,642.178 280.072,653.218 277.918,665.41C275.764,677.602 267.324,686.359 259.081,684.953C250.839,683.547 245.896,672.507 248.05,660.315C250.204,648.123 258.644,639.366 266.887,640.772Z" style="fill:#3d683a;"/><path d="M355.216,725.074C343.832,740.357 306.319,752.531 288.495,740.223C268.204,726.21 207.138,594.868 219.182,548.95C223.731,531.606 289.114,585.772 309.248,587.217C354.394,590.456 353.822,621.832 370.746,639.762C408.93,680.217 378.334,701.377 359.934,719.736C358.142,721.524 356.539,723.298 355.216,725.074Z" style="fill:url(#_Linear3);"/><clipPath id="_clip4"><path d="M355.216,725.074C343.832,740.357 306.319,752.531 288.495,740.223C268.204,726.21 207.138,594.868 219.182,548.95C223.731,531.606 289.114,585.772 309.248,587.217C354.394,590.456 353.822,621.832 370.746,639.762C408.93,680.217 378.334,701.377 359.934,719.736C358.142,721.524 356.539,723.298 355.216,725.074Z"/></clipPath><g clip-path="url(#_clip4)"><path d="M355.092,699.784C356.577,720.399 381.715,705.267 380.21,700.314C379.187,696.948 353.948,683.89 355.092,699.784Z" style="fill:none;stroke:#fa8839;stroke-width:3.16px;"/><path d="M370.467,683.251C375.896,683.201 375.374,672.972 369.418,671.972C363.87,671.04 365.465,683.298 370.467,683.251Z" style="fill:none;stroke:#fa8839;stroke-width:3.16px;"/><path d="M339.638,687.118C353.823,679.208 355.145,682.614 356.105,681.904C357.105,681.164 360.535,669.845 348.154,669.581C338.721,669.379 339.206,684.576 339.638,687.118Z" style="fill:none;stroke:#fa8839;stroke-width:3.16px;"/><path d="M371.711,661.911C374.998,658.059 358.882,644.992 353.03,654.352C348.541,661.532 362.265,672.982 371.711,661.911Z" style="fill:none;stroke:#fa8839;stroke-width:3.16px;"/><path d="M355.865,730.51C360.421,739.407 372.942,720.337 369.273,718.678C369.056,718.58 357.452,716.834 355.344,719.43C353.628,721.544 355.368,729.539 355.865,730.51Z" style="fill:none;stroke:#fa8839;stroke-width:3.16px;"/><path d="M253.599,666.47C255.837,662.838 258.075,659.205 260.313,655.573C267.661,663.913 264.873,665.679 257,671.944C255.866,670.119 254.732,668.295 253.599,666.47Z" style="fill:none;stroke:#fa8839;stroke-width:3.16px;"/><path d="M351.106,712.326C346.722,698.057 345.936,691.922 333.062,697.165C326.136,699.985 333.135,720.755 334.359,726.701C335.208,727.243 342.687,732.019 346.387,728.936C347.425,728.071 339.206,724.914 351.106,712.326Z" style="fill:none;stroke:#fa8839;stroke-width:3.16px;"/><path d="M277.771,696.562C265.985,703.495 262.505,697.107 262.654,682.751C262.765,672.065 268.292,675.133 269.416,676.112C273.725,679.868 277.207,694.831 277.771,696.562Z" style="fill:none;stroke:#fa8839;stroke-width:3.16px;"/></g><path d="M445.022,766.754C455.508,752.63 386.935,741.489 340.631,733.879C301.169,727.393 279.981,706.671 253.781,686.8C246.799,681.504 260.235,730.435 279.729,749.93C309.758,779.961 338.246,783.533 368.352,790.785C408.312,800.411 429.387,787.812 445.022,766.754Z" style="fill:url(#_Linear5);"/><path d="M370.676,726.784C309.817,733.151 307.04,693.155 290.449,681.443C276.85,671.843 271.819,707.825 280.723,730.788C288.158,749.963 326.994,761.736 372.922,761.254C400.64,760.964 393.289,768.035 427.879,783.235C460.135,797.408 475.236,715.847 370.676,726.784Z" style="fill:#357c16;"/><clipPath id="_clip6"><path d="M370.676,726.784C309.817,733.151 307.04,693.155 290.449,681.443C276.85,671.843 271.819,707.825 280.723,730.788C288.158,749.963 326.994,761.736 372.922,761.254C400.64,760.964 393.289,768.035 427.879,783.235C460.135,797.408 475.236,715.847 370.676,726.784Z"/></clipPath><g clip-path="url(#_clip6)"><path d="M394.596,740.029L392.099,750.076" style="fill:none;stroke:#3d683a;stroke-width:3.46px;"/><path d="M391.873,735.983C392.521,736.546 390.415,736.404 389.791,746.405" style="fill:none;stroke:#3d683a;stroke-width:3.46px;"/><path d="M396.968,745.873L394.621,754.29" style="fill:none;stroke:#3d683a;stroke-width:3.46px;"/></g><path d="M573.687,702.415C663.08,689.328 737.616,693.128 743.883,735.934C750.15,778.74 697.387,808.094 607.994,821.182C518.601,834.269 410.6,833.568 404.333,790.762C398.066,747.956 484.294,715.503 573.687,702.415Z" style="fill:#357c16;"/><path d="M439.08,728.344C474.857,734.555 500.443,759.527 496.182,784.076C491.92,808.624 459.414,823.512 423.638,817.302C387.861,811.091 362.275,786.118 366.537,761.57C370.798,737.021 403.304,722.133 439.08,728.344Z" style="fill:#3d683a;"/><path d="M254.587,645.992C254.587,645.992 247.943,667.53 253.97,675.137C260.202,683.002 263.504,669.815 271.454,674.076C281.312,679.361 265.441,700.084 290.19,719.26C296.121,723.856 273.595,724.068 263.478,711.212C231.595,670.698 254.587,645.992 254.587,645.992Z" style="fill:#357c16;"/><path d="M956.868,542.556C964.493,559.995 941.694,633.987 904.62,668.889C851.851,718.567 696.937,705.779 758.397,628.61C827.754,541.524 795.744,602.645 849.336,604.874C926.132,608.067 948.549,523.528 956.868,542.556Z" style="fill:url(#_Linear7);"/><clipPath id="_clip8"><path d="M956.868,542.556C964.493,559.995 941.694,633.987 904.62,668.889C851.851,718.567 696.937,705.779 758.397,628.61C827.754,541.524 795.744,602.645 849.336,604.874C926.132,608.067 948.549,523.528 956.868,542.556Z"/></clipPath><g clip-path="url(#_clip8)"><path d="M855.65,670.079C885.283,685.957 855.748,705.566 847.037,704.941C844.781,704.779 819.486,686.206 855.65,670.079Z" style="fill:none;stroke:#fa8839;stroke-width:3.46px;"/><path d="M889.321,664.969C880.526,660.008 880.13,661.595 870.313,663.344C878.492,682.778 868.126,693.714 879.168,692.22C898.452,689.611 889.686,667.35 889.321,664.969Z" style="fill:none;stroke:#fa8839;stroke-width:3.46px;"/><path d="M898.637,654.883C911.618,648.2 904.103,644.655 903.231,644.808C894.419,646.346 891.318,646.87 893.042,652.801C894.461,657.682 896.723,655.869 898.637,654.883Z" style="fill:none;stroke:#fa8839;stroke-width:3.46px;"/><path d="M946.37,622.143C944.564,622.252 926.437,619.554 918.169,636.314C915.034,642.669 924.815,653.24 934.198,650.299C943.842,647.277 946.125,624.585 946.37,622.143Z" style="fill:none;stroke:#fa8839;stroke-width:3.46px;"/></g><path d="M140.887,878.299C242.776,918.791 268.722,871.105 319.635,870.408C397.437,869.342 400.86,866.403 420.158,846.898C493.592,772.676 497.796,756.395 440.373,742.272C344.171,718.612 421.294,807.399 221.154,809.362C170.9,809.854 111.589,866.655 140.887,878.299Z" style="fill:url(#_Linear9);"/><clipPath id="_clip10"><path d="M140.887,878.299C242.776,918.791 268.722,871.105 319.635,870.408C397.437,869.342 400.86,866.403 420.158,846.898C493.592,772.676 497.796,756.395 440.373,742.272C344.171,718.612 421.294,807.399 221.154,809.362C170.9,809.854 111.589,866.655 140.887,878.299Z"/></clipPath><g clip-path="url(#_clip10)"><path d="M422.959,722.169C458.147,734.235 471.963,768.87 458.498,808.133C445.034,847.397 430.649,801.941 395.461,789.874C360.273,777.807 321.343,810.709 334.807,771.445C348.271,732.182 387.771,710.102 422.959,722.169Z" style="fill:#fa8839;"/><g><path d="M163.559,859.68C154.602,880.695 133.828,882.628 135.523,877.772C141.868,859.598 170.001,844.564 163.559,859.68Z" style="fill:none;stroke:#fa8839;stroke-width:3.46px;"/><path d="M174.497,867.806C199.229,870.569 153.09,897.521 152.195,893.818C151.406,890.556 161.37,866.34 174.497,867.806Z" style="fill:none;stroke:#fa8839;stroke-width:3.46px;"/><path d="M181.866,898.64C181.957,887.585 198.984,865.304 212.454,872.04C214.293,872.96 225.342,879.954 198.831,893.83" style="fill:none;stroke:#fa8839;stroke-width:3.46px;"/><path d="M243.844,881.54C238.034,876.286 225.644,872.968 224.447,878.561C224.101,880.177 219.876,891.077 243.844,881.54Z" style="fill:none;stroke:#fa8839;stroke-width:3.46px;"/><path d="M251.505,876.244C255.031,878.915 265.463,873.802 266.56,873.264C265.415,872.495 254.084,864.89 249.471,871.589L251.505,876.244Z" style="fill:none;stroke:#fa8839;stroke-width:3.46px;"/><path d="M283.437,864.728C282.957,863.531 271.017,868.603 277.063,869.508C281.317,870.146 281.247,870.409 285.304,869.262L283.437,864.728Z" style="fill:none;stroke:#fa8839;stroke-width:3.46px;"/><path d="M318.707,861.657C313.729,864.583 306.446,867.676 294.289,865.895C298.67,863.151 307.276,856.786 318.707,861.657Z" style="fill:none;stroke:#fa8839;stroke-width:3.46px;"/></g></g><path d="M885.212,832.094C966.659,816.785 962.398,766.59 902.333,774.983C883.881,777.562 852.292,777.805 829.826,767.25C953.199,709.335 844.219,623.059 774.643,642.189C679.12,668.455 756.111,670.502 706.082,780.687C685.304,826.447 716.182,863.865 885.212,832.094Z" style="fill:url(#_Linear11);"/><clipPath id="_clip12"><path d="M885.212,832.094C966.659,816.785 962.398,766.59 902.333,774.983C883.881,777.562 852.292,777.805 829.826,767.25C953.199,709.335 844.219,623.059 774.643,642.189C679.12,668.455 756.111,670.502 706.082,780.687C685.304,826.447 716.182,863.865 885.212,832.094Z"/></clipPath><g clip-path="url(#_clip12)"><path d="M851.983,735.977C870.923,735.427 886.529,742.875 886.811,752.599C887.094,762.324 871.947,770.666 853.008,771.216C834.068,771.767 818.462,764.318 818.179,754.594C817.897,744.869 833.044,736.527 851.983,735.977Z" style="fill:#fa8839;"/><path d="M908.256,805.424C922.169,801.96 949.567,807.534 940.175,814.576C928.945,822.995 901.721,807.05 908.256,805.424Z" style="fill:none;stroke:#fa8839;stroke-width:3.46px;"/><path d="M909.488,824.299C934.579,830.297 902.901,839.082 897.485,835.507C880.903,824.561 899.822,821.987 909.488,824.299Z" style="fill:none;stroke:#fa8839;stroke-width:3.46px;"/><path d="M949.685,796.401C921.131,800.127 907.486,789.725 921.924,785.39C937.293,780.776 970.229,785.366 962.964,792.511L949.685,796.401Z" style="fill:none;stroke:#fa8839;stroke-width:3.46px;"/><path d="M787.53,748.142C791.878,731.827 822.879,732.968 822.785,747.526C822.625,772.442 809.337,759.874 787.53,748.142Z" style="fill:none;stroke:#fa8839;stroke-width:3.46px;"/><path d="M863.132,748.952C858.144,776.761 830.828,770.146 831.387,756.817C832.286,735.383 842.478,742.958 863.132,748.952Z" style="fill:none;stroke:#fa8839;stroke-width:3.46px;"/><path d="M876.568,741.482C903.489,702.951 856.103,713.796 847.724,719.841C845.384,721.528 833.37,738.12 876.568,741.482Z" style="fill:none;stroke:#fa8839;stroke-width:3.46px;"/><path d="M872.297,696.435C870.08,705.36 880.624,711.682 887.263,697.29C887.698,696.346 887.161,684.038 886.421,684.327C877.261,687.913 877.549,688.253 872.297,696.435Z" style="fill:none;stroke:#fa8839;stroke-width:3.46px;"/><path d="M836.212,728.541C834.823,734.209 836.609,734.98 832.048,738.762C830.241,740.26 818.426,729.868 817.365,728.934C823.127,720.146 829.568,722.643 836.212,728.541Z" style="fill:none;stroke:#fa8839;stroke-width:3.46px;"/></g><path d="M385.795,662.949C385.795,662.949 380.284,647.319 380.559,638.826C380.835,630.333 396.998,632.86 397.025,644.539C397.025,644.539 424.624,643.675 413.164,653.882C401.705,664.09 385.795,662.949 385.795,662.949Z" style="fill:#f68c1e;"/><clipPath id="_clip13"><path d="M385.795,662.949C385.795,662.949 380.284,647.319 380.559,638.826C380.835,630.333 396.998,632.86 397.025,644.539C397.025,644.539 424.624,643.675 413.164,653.882C401.705,664.09 385.795,662.949 385.795,662.949Z"/></clipPath><g clip-path="url(#_clip13)"><path d="M387.914,666.839C387.914,666.839 382.402,651.209 382.678,642.716C382.953,634.223 399.116,636.75 399.143,648.429C399.143,648.429 426.742,647.565 415.283,657.773C403.823,667.981 387.914,666.839 387.914,666.839Z" style="fill:#d12026;fill-opacity:0.5;"/></g><path d="M263.46,611.399C297.072,602.182 370.622,586.054 377.011,663.649C378.669,683.785 359.771,708.405 371.589,732.102C388.507,766.028 426.238,797.133 514.558,806.886C641.385,820.892 726.346,780.925 800.333,719.807C858.672,671.614 874.11,549.704 658.288,504.006C347.259,438.149 201.564,628.372 263.46,611.399Z" style="fill:url(#_Linear14);"/><clipPath id="_clip15"><path d="M263.46,611.399C297.072,602.182 370.622,586.054 377.011,663.649C378.669,683.785 359.771,708.405 371.589,732.102C388.507,766.028 426.238,797.133 514.558,806.886C641.385,820.892 726.346,780.925 800.333,719.807C858.672,671.614 874.11,549.704 658.288,504.006C347.259,438.149 201.564,628.372 263.46,611.399Z"/></clipPath><g clip-path="url(#_clip15)"><g><path d="M467.602,742.979C461.176,752.709 462.577,752.637 459.746,763.906" style="fill:none;stroke:#357c16;stroke-width:3.46px;"/><path d="M475.315,748.514C470.743,757.802 471.616,757.464 468.636,767.875" style="fill:none;stroke:#357c16;stroke-width:3.46px;"/><path d="M496.561,746.594C496.564,744.307 467.813,764.041 465.421,765.683" style="fill:none;stroke:#357c16;stroke-width:3.46px;"/><path d="M498.811,752.354C481.941,759.883 476.838,764.878 464.577,773.142" style="fill:none;stroke:#357c16;stroke-width:3.46px;"/><path d="M373.046,725.396C383.501,714.51 387.103,719.282 387.833,720.249" style="fill:none;stroke:#357c16;stroke-width:3.46px;"/><path d="M616.333,780.442C601.94,790.93 603.438,792.473 585.911,798.736" style="fill:none;stroke:#357c16;stroke-width:3.46px;"/><path d="M616.245,786.447C610.652,790.234 605.06,794.021 599.467,797.809" style="fill:none;stroke:#357c16;stroke-width:3.46px;"/><path d="M621.479,790.455L610.7,797.127" style="fill:none;stroke:#357c16;stroke-width:3.46px;"/><path d="M721.77,728.273C721.295,728.805 723.534,726.054 723.059,726.586C707.734,743.73 707.954,743.4 691.832,760.024" style="fill:none;stroke:#357c16;stroke-width:3.46px;"/><path d="M727.668,733.478C725.956,734.758 722.426,737.399 708.635,751.622" style="fill:none;stroke:#357c16;stroke-width:3.46px;"/><path d="M750.829,720.977C750.652,722.827 748.736,742.905 748.665,744.111C748.618,744.928 749.006,743.626 749.168,743.048" style="fill:none;stroke:#3d683a;stroke-width:3.46px;"/><path d="M744.509,722.318C763.415,709.452 765.652,708.475 767.711,707.575" style="fill:none;stroke:#3d683a;stroke-width:3.46px;"/><path d="M763.808,720.608C771.559,724.746 755.525,732.355 764.415,732.353" style="fill:none;stroke:#3d683a;stroke-width:3.46px;"/><path d="M763.492,718.16C762.881,718.529 767.255,723.126 767.549,723.143C772.861,723.454 783.209,701.093 784.181,698.993C781.837,722.171 780.326,722.856 782.439,723.658C782.999,723.87 782.933,723.595 784.661,721.835" style="fill:none;stroke:#3d683a;stroke-width:3.46px;"/><path d="M377.614,685.955L373.79,701.577" style="fill:none;stroke:#3d683a;stroke-width:3.46px;"/><path d="M382.607,690.732L377.554,707.337" style="fill:none;stroke:#3d683a;stroke-width:3.46px;"/><path d="M387.211,696.224L380.787,714.937" style="fill:none;stroke:#3d683a;stroke-width:3.46px;"/><path d="M546.158,776.724C546.538,777.111 548.498,776.403 551.895,792.764" style="fill:none;stroke:#3d683a;stroke-width:3.46px;"/><path d="M556.92,778.454L560.593,790.225" style="fill:none;stroke:#3d683a;stroke-width:3.46px;"/><path d="M567.339,783.989L570.008,793.01" style="fill:none;stroke:#3d683a;stroke-width:3.46px;"/><path d="M730.616,747.464C727.27,755.588 718.815,762.368 727.417,758.273" style="fill:none;stroke:#3d683a;stroke-width:3.46px;"/><path d="M735.497,749.232L731.735,759.62" style="fill:none;stroke:#3d683a;stroke-width:3.46px;"/><path d="M811.333,640.756L801.4,653.155" style="fill:none;stroke:#3d683a;stroke-width:3.46px;"/><path d="M812.063,648.749L802.731,657.987" style="fill:none;stroke:#3d683a;stroke-width:3.46px;"/></g></g><path d="M332.151,550.378C357.594,545.023 428.044,573.46 428.585,656.321C428.838,694.952 435.532,739.541 551.515,754.917C650.361,768.022 762.342,707.956 794.948,646.253C822.017,595.03 775.982,504.088 618.627,451.41C399.971,378.21 238.021,570.186 332.151,550.378Z" style="fill:#d12026;"/><clipPath id="_clip16"><path d="M332.151,550.378C357.594,545.023 428.044,573.46 428.585,656.321C428.838,694.952 435.532,739.541 551.515,754.917C650.361,768.022 762.342,707.956 794.948,646.253C822.017,595.03 775.982,504.088 618.627,451.41C399.971,378.21 238.021,570.186 332.151,550.378Z"/></clipPath><g clip-path="url(#_clip16)"><path d="M330.692,534.656C356.202,528.913 445.84,561.344 445.81,647.494C445.797,687.658 442.542,732.298 558.558,747.485C657.432,760.428 768.505,705.591 801.576,641.211C829.03,587.766 783.567,493.528 626.388,439.843C407.975,365.242 236.313,555.901 330.692,534.656Z" style="fill:url(#_Linear17);"/><path d="M475.472,673.417C472.146,679.158 468.821,684.899 465.495,690.639" style="fill:none;stroke:#f68c1e;stroke-width:3.46px;"/><path d="M476.301,682.541L470.568,692.882" style="fill:none;stroke:#f68c1e;stroke-width:3.46px;"/><path d="M475.917,690.608L471.172,699.648" style="fill:none;stroke:#f68c1e;stroke-width:3.46px;"/><path d="M477.626,696.131C476.522,699.399 475.419,702.668 474.315,705.936" style="fill:none;stroke:#f68c1e;stroke-width:3.46px;"/><path d="M597.979,709.479C591.914,720.744 591.467,720.182 583.819,730.797" style="fill:none;stroke:#f68c1e;stroke-width:3.46px;"/><path d="M598.845,717.174L589.165,729.517" style="fill:none;stroke:#f68c1e;stroke-width:3.46px;"/><path d="M599.494,724.17L594.71,730.995" style="fill:none;stroke:#f68c1e;stroke-width:3.46px;"/><path d="M602.156,728.349C601.78,729.13 601.404,729.912 601.029,730.693" style="fill:none;stroke:#f68c1e;stroke-width:3.46px;"/><path d="M727.815,695.029C726.564,697.032 725.313,699.036 724.062,701.039" style="fill:none;stroke:#f68c1e;stroke-width:3.46px;"/><path d="M732.915,692.97L729.967,697.758" style="fill:none;stroke:#f68c1e;stroke-width:3.46px;"/><path d="M773.014,636.626C776.754,640.594 773.269,640.767 764.403,657.693" style="fill:none;stroke:#f68c1e;stroke-width:3.46px;"/><path d="M776.911,645.4L768.737,656.384" style="fill:none;stroke:#f68c1e;stroke-width:3.46px;"/><path d="M778.338,651.573C776.29,654.101 774.242,656.628 772.194,659.156" style="fill:none;stroke:#f68c1e;stroke-width:3.46px;"/><path d="M756.387,567.52L746.907,588.754C745.746,591.353 742.646,592.648 739.988,591.644L660.034,561.463C657.376,560.46 656.16,557.536 657.32,554.937L666.801,533.703C667.961,531.104 671.061,529.808 673.72,530.812L753.674,560.993C756.332,561.996 757.548,564.921 756.387,567.52Z" style="fill:#357c16;"/><path d="M591.695,613.988L594.587,628.578L510.737,637.94L507.846,623.351L591.695,613.988Z" style="fill:#d12026;"/><path d="M683.944,549.082L714.699,557.549L699.64,564.321L669.933,555.738L683.944,549.082Z" style="fill:#3d683a;"/><path d="M736.403,558.192C743.924,561.031 747.687,568.585 744.801,575.049C741.914,581.514 733.465,584.457 725.943,581.618C718.422,578.779 714.66,571.226 717.546,564.761C720.432,558.296 728.882,555.353 736.403,558.192Z" style="fill:#b39100;"/><path d="M654.285,609.84L653.276,607.593C656.737,606.524 658.422,603.149 657.037,600.062L659.051,599.439C660.042,601.581 662.786,602.712 665.202,601.966C667.618,601.22 668.802,598.875 667.864,596.717L671.694,595.534C672.685,597.675 675.429,598.806 677.845,598.06C680.261,597.314 681.445,594.969 680.507,592.811L684.337,591.628C685.328,593.769 688.072,594.9 690.488,594.154C692.904,593.408 694.088,591.063 693.15,588.905L696.718,587.803C697.709,589.944 700.453,591.076 702.869,590.329C705.284,589.583 706.469,587.238 705.531,585.08L707.202,584.564C708.587,587.651 712.521,589.29 715.982,588.221L716.988,590.463C714.931,591.379 713.995,593.55 714.892,595.551C715.79,597.551 718.21,598.685 720.488,598.262L721.723,601.015C719.666,601.93 718.729,604.102 719.627,606.102C720.524,608.102 722.944,609.237 725.222,608.813L726.457,611.566C724.4,612.482 723.464,614.654 724.361,616.654C725.259,618.654 727.679,619.789 729.957,619.365L731.26,622.27C729.203,623.185 728.267,625.357 729.164,627.357C730.062,629.357 732.481,630.492 734.76,630.068L736.035,632.91C733.977,633.826 733.041,635.997 733.939,637.998C734.836,639.998 737.256,641.132 739.534,640.709L740.736,643.387C737.275,644.457 735.59,647.831 736.975,650.918L735.25,651.451C735.195,651.238 735.121,651.026 735.027,650.815C734.053,648.645 731.288,647.494 728.856,648.245C726.424,648.996 725.24,651.368 726.213,653.537C726.308,653.748 726.42,653.95 726.546,654.14L722.869,655.276C722.815,655.063 722.74,654.85 722.646,654.64C721.672,652.47 718.907,651.319 716.475,652.07C714.043,652.821 712.859,655.193 713.833,657.362C713.927,657.573 714.039,657.774 714.165,657.965L710.226,659.182C710.172,658.969 710.097,658.756 710.003,658.546C709.029,656.376 706.264,655.225 703.832,655.976C701.4,656.727 700.216,659.099 701.19,661.268C701.284,661.479 701.396,661.68 701.522,661.871L697.583,663.088C697.528,662.875 697.454,662.662 697.36,662.451C696.386,660.282 693.621,659.13 691.189,659.882C688.757,660.633 687.573,663.004 688.546,665.174C688.641,665.385 688.753,665.586 688.879,665.777L686.811,666.416C685.425,663.329 681.491,661.69 678.03,662.759L676.826,660.076C677.034,660.039 677.241,659.989 677.446,659.926C679.878,659.175 681.062,656.803 680.089,654.634C679.115,652.464 676.35,651.313 673.918,652.064C673.714,652.127 673.518,652.202 673.331,652.287L672.051,649.435C672.26,649.398 672.467,649.349 672.672,649.285C675.104,648.534 676.288,646.163 675.314,643.993C674.341,641.824 671.576,640.672 669.144,641.423C668.939,641.487 668.743,641.561 668.557,641.647L667.249,638.732C667.457,638.695 667.664,638.645 667.869,638.582C670.301,637.831 671.485,635.459 670.512,633.29C669.538,631.12 666.773,629.969 664.341,630.72C664.136,630.783 663.94,630.858 663.754,630.943L662.514,628.18C662.722,628.144 662.93,628.094 663.134,628.031C665.566,627.279 666.751,624.908 665.777,622.738C664.804,620.569 662.039,619.417 659.607,620.169C659.402,620.232 659.206,620.307 659.019,620.392L657.78,617.629C657.988,617.592 658.195,617.542 658.4,617.479C660.832,616.728 662.016,614.356 661.042,612.187C660.069,610.017 657.304,608.866 654.872,609.617C654.667,609.68 654.471,609.755 654.285,609.84Z" style="fill:url(#_Linear18);"/><path d="M702.142,626.258L707.869,637.243L703.719,638.766L697.992,627.781L702.142,626.258Z" style="fill:#92522b;"/><path d="M684.242,635.456L681.999,603.707L713.182,626.381L684.242,635.456Z" style="fill:#fcfbf8;"/><path d="M683.227,639.555L723.747,627.208L720.851,637.748L690.219,646.355L683.227,639.555Z" style="fill:#357c16;"/><path d="M556.094,581.265C583.739,586.064 602.797,609.469 598.626,633.498C594.454,657.528 568.623,673.14 540.977,668.341C513.332,663.542 494.274,640.137 498.445,616.107C502.617,592.078 528.448,576.465 556.094,581.265ZM553.883,593.996C534.322,590.6 516.044,601.647 513.092,618.65C510.141,635.653 523.626,652.214 543.188,655.61C562.749,659.006 581.027,647.959 583.979,630.956C586.93,613.953 573.445,597.392 553.883,593.996Z" style="fill:#d12026;"/><g><path d="M521.328,627.483C519.267,628.432 519.697,633.258 522.583,631.997" style="fill:none;stroke:#f68c1e;stroke-opacity:0.8;stroke-width:3.46px;"/><path d="M527.066,629.402L529.728,630.053" style="fill:none;stroke:#f68c1e;stroke-opacity:0.8;stroke-width:3.46px;"/><path d="M533.101,627.604C535.312,628.806 535.216,628.734 535.315,628.837" style="fill:none;stroke:#f68c1e;stroke-opacity:0.8;stroke-width:3.46px;"/><path d="M542.246,625.63L544.023,627.88" style="fill:none;stroke:#f68c1e;stroke-opacity:0.8;stroke-width:3.46px;"/><path d="M547.942,624.037C548.009,625.236 548.075,626.435 548.142,627.634" style="fill:none;stroke:#f68c1e;stroke-opacity:0.8;stroke-width:3.46px;"/><path d="M555.157,624.065L559.145,627.942" style="fill:none;stroke:#f68c1e;stroke-opacity:0.8;stroke-width:3.46px;"/><path d="M521.282,653.103C520.895,652.235 516.945,656.283 519.313,656.077" style="fill:none;stroke:#f68c1e;stroke-opacity:0.8;stroke-width:3.46px;"/><path d="M528.854,654.568L527.939,657.839" style="fill:none;stroke:#f68c1e;stroke-opacity:0.8;stroke-width:3.46px;"/><path d="M531.849,657.424L534.199,660.245" style="fill:none;stroke:#f68c1e;stroke-opacity:0.8;stroke-width:3.46px;"/><path d="M539.35,662.043L542.74,663.499" style="fill:none;stroke:#f68c1e;stroke-opacity:0.8;stroke-width:3.46px;"/><path d="M546.851,661.423C552.946,662.455 552.834,662.196 559.092,662.342" style="fill:none;stroke:#f68c1e;stroke-opacity:0.8;stroke-width:3.46px;"/><path d="M561.891,661.829C562.632,662.015 563.373,662.2 564.115,662.385" style="fill:none;stroke:#f68c1e;stroke-opacity:0.8;stroke-width:3.46px;"/><path d="M567.478,658.993L568.297,659.022" style="fill:none;stroke:#f68c1e;stroke-opacity:0.8;stroke-width:3.46px;"/><path d="M574.698,655.742C575.092,655.308 575.485,654.874 575.878,654.44" style="fill:none;stroke:#f68c1e;stroke-opacity:0.8;stroke-width:3.46px;"/><path d="M578.515,650.865L579.703,651.391" style="fill:none;stroke:#f68c1e;stroke-opacity:0.8;stroke-width:3.46px;"/><path d="M564.435,623.32C565.427,624.145 566.418,624.971 567.409,625.796" style="fill:none;stroke:#f68c1e;stroke-opacity:0.8;stroke-width:3.46px;"/><path d="M572.206,623.765C573.23,623.867 574.015,624.832 575.038,624.935C575.306,624.961 575.287,624.939 578.389,624.989" style="fill:none;stroke:#f68c1e;stroke-opacity:0.8;stroke-width:3.46px;"/><path d="M581.462,622.903C582.289,623.216 583.116,623.529 583.943,623.842" style="fill:none;stroke:#f68c1e;stroke-opacity:0.8;stroke-width:3.46px;"/><path d="M589.2,621.909C587.935,623.702 587.938,623.542 587.117,625.543" style="fill:none;stroke:#f68c1e;stroke-opacity:0.8;stroke-width:3.46px;"/></g></g><g><path d="M621.464,822.032C621.464,822.032 660.722,779.068 629.313,607.807C620.924,562.068 599.062,534.874 574.267,518.832C528.727,489.369 575.075,487.994 609.778,504.927C634.812,517.142 658.967,544.393 667.944,602.016C693.489,766 660.489,813.727 660.489,813.727C648.355,814.283 635.269,817.246 621.464,822.032Z" style="fill:url(#_Linear19);"/><path d="M653.723,699.446C653.723,699.446 642.81,698.45 633.988,624.689C625.102,550.389 591.426,530.871 591.426,530.871L628.848,514.26C628.848,514.26 666.385,540.59 674.518,622.539C679.951,677.295 690.261,700.971 690.261,700.971C681.178,704.516 666.708,703.921 653.723,699.446Z" style="fill:url(#_Linear20);"/><path d="M654.162,627.998L653.807,621.894" style="fill:none;stroke:#65331d;stroke-width:6.91px;"/><path d="M655.24,626.172L654.885,620.069" style="fill:none;stroke:#b3922f;stroke-width:6.91px;"/><path d="M679.961,642.428L677.87,628.416C678.255,632.242 674.615,619.902 654.477,620.108C632.446,620.334 629.6,634.872 629.215,631.046L631.407,646.246" style="fill:none;stroke:#b39100;stroke-width:6.91px;"/><path d="M635.988,668.404C635.988,668.404 642.303,663.845 661.062,664.783C679.821,665.721 681.111,669.746 681.111,669.746L679.573,657.639C679.573,657.639 675.545,654.117 660.231,653.554C644.918,652.99 635.212,656.91 635.212,656.91L635.988,668.404Z" style="fill:url(#_Linear21);"/><path d="M653.256,603.237C654.526,603.293 655.523,604.336 655.48,605.564C655.438,606.793 654.371,607.745 653.101,607.689C651.83,607.633 650.833,606.59 650.876,605.361C650.919,604.133 651.985,603.181 653.256,603.237Z" style="fill:#65331d;"/><path d="M646.56,581.002C647.831,581.058 648.827,582.101 648.785,583.33C648.742,584.559 647.675,585.511 646.405,585.455C645.134,585.399 644.137,584.356 644.18,583.127C644.223,581.898 645.289,580.946 646.56,581.002Z" style="fill:#65331d;"/><path d="M640.105,562.435C641.376,562.491 642.373,563.534 642.33,564.763C642.287,565.992 641.221,566.944 639.95,566.888C638.68,566.832 637.683,565.789 637.726,564.56C637.768,563.331 638.835,562.379 640.105,562.435Z" style="fill:#65331d;"/><path d="M657.371,646.583C658.642,646.639 659.639,647.682 659.596,648.911C659.553,650.139 658.487,651.091 657.216,651.035C655.945,650.979 654.949,649.936 654.991,648.708C655.034,647.479 656.101,646.527 657.371,646.583Z" style="fill:#65331d;"/></g><path d="M584.04,403.428C648.644,416.29 716.987,470.646 716.444,508.945C715.983,541.454 622.211,552.445 544.497,530.328C502.025,518.24 506.141,423.755 468.094,428.176C435.629,431.949 483.727,383.458 584.04,403.428Z" style="fill:#92522b;"/><path d="M423.245,448.452C423.245,448.452 435.373,443.583 439.424,443.557C454.753,443.457 481.833,454.703 495.273,482.982C507.613,508.947 482.929,559.707 592.03,566.513C709.962,573.87 746.441,528.603 741.76,501.518C738.306,481.534 725.295,471.243 717.544,467.364C703.944,460.557 691.079,462.79 691.079,462.79C691.079,462.79 730.824,500.438 687.58,518.228C628.869,542.382 577.608,536.144 555.508,528.252C533.962,520.557 530.727,487.975 524.692,467.177C519.923,450.743 512.884,431.104 499.098,422.947C483.446,413.688 461.333,402.569 444.034,409.835C437.602,412.537 423.802,423.96 421.076,431.388C416.345,444.281 423.245,448.452 423.245,448.452Z" style="fill:url(#_Radial22);"/><path d="M423.638,448.52C423.638,448.52 435.849,443.666 439.909,443.641C455.272,443.547 482.273,454.78 495.399,483.004C507.451,508.919 497.993,483.501 511.137,481.8C524.627,480.053 528.626,488.485 525.772,463.266C523.857,446.345 514.224,394.521 500.507,386.377C484.935,377.131 462.91,366.028 445.486,373.272C439.008,375.966 419.099,421.724 418.045,431.971C416.636,445.664 423.638,448.52 423.638,448.52Z" style="fill:url(#_Radial23);"/><path d="M391.093,642.763C391.093,642.763 404.564,638.319 409.989,633.705C415.414,629.091 404.39,619.541 396.694,625.612C396.694,625.612 381.275,606.604 381.201,619.632C381.127,632.661 391.093,642.763 391.093,642.763Z" style="fill:#f68c1e;"/><clipPath id="_clip24"><path d="M391.093,642.763C391.093,642.763 404.564,638.319 409.989,633.705C415.414,629.091 404.39,619.541 396.694,625.612C396.694,625.612 381.275,606.604 381.201,619.632C381.127,632.661 391.093,642.763 391.093,642.763Z"/></clipPath><g clip-path="url(#_clip24)"><path d="M387.308,643.367C387.308,643.367 400.778,638.923 406.204,634.309C411.629,629.695 400.605,620.145 392.909,626.216C392.909,626.216 377.49,607.208 377.416,620.237C377.342,633.265 387.308,643.367 387.308,643.367Z" style="fill:#d12026;fill-opacity:0.5;"/></g><path d="M383.146,401.384C451.85,424.455 473.276,487.068 457.067,535.338C433.996,604.041 354.871,666.978 286.167,643.907C217.463,620.837 194.1,522.941 217.17,454.237C233.379,405.968 314.442,378.314 383.146,401.384Z" style="fill:url(#_Linear25);"/><path d="M367.701,537.082C346.405,526.098 330.986,510.375 330.986,510.375C330.986,510.375 326.142,559.139 352.146,569.002C378.149,578.865 400.261,546.249 400.261,546.249C400.261,546.249 388.997,548.067 367.701,537.082Z" style="fill:#d12026;"/><clipPath id="_clip26"><path d="M367.701,537.082C346.405,526.098 330.986,510.375 330.986,510.375C330.986,510.375 326.142,559.139 352.146,569.002C378.149,578.865 400.261,546.249 400.261,546.249C400.261,546.249 388.997,548.067 367.701,537.082Z"/></clipPath><g clip-path="url(#_clip26)"><path d="M335.683,540.039C359.955,540.039 381.462,556.844 381.462,569.654C381.462,582.465 380.971,588.862 356.699,588.862C332.427,588.862 321.727,574.258 321.727,561.448C321.727,548.638 311.411,540.039 335.683,540.039Z" style="fill:#f68c1e;"/></g><path d="M284.49,418.484C311.329,403.622 340.096,403.572 348.689,418.373C357.282,433.173 342.468,457.256 315.628,472.118C288.789,486.981 260.022,487.031 251.429,472.23C242.836,457.429 257.65,433.347 284.49,418.484Z" style="fill:#f68c1e;"/><path d="M456.832,481.367C448.008,454.756 432.491,439.374 422.203,447.04C411.915,454.705 410.727,482.532 419.551,509.144C428.375,535.755 443.892,551.136 454.18,543.471C464.468,535.806 465.656,507.978 456.832,481.367Z" style="fill:#f68c1e;"/><path d="M286.167,416.585C312.454,402.484 340.68,402.51 349.159,416.643C357.639,430.777 343.181,453.7 316.894,467.801C290.607,481.903 262.381,481.876 253.902,467.743C245.423,453.609 259.88,430.686 286.167,416.585Z" style="fill:#fcfbf8;"/><path d="M456.241,477.648C447.504,452.21 432.239,437.442 422.172,444.689C412.105,451.935 411.025,478.471 419.761,503.908C428.498,529.346 443.763,544.114 453.83,536.868C463.897,529.621 464.977,503.085 456.241,477.648Z" style="fill:#fcfbf8;"/><path d="M293.431,428.692C307.29,421.258 322.171,421.271 326.641,428.723C331.112,436.174 323.489,448.26 309.63,455.694C295.771,463.129 280.89,463.115 276.42,455.663C271.949,448.212 279.572,436.127 293.431,428.692Z" style="fill:#450053;"/><path d="M447.617,483.856C443.011,470.444 434.963,462.658 429.656,466.479C424.348,470.3 423.779,484.29 428.385,497.701C432.991,511.112 441.039,518.898 446.347,515.077C451.654,511.257 452.223,497.267 447.617,483.856Z" style="fill:#450053;"/><path d="M373.704,486.734L380.475,473.541" style="fill:none;stroke:#450053;stroke-width:4.15px;"/><path d="M401.255,499.008L397.616,482.238" style="fill:none;stroke:#450053;stroke-width:4.15px;"/></g><g><path d="M718.196,66.292C718.196,66.292 672.35,57.619 672.808,34.313C672.808,34.313 661.855,50.459 673.416,65.821C673.416,65.821 635.359,24.987 580.155,55.399C580.155,55.399 590.654,51.924 605.606,61.216C613.172,65.919 641.221,78.492 631.725,87.551C613.285,105.141 616.698,142.015 616.698,142.015C616.698,142.015 734.189,95.443 718.196,66.292Z" style="fill:#e0caae;"/><path d="M736.216,347.189C718.38,331.079 676.177,359.979 634.009,389.959C603.603,411.577 606.006,434.689 622.064,456.377C636.415,475.76 673.358,481.856 693.401,449.784C721.264,405.2 754.052,363.299 736.216,347.189Z" style="fill:url(#_Linear27);"/><path d="M760.411,234.78C761.053,257.295 797.815,270.62 845.434,279.76C879.77,286.35 890.934,271.198 893.864,238.276C896.835,204.9 881.78,189.952 847.076,197.151C798.832,207.16 759.769,212.265 760.411,234.78Z" style="fill:url(#_Linear28);"/><path d="M804.112,340.433C788.75,365.381 819.231,406.098 864.505,450.009C897.152,481.672 916.641,462.59 939.084,438.539C959.141,417.044 968.104,378.252 925.221,361.327C865.606,337.798 819.475,315.485 804.112,340.433Z" style="fill:url(#_Linear29);"/><path d="M658.836,89.039C619.499,110.731 614.548,156.417 626.866,199.617C642.565,254.672 693.026,253.544 737.444,231.587C778.919,211.085 795.623,166.522 769.414,121.009C746.997,82.08 698.174,67.347 658.836,89.039Z" style="fill:url(#_Linear30);"/><path d="M774.553,99.801C768.091,94.631 760.831,92.95 758.351,96.05C755.871,99.15 759.103,105.864 765.565,111.034C772.027,116.204 779.286,117.884 781.767,114.784C784.247,111.685 781.014,104.971 774.553,99.801Z" style="fill:none;stroke:#907400;stroke-width:4.15px;"/><path d="M779.253,88.838C773.946,86.436 768.339,87.355 766.74,90.888C765.141,94.422 768.151,99.24 773.458,101.642C778.765,104.044 784.372,103.125 785.971,99.591C787.57,96.058 784.56,91.239 779.253,88.838Z" style="fill:none;stroke:#907400;stroke-width:4.15px;"/><path d="M724.886,212.17C675.326,233.97 646.517,266.044 669.564,356.307C675.601,379.95 700.24,402.208 754.208,399.623C808.169,397.039 875.384,374.519 837.822,285.476C801.205,198.674 774.447,190.37 724.886,212.17Z" style="fill:url(#_Linear31);"/><clipPath id="_clip32"><path d="M724.886,212.17C675.326,233.97 646.517,266.044 669.564,356.307C675.601,379.95 700.24,402.208 754.208,399.623C808.169,397.039 875.384,374.519 837.822,285.476C801.205,198.674 774.447,190.37 724.886,212.17Z"/></clipPath><g clip-path="url(#_clip32)"><path d="M726.142,399.207C726.967,410.374 748.226,417.462 772.165,415.695C796.104,413.928 818.199,400.371 817.375,389.205C816.551,378.038 816.754,363.682 792.815,365.449C768.876,367.216 725.318,388.04 726.142,399.207Z" style="fill:url(#_Linear33);"/></g><path d="M738.206,328.635C738.206,328.635 712.076,313.168 705.389,308.516C695.247,301.46 684.861,287.254 684.861,287.254L676.58,295.518C676.58,295.518 685.928,308.144 698.747,317.151C704.878,321.458 727.958,332.811 727.958,332.811L738.206,328.635Z" style="fill:#65331d;"/><path d="M657.414,268.96C655.127,253.827 669.24,238.703 683.448,235.699C698.223,232.575 713.394,251.351 716.986,267.084C720.016,280.356 725.566,289.809 735.743,305.281C740.423,312.395 742.61,321.188 742.61,321.188C742.61,321.188 732.977,325.998 731.714,325.434C733.211,324.606 732.425,315.96 726.759,307.734C718.872,296.282 707.467,285.449 704.953,273.558C702.393,261.449 690.669,244.031 679.254,246.445C674.289,247.495 660.326,265.107 657.414,268.96Z" style="fill:#92522b;"/><path d="M689.392,257.172C684.098,225.716 643.353,256.969 607.419,268.416C579.953,277.164 556.26,301.984 578.83,334.788C597.515,361.946 636.734,357.335 652.436,333.723C674.264,300.899 695.026,290.643 689.392,257.172Z" style="fill:url(#_Linear34);"/><path d="M726.589,44.086C706.731,60.328 702.175,83.029 708.969,93.494C712.63,99.132 721.106,100.945 727.832,106.741C738.755,116.156 749.506,119.352 761.083,112.968C781.032,101.967 788.17,83.244 777.17,63.295C766.17,43.347 744.221,29.662 726.589,44.086Z" style="fill:url(#_Linear35);"/><path d="M758.351,96.05C755.871,99.15 759.103,105.864 765.565,111.034C772.027,116.204 779.286,117.884 781.767,114.784" style="fill:none;stroke:#b39100;stroke-width:4.15px;"/><path d="M766.74,90.888C765.141,94.422 768.151,99.24 773.458,101.642C778.765,104.044 784.372,103.125 785.971,99.591" style="fill:none;stroke:#b39100;stroke-width:4.15px;"/><path d="M736.528,214.863C718.394,216.702 701.197,218.468 695.75,225.712C692.989,229.383 690.867,233.517 691.402,239.095C692.915,254.892 704.173,273.484 713.577,294.503C732.855,337.593 715.988,357.232 810.61,335.551C832.977,330.426 857.94,306.44 838.662,263.35C819.384,220.26 796.871,208.743 736.528,214.863Z" style="fill:#92522b;"/><path d="M715.311,226.414C712.783,217.64 701.418,219.488 697.576,227.862C694.1,235.439 699.231,260.256 699.231,260.256L705.421,269.788L702.829,262.802C702.829,262.802 719.136,254.583 719.982,256.787C726.016,272.517 746.991,304.069 747.405,319.133C747.798,333.463 728.49,327.142 736.714,335.487C741.764,340.612 743.153,333.503 746.975,333.338C749.552,333.227 753.822,338.355 755.084,333.022C755.785,330.056 756.183,326.046 756.165,320.73C756.064,291.67 728.906,273.593 715.311,226.414Z" style="fill:#65331d;"/><path d="M809.576,229.703C809.576,223.028 783.297,211.351 773.792,212.182C758.672,213.503 757.538,217.23 740.692,217.23C713.256,217.23 688.741,228.507 704.423,244.438C729.256,269.664 772.292,263.124 781.394,259.971C798.869,253.918 809.576,241.074 809.576,229.703Z" style="fill:#65331d;"/><path d="M811.205,221.335C811.205,213.713 783.37,200.378 773.303,201.326C757.287,202.835 738.004,212.834 720.421,215.874C691.623,220.854 690.554,227.702 699.827,238.163C725.701,267.356 771.714,259.502 781.355,255.901C799.864,248.989 811.205,234.321 811.205,221.335Z" style="fill:#92522b;"/><ellipse cx="774.123" cy="248.745" rx="4.435" ry="3.801" style="fill:#b39100;"/><path d="M672.696,85.801C665.48,79.744 648.827,66.084 620.16,76.579C593.991,86.16 583.28,117.421 583.28,117.421C583.28,117.421 598.629,93.205 633.664,100.438C629.039,102.166 589.982,113.445 605.598,154.862C615.151,144.202 621.498,117.874 659.949,114.608C657.227,111.516 644.96,107.345 630.552,110.611C641.44,105.444 657.051,103.761 667.07,107.304C665.224,101.889 660.657,98.281 654.213,95.917C659.266,93.059 681.826,96.162 693.573,101.231C691.946,94.805 691.627,91.309 685.013,85.527C697.594,85.611 698.805,84.736 709.013,85.647C701.657,74.91 689.599,70.303 678.716,72.543C683.506,75.228 689.883,73.363 693,81.25C685.006,76.436 676.533,75.532 669.776,76.589C675.15,81.535 672.043,80.424 672.696,85.801Z" style="fill:#e0caae;"/><path d="M886.034,453.768C894.401,461.209 914.145,452.688 930.098,434.751C946.05,416.814 952.209,396.211 943.842,388.77C935.475,381.328 915.731,389.849 899.779,407.786C883.826,425.723 877.668,446.327 886.034,453.768Z" style="fill:url(#_Linear36);"/><path d="M774.253,367.496C782.079,376.081 799.768,373.109 808.25,369.25C823.673,362.232 819.576,340.633 819.576,340.633L817.053,344.955C818.466,340.355 816.109,333.281 813.611,323.329C802.068,327.033 790.874,329.739 782.009,343.535C782.663,340.497 783.51,338.804 784.884,334.634C784.884,334.634 759.06,350.83 774.253,367.496Z" style="fill:#bfa179;"/><path d="M802.431,372.931C816.705,367.556 816.221,351.153 816.221,351.153C812.112,354.833 810.047,356.749 806.556,357.96C807.131,355.575 808.507,345.762 807.451,340.441C796.474,345.351 788.277,353.253 784.208,362.923C783.175,357.986 784.118,355.275 784.604,351.829C784.604,351.829 771.546,358.328 774.055,368.223C776.276,376.982 790.216,377.531 802.431,372.931Z" style="fill:url(#_Linear37);"/><path d="M589.592,100.098C564.622,102.722 559.144,141.753 567.423,165.457C575.702,189.161 595.891,194.274 619.595,185.994C643.298,177.715 655.821,151.748 647.541,128.045C639.262,104.341 613.73,97.561 589.592,100.098Z" style="fill:url(#_Linear38);"/></g><ellipse cx="1047.08" cy="976.541" rx="5.594" ry="9.934" style="fill:#65331d;"/><path d="M1051.26,882.986C1179.27,842.766 1262.21,822.238 1270,847.034C1277.79,871.831 1233.88,926.499 1105.87,966.719C977.856,1006.94 840.289,1010.99 832.498,986.189C824.707,961.393 923.252,923.207 1051.26,882.986Z" style="fill:#d01f5c;"/><path d="M1463.4,877.942C1449.97,897.055 1417.04,920.401 1308.62,921.164C1154.3,922.25 971.937,777.299 1179.7,760.919C1414.16,742.433 1227.73,861.052 1380.5,849.493C1503.68,840.173 1478.06,857.086 1463.4,877.942Z" style="fill:url(#_Linear39);"/><clipPath id="_clip40"><path d="M1463.4,877.942C1449.97,897.055 1417.04,920.401 1308.62,921.164C1154.3,922.25 971.937,777.299 1179.7,760.919C1414.16,742.433 1227.73,861.052 1380.5,849.493C1503.68,840.173 1478.06,857.086 1463.4,877.942Z"/></clipPath><g clip-path="url(#_clip40)"><path d="M1420.82,866.86C1422.96,851.934 1493.53,861.681 1487.69,864.971C1476.17,871.477 1419.68,874.823 1420.82,866.86Z" style="fill:none;stroke:#fa8839;stroke-width:3.46px;"/><path d="M1418.15,888.942C1420.76,888.176 1429.92,885.49 1452.95,887.099C1454.96,887.24 1477.69,888.828 1477.68,890.136C1474.88,890.995 1463.3,894.54 1440.24,894.125C1427.63,893.899 1427.29,894.066 1418.15,888.942Z" style="fill:none;stroke:#fa8839;stroke-width:3.46px;"/><path d="M1446.69,910.097C1412.08,913.426 1407.86,904.947 1415.38,903.298C1421.03,902.06 1465.27,900.986 1467.43,910.939" style="fill:none;stroke:#fa8839;stroke-width:3.46px;"/></g><path d="M533.446,922.52C653.637,875.863 600.025,854.452 697.799,807.59C836.965,740.89 1002.44,775.672 831.698,895.174C778.448,932.444 744.907,868.472 611.605,943.987C504.125,1004.87 424.165,964.941 533.446,922.52Z" style="fill:url(#_Linear41);"/><clipPath id="_clip42"><path d="M533.446,922.52C653.637,875.863 600.025,854.452 697.799,807.59C836.965,740.89 1002.44,775.672 831.698,895.174C778.448,932.444 744.907,868.472 611.605,943.987C504.125,1004.87 424.165,964.941 533.446,922.52Z"/></clipPath><g clip-path="url(#_clip42)"><path d="M547.63,940.82C545.05,955.677 474.805,943.859 480.73,940.741C492.445,934.578 549.007,932.894 547.63,940.82Z" style="fill:none;stroke:#fa8839;stroke-width:3.46px;"/><path d="M576.38,921.774C573.744,922.464 564.514,924.879 541.54,922.593C539.533,922.393 516.863,920.137 516.906,918.83C519.735,918.054 531.41,914.851 554.449,915.943C567.045,916.541 567.393,916.384 576.38,921.774Z" style="fill:none;stroke:#fa8839;stroke-width:3.46px;"/><path d="M556.946,899.42C591.643,897.111 595.605,905.71 588.04,907.138C582.362,908.209 538.105,907.981 536.244,897.969" style="fill:none;stroke:#fa8839;stroke-width:3.46px;"/></g><path d="M493.789,1025.96C505.07,1043.05 523.234,1042.92 594.188,1031.1C695.179,1014.27 898.027,878.713 760.108,886.812C604.464,895.951 673.243,876.732 629.724,928.511C562.095,1008.98 481.479,1007.32 493.789,1025.96Z" style="fill:url(#_Linear43);"/><clipPath id="_clip44"><path d="M493.789,1025.96C505.07,1043.05 523.234,1042.92 594.188,1031.1C695.179,1014.27 898.027,878.713 760.108,886.812C604.464,895.951 673.243,876.732 629.724,928.511C562.095,1008.98 481.479,1007.32 493.789,1025.96Z"/></clipPath><g clip-path="url(#_clip44)"><path d="M640.704,988.747C630.001,1024.26 677.912,1009.96 685.307,1001.93C687.223,999.849 691.082,966.548 640.704,988.747Z" style="fill:none;stroke:#fa8839;stroke-width:3.46px;"/><path d="M604.209,1015.31C607.124,1004.62 609.159,1005.22 620.071,997.63C632.938,1016.39 654.014,1013.79 642.237,1022.61C621.669,1038.01 606.374,1017.05 604.209,1015.31Z" style="fill:none;stroke:#fa8839;stroke-width:3.46px;"/><path d="M584.997,1017.5C565.973,1024.94 569.195,1016.22 570.161,1015.54C579.922,1008.71 583.34,1006.29 587.98,1011.34C591.799,1015.49 587.803,1016.4 584.997,1017.5Z" style="fill:none;stroke:#fa8839;stroke-width:3.46px;"/><path d="M506.463,1039.98C508.248,1038.46 522.168,1020.91 547.426,1023.62C557.003,1024.65 559.073,1039.54 547.308,1046.04C535.217,1052.72 509.256,1041.22 506.463,1039.98Z" style="fill:none;stroke:#fa8839;stroke-width:3.46px;"/></g><path d="M773.481,1110.6C658.292,1118.45 635.497,1107.07 724.283,1037C745.097,1020.57 784.476,1024.17 834,1018.39C649.188,977.631 734.266,829.27 861.559,941.966C868.981,948.537 995.296,946.176 1008.64,1002.14C1028.06,1083.61 967.41,1097.4 773.481,1110.6Z" style="fill:url(#_Linear45);"/><clipPath id="_clip46"><path d="M773.481,1110.6C658.292,1118.45 635.497,1107.07 724.283,1037C745.097,1020.57 784.476,1024.17 834,1018.39C649.188,977.631 734.266,829.27 861.559,941.966C868.981,948.537 995.296,946.176 1008.64,1002.14C1028.06,1083.61 967.41,1097.4 773.481,1110.6Z"/></clipPath><g clip-path="url(#_clip46)"><path d="M1060.46,732.461C911.293,744.534 797.941,809.007 807.491,876.347C817.042,943.687 945.902,988.557 1095.07,976.484C1244.24,964.411 1357.59,899.938 1348.04,832.598C1338.49,765.258 1209.63,720.388 1060.46,732.461Z" style="fill:#fa8839;"/><path d="M730.38,1068.26C710.107,1066.76 672.473,1076.34 687.03,1082.1C704.433,1088.99 739.903,1068.96 730.38,1068.26Z" style="fill:none;stroke:#fa8839;stroke-width:3.46px;"/><path d="M732.131,1087.51C697.833,1097.18 744.161,1101.5 751.143,1097.11C772.519,1083.66 745.345,1083.78 732.131,1087.51Z" style="fill:none;stroke:#fa8839;stroke-width:3.46px;"/><path d="M670.248,1065.11C711.232,1064.76 728.563,1052.28 707.387,1049.98C684.846,1047.53 639.216,1056.91 650.79,1063.09L670.248,1065.11Z" style="fill:none;stroke:#fa8839;stroke-width:3.46px;"/><path d="M890.153,992.987C881,977.126 837.463,982.744 840.287,997.442C845.121,1022.6 861.549,1007.98 890.153,992.987Z" style="fill:none;stroke:#fa8839;stroke-width:3.46px;"/><path d="M783.614,1004.69C795.796,1032.08 833.12,1021.46 829.867,1008.07C824.635,986.539 811.653,995.661 783.614,1004.69Z" style="fill:none;stroke:#fa8839;stroke-width:3.46px;"/><path d="M763.273,999.08C718.157,964.021 787.033,968.156 799.975,973.057C803.589,974.425 823.611,989.461 763.273,999.08Z" style="fill:none;stroke:#fa8839;stroke-width:3.46px;"/><path d="M760.97,952.944C765.749,961.643 752.039,969.551 740.008,955.963C739.219,955.072 737.702,942.557 738.8,942.743C752.389,945.047 752.045,945.432 760.97,952.944Z" style="fill:none;stroke:#fa8839;stroke-width:3.46px;"/><path d="M817.829,980.19C820.837,985.719 818.459,986.754 825.595,989.919C828.422,991.174 843.174,978.97 844.499,977.874C834.742,969.823 826.115,973.274 817.829,980.19Z" style="fill:none;stroke:#fa8839;stroke-width:3.46px;"/></g><path d="M1195.38,773.473C1207.93,792.17 1250.3,811.479 1270.92,800.611C1303.26,783.564 1379.59,609.144 1295.77,600.146C1207.65,590.687 1259.24,625.963 1211.02,660.527C1159.01,697.807 1178.96,748.989 1195.38,773.473Z" style="fill:url(#_Linear47);"/><clipPath id="_clip48"><path d="M1195.38,773.473C1207.93,792.17 1250.3,811.479 1270.92,800.611C1303.26,783.564 1379.59,609.144 1295.77,600.146C1207.65,590.687 1259.24,625.963 1211.02,660.527C1159.01,697.807 1178.96,748.989 1195.38,773.473Z"/></clipPath><g clip-path="url(#_clip48)"><path d="M1200.19,734.359C1197.18,764.11 1166.71,737.729 1168.86,730.779C1170.33,726.057 1202.52,711.421 1200.19,734.359Z" style="fill:none;stroke:#fa8839;stroke-width:3.46px;"/><path d="M1181.97,707.63C1175.21,706.616 1176.43,691.817 1183.91,691.392C1190.88,690.996 1188.2,708.564 1181.97,707.63Z" style="fill:none;stroke:#fa8839;stroke-width:3.46px;"/><path d="M1220.16,718.598C1202.93,704.626 1201.1,709.356 1199.94,708.156C1198.74,706.905 1195.1,689.835 1210.54,691.594C1222.31,692.935 1220.85,714.972 1220.16,718.598Z" style="fill:none;stroke:#fa8839;stroke-width:3.46px;"/><path d="M1181.62,676.35C1177.74,670.174 1198.56,653.944 1205.33,668.582C1210.52,679.812 1192.77,694.102 1181.62,676.35Z" style="fill:none;stroke:#fa8839;stroke-width:3.46px;"/><path d="M1197.5,778.952C1191.32,791.114 1176.79,761.185 1181.46,759.406C1181.73,759.301 1196.29,758.769 1198.77,762.913C1200.79,766.287 1198.17,777.625 1197.5,778.952Z" style="fill:none;stroke:#fa8839;stroke-width:3.46px;"/><path d="M1328.55,703.442C1325.96,697.767 1323.38,692.092 1320.79,686.417C1311.17,697.284 1314.54,700.339 1324,710.822C1325.51,708.362 1327.03,705.902 1328.55,703.442Z" style="fill:none;stroke:#fa8839;stroke-width:3.46px;"/><path d="M1204.45,753.307C1210.72,733.295 1212.05,724.5 1227.79,734.361C1236.26,739.666 1226.37,768.689 1224.51,777.132C1223.42,777.774 1213.83,783.431 1209.39,778.302C1208.15,776.864 1218.57,773.691 1204.45,753.307Z" style="fill:none;stroke:#fa8839;stroke-width:3.46px;"/><path d="M1296.73,743.06C1311.02,755.193 1315.72,746.497 1316.34,725.574C1316.81,709.999 1309.75,713.508 1308.29,714.739C1302.71,719.459 1297.53,740.637 1296.73,743.06Z" style="fill:none;stroke:#fa8839;stroke-width:3.46px;"/></g><g><path d="M1182.27,406.028C1117,443.72 1101.62,499.529 1115.66,549.61C1135.65,620.893 1222.85,687.009 1297.09,667.247C1371.33,647.484 1365.95,536.585 1345.96,465.302C1331.92,415.222 1248.8,367.611 1182.27,406.028Z" style="fill:url(#_Linear49);"/><path d="M1155.3,474.74C1167.22,448.042 1189.28,432.309 1204.52,439.628C1219.77,446.947 1222.47,474.564 1210.56,501.262C1198.64,527.959 1176.59,543.692 1161.34,536.373C1146.09,529.054 1143.39,501.437 1155.3,474.74Z" style="fill:#f68c1e;"/><path d="M1156.2,473.007C1168.14,447.228 1189.83,431.852 1204.6,438.692C1219.37,445.532 1221.66,472.014 1209.73,497.792C1197.79,523.571 1176.11,538.947 1161.34,532.107C1146.57,525.267 1144.27,498.786 1156.2,473.007Z" style="fill:#fcfbf8;"/><path d="M1168.86,478.866C1175.15,465.275 1186.58,457.169 1194.37,460.775C1202.16,464.381 1203.37,478.342 1197.08,491.933C1190.78,505.524 1179.35,513.631 1171.56,510.025C1163.78,506.419 1162.56,492.457 1168.86,478.866Z" style="fill:#450053;"/></g><path d="M1306.49,789.944C1293.82,886.063 1183.98,950.79 980.578,985.034C848.769,1007.23 756.88,978.952 673.524,923.754C607.798,880.229 579.483,757.405 800.223,690.03C955,642.788 1068.42,569.375 1158.27,590.837C1196.82,600.046 1246.09,677.791 1269.37,693.805C1303.35,717.179 1310.27,761.263 1306.49,789.944Z" style="fill:url(#_Linear50);"/><clipPath id="_clip51"><path d="M1306.49,789.944C1293.82,886.063 1183.98,950.79 980.578,985.034C848.769,1007.23 756.88,978.952 673.524,923.754C607.798,880.229 579.483,757.405 800.223,690.03C955,642.788 1068.42,569.375 1158.27,590.837C1196.82,600.046 1246.09,677.791 1269.37,693.805C1303.35,717.179 1310.27,761.263 1306.49,789.944Z"/></clipPath><g clip-path="url(#_clip51)"><path d="M1284.8,789.533C1284.77,792.282 1284.39,823.15 1283.92,823.888" style="fill:none;stroke:#f28186;stroke-width:4.06px;"/><path d="M1274.66,810.335C1272.03,809.933 1275.87,812.689 1266.95,842.618" style="fill:none;stroke:#f28186;stroke-width:4.06px;"/><path d="M1257.71,840.331L1253.98,852.229" style="fill:none;stroke:#f28186;stroke-width:4.06px;"/><path d="M1293.14,764.249C1292.24,767.168 1292.47,767.207 1292.54,802.445" style="fill:none;stroke:#f28186;stroke-width:4.06px;"/></g><path d="M1232.49,686.412C1277.69,727.397 1283.54,859.6 995.214,919.315C864.16,946.457 724.277,915.737 682.647,848.971C648.088,793.546 670.066,650.217 825.314,581.612C1079.06,469.479 1177.7,636.741 1232.49,686.412Z" style="fill:#d12026;"/><clipPath id="_clip52"><path d="M1232.49,686.412C1277.69,727.397 1283.54,859.6 995.214,919.315C864.16,946.457 724.277,915.737 682.647,848.971C648.088,793.546 670.066,650.217 825.314,581.612C1079.06,469.479 1177.7,636.741 1232.49,686.412Z"/></clipPath><g clip-path="url(#_clip52)"><path d="M1222.89,673.52C1256.26,702.28 1270.43,797.82 1110.55,872.341C1069.48,891.484 1007.47,916.064 890.473,923.892C788.663,930.705 717.641,910.235 675.18,840.504C639.93,782.617 660.69,638.535 815.819,569.215C1081.57,450.463 1146.33,607.544 1222.89,673.52Z" style="fill:url(#_Linear53);"/><path d="M668.771,791.28C671.512,816.817 673.144,810.238 694.973,769.549C680.638,800.336 671.586,839.118 698.127,867.476C695.552,868.84 665.335,834.778 668.771,791.28Z" style="fill:#d12026;"/><path d="M836.506,924.447C802.109,917.357 780.334,876.763 809.483,811.43C785.798,856.559 755.138,909.981 703.633,873.118C709.793,879.401 769.714,924.999 836.506,924.447Z" style="fill:#d12026;"/><path d="M1255.16,720.41C1253.89,752.136 1209.04,754.934 1148.48,713.719C1184.13,750.148 1226.83,803.299 1163,850.902C1172.3,860.2 1276.83,790.069 1255.16,720.41Z" style="fill:#d12026;"/><path d="M1151.72,854.468C1113.35,868.229 1084.36,858.536 1067.16,789.091C1076.24,839.243 1065.52,908.198 1002.23,910.803C1002.23,910.803 1125.34,896.968 1151.72,854.468Z" style="fill:#d12026;"/><path d="M998.7,910.823C959.938,913.873 926.562,894.751 929.007,823.251C924.028,873.975 904.51,930.275 841.104,925.673C841.104,925.673 946.42,929.752 998.7,910.823Z" style="fill:#d12026;"/></g><g><path d="M1046.95,986.649C1046.95,986.649 1094.45,931.394 1019.4,758.495C999.352,712.319 980.872,676.906 950.669,666.346C895.195,646.951 944.009,633.547 984.937,642.494C1014.46,648.948 1035.39,683.83 1058.95,742.414C1126.01,909.133 1089.08,974.894 1089.08,974.894C1085.22,977.75 1066.27,981.47 1059.87,983.455C1051.13,986.164 1049.02,986.548 1046.95,986.649Z" style="fill:url(#_Linear54);"/><path d="M1067.62,849.049C1067.62,849.049 1055.8,850.811 1028.47,775.131C1000.94,698.898 971.8,674.645 971.8,674.645L1007.44,647.44C1007.44,647.44 1042.33,677.897 1070.92,762.408C1090.03,818.876 1106.74,841.24 1106.74,841.24C1097.97,847.328 1082.48,850.43 1067.62,849.049Z" style="fill:url(#_Linear55);"/><path d="M1050.67,773.426L1048.8,767.067" style="fill:none;stroke:#65331d;stroke-width:7.1px;"/><path d="M1051.37,771.219L1049.5,764.86" style="fill:none;stroke:#b3922f;stroke-width:7.1px;"/><path d="M1081.55,782.025L1075.91,767.755C1077.25,771.699 1070.38,759.596 1049.08,765.007C1025.77,770.927 1026.3,787.025 1024.96,783.081L1030.99,798.579" style="fill:none;stroke:#b39100;stroke-width:7.1px;"/><path d="M1041.25,820.816C1041.25,820.816 1046.83,814.369 1066.95,810.523C1087.07,806.677 1089.42,810.599 1089.42,810.599L1084.84,798.2C1084.84,798.2 1079.71,795.516 1063.33,798.87C1046.96,802.223 1037.62,808.869 1037.62,808.869L1041.25,820.816Z" style="fill:url(#_Linear56);"/><path d="M1043.67,747.491C1045.03,747.223 1046.35,748.068 1046.6,749.377C1046.85,750.687 1045.95,751.968 1044.59,752.237C1043.23,752.505 1041.92,751.66 1041.67,750.35C1041.41,749.041 1042.31,747.76 1043.67,747.491Z" style="fill:#65331d;"/><path d="M1031.15,725.719C1032.51,725.451 1033.83,726.296 1034.08,727.606C1034.33,728.915 1033.43,730.196 1032.07,730.465C1030.71,730.733 1029.4,729.888 1029.15,728.579C1028.89,727.269 1029.79,725.988 1031.15,725.719Z" style="fill:#65331d;"/><path d="M1019.78,707.761C1021.14,707.493 1022.45,708.338 1022.71,709.647C1022.96,710.957 1022.06,712.238 1020.7,712.507C1019.34,712.775 1018.03,711.93 1017.78,710.62C1017.52,709.311 1018.42,708.03 1019.78,707.761Z" style="fill:#65331d;"/><path d="M1058.6,792.24C1059.96,791.972 1061.27,792.817 1061.53,794.127C1061.78,795.436 1060.88,796.717 1059.52,796.986C1058.16,797.254 1056.85,796.409 1056.6,795.1C1056.34,793.79 1057.24,792.509 1058.6,792.24Z" style="fill:#65331d;"/></g><path d="M1042.16,586.758C1042.16,586.758 1056.38,584.785 1060.71,585.828C1077.06,589.772 1120.97,608.072 1104.69,638.087C1077.13,688.881 1104.03,657.361 1126.42,653.851C1141.12,651.546 1146.4,641.126 1149.8,613.429C1152.09,594.846 1152.25,552.909 1139.75,540.596C1127.42,528.449 1080.98,512.871 1055.44,514.576C1048.68,515.027 1040.75,518.138 1036.06,519.638C1028.76,521.974 1008.47,550.82 1004.73,561.492C999.734,575.751 1042.16,586.758 1042.16,586.758Z" style="fill:url(#_Radial57);"/><clipPath id="_clip58"><path d="M1042.16,586.758C1042.16,586.758 1056.38,584.785 1060.71,585.828C1077.06,589.772 1120.97,608.072 1104.69,638.087C1077.13,688.881 1104.03,657.361 1126.42,653.851C1141.12,651.546 1146.4,641.126 1149.8,613.429C1152.09,594.846 1152.25,552.909 1139.75,540.596C1127.42,528.449 1080.98,512.871 1055.44,514.576C1048.68,515.027 1040.75,518.138 1036.06,519.638C1028.76,521.974 1008.47,550.82 1004.73,561.492C999.734,575.751 1042.16,586.758 1042.16,586.758Z"/></clipPath><g clip-path="url(#_clip58)"><path d="M1142.69,609.356C1142.37,607.898 1142.57,610.467 1129.61,622.657" style="fill:none;stroke:#65331d;stroke-width:4.06px;"/><path d="M1138.65,623.836C1133.49,628.434 1133.49,628.213 1127.78,632.182" style="fill:none;stroke:#65331d;stroke-width:4.06px;"/><path d="M1141.11,598.847C1136.36,606.908 1135.62,606.033 1129.16,612.885" style="fill:none;stroke:#65331d;stroke-width:4.06px;"/></g><path d="M1120.81,548.494C1126.58,561.373 1126.1,636.221 1113.09,661.005C1097.13,691.414 1036.23,719.474 966.528,734.445C880.121,753.004 781.701,753.219 756.52,733.784C713.893,700.884 753.771,620.071 800.162,591.889C825.438,576.534 833.831,585.117 833.831,585.117C833.831,585.117 769.9,622.018 816.175,643.658C879.001,673.039 919.262,677.176 944.797,674.906C982.064,671.593 993.258,669.428 1024.56,659.532C1041.92,654.043 1067.23,638.99 1076.22,621.162C1081.76,610.185 988.338,594.678 987.59,572.737C987.091,558.111 1036.02,526.771 1039.19,524.003C1047.88,516.415 1117.27,540.592 1120.81,548.494Z" style="fill:url(#_Radial59);"/><path d="M1025.32,522.051C959.732,494.635 840.722,529.765 791.913,592.447C754.141,640.954 748.704,677.383 767.199,694.797C794.551,720.553 895.001,714.832 988.38,691.764C1041.35,678.677 1119.31,645.628 1096.86,582.762C1087.16,555.589 1067.81,539.811 1025.32,522.051Z" style="fill:#92522b;"/><clipPath id="_clip60"><path d="M1025.32,522.051C959.732,494.635 840.722,529.765 791.913,592.447C754.141,640.954 748.704,677.383 767.199,694.797C794.551,720.553 895.001,714.832 988.38,691.764C1041.35,678.677 1119.31,645.628 1096.86,582.762C1087.16,555.589 1067.81,539.811 1025.32,522.051Z"/></clipPath><g clip-path="url(#_clip60)"><path d="M893.763,684.255C890.339,688.329 886.916,692.404 883.493,696.478" style="fill:none;stroke:#65331d;stroke-opacity:0.5;stroke-width:4.06px;"/><path d="M898.34,688.771C894.103,694.473 889.866,700.175 885.629,705.877" style="fill:none;stroke:#65331d;stroke-opacity:0.5;stroke-width:4.06px;"/><path d="M770.094,665.423C769.595,668.028 769.095,670.633 768.596,673.239" style="fill:none;stroke:#65331d;stroke-opacity:0.5;stroke-width:4.06px;"/><path d="M777.814,668.45C775.672,670.591 771.98,684.967 772.251,688.442" style="fill:none;stroke:#65331d;stroke-opacity:0.5;stroke-width:4.06px;"/><path d="M787.309,675.699C784.754,677.126 785.612,677.734 783.487,686.143" style="fill:none;stroke:#65331d;stroke-opacity:0.5;stroke-width:4.06px;"/><path d="M1088.67,623.178C1086.92,635.707 1086.69,635.281 1084.02,647.928" style="fill:none;stroke:#65331d;stroke-opacity:0.5;stroke-width:4.06px;"/><path d="M1080.46,633.508C1079.9,636.332 1079.35,639.157 1078.79,641.981" style="fill:none;stroke:#65331d;stroke-opacity:0.5;stroke-width:4.06px;"/><path d="M1069.29,649.098L1068.5,650.681" style="fill:none;stroke:#65331d;stroke-opacity:0.5;stroke-width:4.06px;"/><path d="M1057.18,663.969L1056.45,664.943" style="fill:none;stroke:#65331d;stroke-opacity:0.5;stroke-width:4.06px;"/></g><path d="M719.682,221.87L717.866,213.237C726.788,200.764 741.855,194.941 756.385,198.858L764.133,206.975L754.743,210.03L754.393,204.818C744.099,204.622 734.09,209.84 724.977,216.138L726.232,219.877L719.682,221.87Z" style="fill:#92522b;"/><path d="M105.968,554.932C105.968,554.932 65.709,542.854 47.816,619.794" style="fill:none;stroke:#f8c97e;stroke-width:4.06px;"/><path d="M873.262,158.98C873.262,158.98 963.812,135.048 972.61,274.93" style="fill:none;stroke:#e0caae;stroke-width:4.06px;"/><path d="M103.566,530.696C103.566,530.696 48.052,514.042 23.379,620.136" style="fill:none;stroke:#f8c97e;stroke-width:4.06px;"/><path d="M932.166,140.476C958.138,142.932 1033.15,182.803 1043.17,358.933" style="fill:none;stroke:#e0caae;stroke-width:4.06px;"/><defs><linearGradient id="_Linear1" x1="0" y1="0" x2="1" y2="-0.00275301" gradientUnits="userSpaceOnUse" gradientTransform="matrix(-123.493,156.59,156.361,124.012,285.961,546.554)"><stop offset="0" style="stop-color:#fa8839;stop-opacity:1"/><stop offset="1" style="stop-color:#f8c97e;stop-opacity:1"/></linearGradient><linearGradient id="_Linear3" x1="0" y1="0" x2="1" y2="-0.0090288" gradientUnits="userSpaceOnUse" gradientTransform="matrix(384.765,-90.8334,118.241,476.867,150.175,713.943)"><stop offset="0" style="stop-color:#fa8839;stop-opacity:1"/><stop offset="1" style="stop-color:#f8c97e;stop-opacity:1"/></linearGradient><linearGradient id="_Linear5" x1="0" y1="0" x2="1" y2="-0.0539185" gradientUnits="userSpaceOnUse" gradientTransform="matrix(-41.4902,122.588,-224.719,-52.6272,403.367,656.782)"><stop offset="0" style="stop-color:#d12026;stop-opacity:1"/><stop offset="0.48" style="stop-color:#ed7320;stop-opacity:1"/><stop offset="1" style="stop-color:#f68c1e;stop-opacity:1"/></linearGradient><linearGradient id="_Linear7" x1="0" y1="0" x2="1" y2="0" gradientUnits="userSpaceOnUse" gradientTransform="matrix(-26.9656,145.254,-145.254,-26.9656,894.463,617.81)"><stop offset="0" style="stop-color:#f8c97e;stop-opacity:1"/><stop offset="1" style="stop-color:#fa8839;stop-opacity:1"/></linearGradient><linearGradient id="_Linear9" x1="0" y1="0" x2="1" y2="0" gradientUnits="userSpaceOnUse" gradientTransform="matrix(-33.1025,-146.232,146.232,-33.1025,339.128,964.449)"><stop offset="0" style="stop-color:#fa8839;stop-opacity:1"/><stop offset="1" style="stop-color:#f8c97e;stop-opacity:1"/></linearGradient><linearGradient id="_Linear11" x1="0" y1="0" x2="1" y2="0" gradientUnits="userSpaceOnUse" gradientTransform="matrix(-142.803,-163.751,163.751,-142.803,819.557,817.699)"><stop offset="0" style="stop-color:#f8c97e;stop-opacity:1"/><stop offset="1" style="stop-color:#fa8839;stop-opacity:1"/></linearGradient><linearGradient id="_Linear14" x1="0" y1="0" x2="1" y2="-0.0163762" gradientUnits="userSpaceOnUse" gradientTransform="matrix(-67.9723,267.257,-308.498,-72.3091,592.999,594.29)"><stop offset="0" style="stop-color:#357c16;stop-opacity:1"/><stop offset="1" style="stop-color:#3d683a;stop-opacity:1"/></linearGradient><linearGradient id="_Linear17" x1="0" y1="0" x2="1" y2="-0.017735" gradientUnits="userSpaceOnUse" gradientTransform="matrix(126.738,-485.246,560.282,134.205,498.248,881.306)"><stop offset="0" style="stop-color:#d12026;stop-opacity:1"/><stop offset="0.48" style="stop-color:#ed7320;stop-opacity:1"/><stop offset="1" style="stop-color:#f68c1e;stop-opacity:1"/></linearGradient><linearGradient id="_Linear18" x1="0" y1="0" x2="1" y2="0.112406" gradientUnits="userSpaceOnUse" gradientTransform="matrix(134.588,79.3178,-84.2215,114.332,633.307,592.697)"><stop offset="0" style="stop-color:#c7c4cb;stop-opacity:1"/><stop offset="1" style="stop-color:#fcfbf8;stop-opacity:1"/></linearGradient><linearGradient id="_Linear19" x1="0" y1="0" x2="1" y2="0.021252" gradientUnits="userSpaceOnUse" gradientTransform="matrix(-29.3752,-131.74,134.702,-26.9911,672.771,824.234)"><stop offset="0" style="stop-color:#65331d;stop-opacity:1"/><stop offset="0.13" style="stop-color:#773f22;stop-opacity:1"/><stop offset="0.28" style="stop-color:#894c28;stop-opacity:1"/><stop offset="0.67" style="stop-color:#92522b;stop-opacity:1"/><stop offset="0.86" style="stop-color:#894c28;stop-opacity:1"/><stop offset="0.93" style="stop-color:#773f22;stop-opacity:1"/><stop offset="1" style="stop-color:#65331d;stop-opacity:1"/></linearGradient><linearGradient id="_Linear20" x1="0" y1="0" x2="1" y2="0.0165331" gradientUnits="userSpaceOnUse" gradientTransform="matrix(-45.6374,-347.352,355.618,-40.6255,677.981,837.421)"><stop offset="0" style="stop-color:#65331d;stop-opacity:1"/><stop offset="0.13" style="stop-color:#773f22;stop-opacity:1"/><stop offset="0.27" style="stop-color:#894c28;stop-opacity:1"/><stop offset="0.65" style="stop-color:#92522b;stop-opacity:1"/><stop offset="0.85" style="stop-color:#894c28;stop-opacity:1"/><stop offset="0.93" style="stop-color:#773f22;stop-opacity:1"/><stop offset="1" style="stop-color:#65331d;stop-opacity:1"/></linearGradient><linearGradient id="_Linear21" x1="0" y1="0" x2="1" y2="-0.00871107" gradientUnits="userSpaceOnUse" gradientTransform="matrix(65.6796,3.63026,-2.97387,63.5014,622.006,660.052)"><stop offset="0" style="stop-color:#65331d;stop-opacity:1"/><stop offset="0.18" style="stop-color:#6e3a1f;stop-opacity:1"/><stop offset="0.47" style="stop-color:#834826;stop-opacity:1"/><stop offset="0.76" style="stop-color:#864a27;stop-opacity:1"/><stop offset="1" style="stop-color:#65331d;stop-opacity:1"/></linearGradient><radialGradient id="_Radial22" cx="0" cy="0" r="1" gradientUnits="userSpaceOnUse" gradientTransform="matrix(-82.4304,211.899,-211.899,-82.4304,647.071,411.469)"><stop offset="0" style="stop-color:#92522b;stop-opacity:1"/><stop offset="0.48" style="stop-color:#864a27;stop-opacity:1"/><stop offset="1" style="stop-color:#65331d;stop-opacity:1"/></radialGradient><radialGradient id="_Radial23" cx="0" cy="0" r="1" gradientUnits="userSpaceOnUse" gradientTransform="matrix(-85.1611,211.425,-211.348,-82.3347,648.378,411.696)"><stop offset="0" style="stop-color:#92522b;stop-opacity:1"/><stop offset="0.48" style="stop-color:#864a27;stop-opacity:1"/><stop offset="1" style="stop-color:#65331d;stop-opacity:1"/></radialGradient><linearGradient id="_Linear25" x1="0" y1="0" x2="1" y2="0" gradientUnits="userSpaceOnUse" gradientTransform="matrix(142.262,-159.927,159.927,142.262,163.829,646.058)"><stop offset="0" style="stop-color:#fa8839;stop-opacity:1"/><stop offset="1" style="stop-color:#f8c97e;stop-opacity:1"/></linearGradient><linearGradient id="_Linear27" x1="0" y1="0" x2="1" y2="0" gradientUnits="userSpaceOnUse" gradientTransform="matrix(139.754,-130.448,-130.448,-139.754,574.973,500.787)"><stop offset="0" style="stop-color:#e0caae;stop-opacity:1"/><stop offset="0.43" style="stop-color:#d6bd9e;stop-opacity:1"/><stop offset="1" style="stop-color:#bfa179;stop-opacity:1"/></linearGradient><linearGradient id="_Linear28" x1="0" y1="0" x2="1" y2="0" gradientUnits="userSpaceOnUse" gradientTransform="matrix(-89.8358,-67.8276,-67.8276,89.8358,864.574,274.017)"><stop offset="0" style="stop-color:#bfa179;stop-opacity:1"/><stop offset="1" style="stop-color:#e0caae;stop-opacity:1"/></linearGradient><linearGradient id="_Linear29" x1="0" y1="0" x2="1" y2="0" gradientUnits="userSpaceOnUse" gradientTransform="matrix(98.5058,-79.3009,-79.3009,-98.5058,814.035,451.42)"><stop offset="0" style="stop-color:#e0caae;stop-opacity:1"/><stop offset="0.45" style="stop-color:#c6aa84;stop-opacity:1"/><stop offset="1" style="stop-color:#bfa179;stop-opacity:1"/></linearGradient><linearGradient id="_Linear30" x1="0" y1="0" x2="1" y2="0" gradientUnits="userSpaceOnUse" gradientTransform="matrix(-127.814,174.326,174.326,127.814,734.804,96.6887)"><stop offset="0" style="stop-color:#e0caae;stop-opacity:1"/><stop offset="1" style="stop-color:#bfa179;stop-opacity:1"/></linearGradient><linearGradient id="_Linear31" x1="0" y1="0" x2="1" y2="-0.0172317" gradientUnits="userSpaceOnUse" gradientTransform="matrix(-73.8502,269.521,267.328,78.2096,746.922,158.728)"><stop offset="0" style="stop-color:#e0caae;stop-opacity:1"/><stop offset="1" style="stop-color:#bfa179;stop-opacity:1"/></linearGradient><linearGradient id="_Linear33" x1="0" y1="0" x2="1" y2="-0.630811" gradientUnits="userSpaceOnUse" gradientTransform="matrix(179.724,70.4913,172.607,-94.1467,875.182,418.655)"><stop offset="0" style="stop-color:#e0caae;stop-opacity:1"/><stop offset="1" style="stop-color:#bfa179;stop-opacity:1"/></linearGradient><linearGradient id="_Linear34" x1="0" y1="0" x2="1" y2="0.18684" gradientUnits="userSpaceOnUse" gradientTransform="matrix(-113.898,20.3509,53.6949,126.689,699.048,272.281)"><stop offset="0" style="stop-color:#e0caae;stop-opacity:1"/><stop offset="1" style="stop-color:#bfa179;stop-opacity:1"/></linearGradient><linearGradient id="_Linear35" x1="0" y1="0" x2="1" y2="0" gradientUnits="userSpaceOnUse" gradientTransform="matrix(-69.0496,226.699,226.699,69.0496,733.222,192.301)"><stop offset="0" style="stop-color:#e0caae;stop-opacity:1"/><stop offset="1" style="stop-color:#bfa179;stop-opacity:1"/></linearGradient><linearGradient id="_Linear36" x1="0" y1="0" x2="1" y2="-0.630811" gradientUnits="userSpaceOnUse" gradientTransform="matrix(178.082,-74.5434,58.3377,-187.759,1006.1,365.147)"><stop offset="0" style="stop-color:#e0caae;stop-opacity:1"/><stop offset="1" style="stop-color:#bfa179;stop-opacity:1"/></linearGradient><linearGradient id="_Linear37" x1="0" y1="0" x2="1" y2="0.355503" gradientUnits="userSpaceOnUse" gradientTransform="matrix(60.0839,-100.817,-114.363,-20.5487,811.459,307.888)"><stop offset="0" style="stop-color:#e0caae;stop-opacity:1"/><stop offset="1" style="stop-color:#bfa179;stop-opacity:1"/></linearGradient><linearGradient id="_Linear38" x1="0" y1="0" x2="1" y2="0" gradientUnits="userSpaceOnUse" gradientTransform="matrix(182.104,187.78,187.78,-182.104,529.718,58.1609)"><stop offset="0" style="stop-color:#e0caae;stop-opacity:1"/><stop offset="1" style="stop-color:#bfa179;stop-opacity:1"/></linearGradient><linearGradient id="_Linear39" x1="0" y1="0" x2="1" y2="-0.504424" gradientUnits="userSpaceOnUse" gradientTransform="matrix(-232.15,152.213,-303.393,-114.352,1414.63,739.827)"><stop offset="0" style="stop-color:#fa8839;stop-opacity:1"/><stop offset="1" style="stop-color:#f8c97e;stop-opacity:1"/></linearGradient><linearGradient id="_Linear41" x1="0" y1="0" x2="1" y2="-0.504424" gradientUnits="userSpaceOnUse" gradientTransform="matrix(145.228,-236.582,323.205,-25.735,628.117,1014.3)"><stop offset="0" style="stop-color:#fa8839;stop-opacity:1"/><stop offset="1" style="stop-color:#f8c97e;stop-opacity:1"/></linearGradient><linearGradient id="_Linear43" x1="0" y1="0" x2="1" y2="-0.306837" gradientUnits="userSpaceOnUse" gradientTransform="matrix(177.596,62.7702,105.922,-143.783,549.889,991.756)"><stop offset="0" style="stop-color:#f8c97e;stop-opacity:1"/><stop offset="1" style="stop-color:#fa8839;stop-opacity:1"/></linearGradient><linearGradient id="_Linear45" x1="0" y1="0" x2="1" y2="0.267487" gradientUnits="userSpaceOnUse" gradientTransform="matrix(171.238,-186.039,-257.489,-120.722,857.819,1067.89)"><stop offset="0" style="stop-color:#f8c97e;stop-opacity:1"/><stop offset="1" style="stop-color:#fa8839;stop-opacity:1"/></linearGradient><linearGradient id="_Linear47" x1="0" y1="0" x2="1" y2="0.0621244" gradientUnits="userSpaceOnUse" gradientTransform="matrix(-435.486,-160.342,-147.541,509.885,1429.07,792.97)"><stop offset="0" style="stop-color:#fa8839;stop-opacity:1"/><stop offset="1" style="stop-color:#f8c97e;stop-opacity:1"/></linearGradient><linearGradient id="_Linear49" x1="0" y1="0" x2="1" y2="-0.0353019" gradientUnits="userSpaceOnUse" gradientTransform="matrix(-19.4416,-253.993,-258.648,10.4845,1259.42,749.002)"><stop offset="0" style="stop-color:#fa8839;stop-opacity:1"/><stop offset="1" style="stop-color:#f8c97e;stop-opacity:1"/></linearGradient><linearGradient id="_Linear50" x1="0" y1="0" x2="1" y2="0" gradientUnits="userSpaceOnUse" gradientTransform="matrix(-232.109,-394.046,394.046,-232.109,1156.01,982.69)"><stop offset="0" style="stop-color:#f28186;stop-opacity:1"/><stop offset="1" style="stop-color:#d01f5c;stop-opacity:1"/></linearGradient><linearGradient id="_Linear53" x1="0" y1="0" x2="1" y2="0" gradientUnits="userSpaceOnUse" gradientTransform="matrix(38.5278,667.469,-667.469,38.5278,994.996,596.694)"><stop offset="0" style="stop-color:#fa8839;stop-opacity:1"/><stop offset="1" style="stop-color:#d12026;stop-opacity:1"/></linearGradient><linearGradient id="_Linear54" x1="0" y1="0" x2="1" y2="0.0129332" gradientUnits="userSpaceOnUse" gradientTransform="matrix(-63.2621,-131.655,136.264,-63.2597,1118.24,976.02)"><stop offset="0" style="stop-color:#65331d;stop-opacity:1"/><stop offset="0.13" style="stop-color:#773f22;stop-opacity:1"/><stop offset="0.28" style="stop-color:#894c28;stop-opacity:1"/><stop offset="0.67" style="stop-color:#92522b;stop-opacity:1"/><stop offset="0.86" style="stop-color:#894c28;stop-opacity:1"/><stop offset="0.93" style="stop-color:#773f22;stop-opacity:1"/><stop offset="1" style="stop-color:#65331d;stop-opacity:1"/></linearGradient><linearGradient id="_Linear55" x1="0" y1="0" x2="1" y2="0.00667976" gradientUnits="userSpaceOnUse" gradientTransform="matrix(-133.062,-355.331,367.209,-134.634,1126.97,988.613)"><stop offset="0" style="stop-color:#65331d;stop-opacity:1"/><stop offset="0.13" style="stop-color:#773f22;stop-opacity:1"/><stop offset="0.27" style="stop-color:#894c28;stop-opacity:1"/><stop offset="0.65" style="stop-color:#92522b;stop-opacity:1"/><stop offset="0.85" style="stop-color:#894c28;stop-opacity:1"/><stop offset="0.93" style="stop-color:#773f22;stop-opacity:1"/><stop offset="1" style="stop-color:#65331d;stop-opacity:1"/></linearGradient><linearGradient id="_Linear56" x1="0" y1="0" x2="1" y2="0.00417082" gradientUnits="userSpaceOnUse" gradientTransform="matrix(70.534,-13.0994,12.3248,67.8784,1024.38,815.594)"><stop offset="0" style="stop-color:#65331d;stop-opacity:1"/><stop offset="0.18" style="stop-color:#6e3a1f;stop-opacity:1"/><stop offset="0.47" style="stop-color:#834826;stop-opacity:1"/><stop offset="0.76" style="stop-color:#864a27;stop-opacity:1"/><stop offset="1" style="stop-color:#65331d;stop-opacity:1"/></linearGradient><radialGradient id="_Radial57" cx="0" cy="0" r="1" gradientUnits="userSpaceOnUse" gradientTransform="matrix(-144.522,203.482,-203.64,-143.611,1290.47,606.577)"><stop offset="0" style="stop-color:#92522b;stop-opacity:1"/><stop offset="0.48" style="stop-color:#864a27;stop-opacity:1"/><stop offset="1" style="stop-color:#65331d;stop-opacity:1"/></radialGradient><radialGradient id="_Radial59" cx="0" cy="0" r="1" gradientUnits="userSpaceOnUse" gradientTransform="matrix(77.8483,236.506,236.621,-80.0227,851.422,542.296)"><stop offset="0" style="stop-color:#92522b;stop-opacity:1"/><stop offset="0.48" style="stop-color:#864a27;stop-opacity:1"/><stop offset="1" style="stop-color:#65331d;stop-opacity:1"/></radialGradient></defs></svg>