<?xml version="1.0" encoding="UTF-8" standalone="no"?>
<!-- Created using Krita: https://krita.org -->

<svg
   width="240pt"
   height="22.56pt"
   viewBox="0 0 240 22.56"
   version="1.1"
   id="svg1"
   sodipodi:docname="wave_pattern.svg"
   inkscape:version="1.3.2 (091e20ef0f, 2023-11-25, custom)"
   xmlns:inkscape="http://www.inkscape.org/namespaces/inkscape"
   xmlns:sodipodi="http://sodipodi.sourceforge.net/DTD/sodipodi-0.dtd"
   xmlns="http://www.w3.org/2000/svg"
   preserveAspectRatio="none"
   xmlns:svg="http://www.w3.org/2000/svg">
  <sodipodi:namedview
     id="namedview1"
     pagecolor="#505050"
     bordercolor="#eeeeee"
     borderopacity="1"
     inkscape:showpageshadow="0"
     inkscape:pageopacity="0"
     inkscape:pagecheckerboard="0"
     inkscape:deskcolor="#d1d1d1"
     inkscape:document-units="pt"
     inkscape:zoom="5.45625"
     inkscape:cx="160"
     inkscape:cy="59.106529"
     inkscape:window-width="2510"
     inkscape:window-height="1364"
     inkscape:window-x="2585"
     inkscape:window-y="483"
     inkscape:window-maximized="1"
     inkscape:current-layer="svg1" />
  <defs
     id="defs1" />
  <path
     id="shape0"
     transform="translate(129.989099756691, 23.6147931873479)"
     fill="#7e7c5c"
     fill-rule="evenodd"
     stroke-opacity="0"
     stroke="#000000"
     stroke-width="0"
     stroke-linecap="square"
     stroke-linejoin="bevel"
     d="M80.1324 0L0 167.023"
     sodipodi:nodetypes="cc" />
  <path
     id="shape1"
     fill="#000000"
     fill-rule="evenodd"
     stroke-opacity="0"
     stroke="#000000"
     stroke-width="0"
     stroke-linecap="square"
     stroke-linejoin="bevel"
     d="m -5.0596935,9.0285253 c 7.8936,-3.0078 17.2199995,-6.720004 34.1399995,-6.9600037 25.38,-0.3600003 16.98,11.9999834 43.08,11.2799834 10.396,-0.2868 22.3221,-7.5817497 37.037104,-8.9333997 22.227,-2.041754 47.149,14.2840997 64.063,13.1333997 11.276,-0.7671 9.306,-10.7990597 28.506,-12.4857197 12.8,-1.12444 34.67,4.40697 42.834,7.3857197 5.442,1.9859 4.182,5.8259 -3.78,11.52 l -110.16,0.54 -139.1400635,-0.18 c -0.12,-8.28 -4.4736305,-12.29218 3.41996,-15.2999797 z"
     sodipodi:nodetypes="czzczzzcccz" />
</svg>
